<svg width="26" height="26" viewBox="0 0 26 26" fill="none" xmlns="http://www.w3.org/2000/svg">
<path d="M16.9722 5.05556L14.0834 3.61111H11.9167L9.0278 5.05556L6.86114 7.22223L5.7778 9.75V13V16.25L4.33336 18.7778C3.85188 19.3796 2.88892 20.6556 2.88892 20.9444V21.6667H23.1111L22.75 20.5833L21.3056 18.7778C21.0648 18.0556 20.5111 16.5389 20.2222 16.25C19.9334 15.9611 19.8611 13.963 19.8611 13V9.02778C19.8611 8.66667 19.1389 7.22223 18.7778 6.86111L16.9722 5.05556Z" fill="#2B55EF"/>
<path d="M23.4798 20.0995C22.7833 19.4786 22.1736 18.7668 21.667 17.9833C21.114 16.9018 20.7825 15.7208 20.692 14.5095V10.9417C20.6968 9.03906 20.0066 7.20018 18.7512 5.77054C17.4958 4.3409 15.7615 3.41891 13.8742 3.17779V2.24612C13.8742 1.99041 13.7727 1.74517 13.5918 1.56435C13.411 1.38353 13.1658 1.28195 12.9101 1.28195C12.6544 1.28195 12.4091 1.38353 12.2283 1.56435C12.0475 1.74517 11.9459 1.99041 11.9459 2.24612V3.19223C10.0755 3.45073 8.36222 4.3783 7.12328 5.80314C5.88435 7.22798 5.20376 9.05353 5.20757 10.9417V14.5095C5.11711 15.7208 4.78563 16.9018 4.23257 17.9833C3.73487 18.765 3.13493 19.4767 2.44868 20.0995C2.37164 20.1671 2.3099 20.2504 2.26756 20.3438C2.22522 20.4372 2.20325 20.5386 2.20312 20.6411V21.6233C2.20312 21.8149 2.27922 21.9986 2.41466 22.134C2.5501 22.2695 2.7338 22.3456 2.92535 22.3456H23.0031C23.1947 22.3456 23.3784 22.2695 23.5138 22.134C23.6493 21.9986 23.7253 21.8149 23.7253 21.6233V20.6411C23.7252 20.5386 23.7033 20.4372 23.6609 20.3438C23.6186 20.2504 23.5568 20.1671 23.4798 20.0995ZM3.70535 20.9011C4.37731 20.252 4.96895 19.5246 5.46757 18.7345C6.16423 17.4283 6.57071 15.9871 6.65924 14.5095V10.9417C6.63059 10.0953 6.77257 9.25173 7.07671 8.46132C7.38086 7.67092 7.84094 6.9498 8.42958 6.3409C9.01822 5.73201 9.72337 5.24779 10.503 4.91709C11.2827 4.58639 12.1209 4.41597 12.9678 4.41597C13.8147 4.41597 14.653 4.58639 15.4327 4.91709C16.2123 5.24779 16.9175 5.73201 17.5061 6.3409C18.0948 6.9498 18.5548 7.67092 18.859 8.46132C19.1631 9.25173 19.3051 10.0953 19.2765 10.9417V14.5095C19.365 15.9871 19.7715 17.4283 20.4681 18.7345C20.9667 19.5246 21.5584 20.252 22.2303 20.9011H3.70535Z" fill="#2B55EF"/>
<path d="M13 24.7578C13.455 24.7473 13.8916 24.5762 14.2326 24.2749C14.5736 23.9735 14.797 23.5613 14.8633 23.1111H11.0645C11.1327 23.5735 11.3666 23.9955 11.7226 24.2984C12.0787 24.6013 12.5326 24.7645 13 24.7578Z" fill="#2B55EF"/>
</svg>
