<svg width="26" height="26" viewBox="0 0 26 26" fill="#373473" xmlns="http://www.w3.org/2000/svg">
<path d="M23.4798 20.0994C22.7833 19.4786 22.1736 18.7668 21.667 17.9833C21.114 16.9018 20.7825 15.7208 20.692 14.5094V10.9416C20.6968 9.03903 20.0066 7.20015 18.7512 5.77051C17.4958 4.34087 15.7615 3.41888 13.8742 3.17775V2.24609C13.8742 1.99038 13.7727 1.74514 13.5918 1.56432C13.411 1.3835 13.1658 1.28192 12.9101 1.28192C12.6544 1.28192 12.4091 1.3835 12.2283 1.56432C12.0475 1.74514 11.9459 1.99038 11.9459 2.24609V3.1922C10.0755 3.4507 8.36222 4.37827 7.12328 5.80311C5.88435 7.22795 5.20376 9.0535 5.20757 10.9416V14.5094C5.11711 15.7208 4.78563 16.9018 4.23257 17.9833C3.73487 18.765 3.13493 19.4767 2.44868 20.0994C2.37164 20.1671 2.3099 20.2504 2.26756 20.3438C2.22522 20.4372 2.20325 20.5385 2.20312 20.6411V21.6233C2.20312 21.8149 2.27922 21.9986 2.41466 22.134C2.5501 22.2694 2.7338 22.3455 2.92535 22.3455H23.0031C23.1947 22.3455 23.3784 22.2694 23.5138 22.134C23.6493 21.9986 23.7253 21.8149 23.7253 21.6233V20.6411C23.7252 20.5385 23.7033 20.4372 23.6609 20.3438C23.6186 20.2504 23.5568 20.1671 23.4798 20.0994ZM3.70535 20.9011C4.37731 20.252 4.96895 19.5245 5.46757 18.7344C6.16423 17.4283 6.57071 15.9871 6.65924 14.5094V10.9416C6.63059 10.0952 6.77257 9.2517 7.07671 8.46129C7.38086 7.67089 7.84094 6.94977 8.42958 6.34087C9.01822 5.73198 9.72337 5.24776 10.503 4.91706C11.2827 4.58636 12.1209 4.41594 12.9678 4.41594C13.8147 4.41594 14.653 4.58636 15.4327 4.91706C16.2123 5.24776 16.9175 5.73198 17.5061 6.34087C18.0948 6.94977 18.5548 7.67089 18.859 8.46129C19.1631 9.2517 19.3051 10.0952 19.2765 10.9416V14.5094C19.365 15.9871 19.7715 17.4283 20.4681 18.7344C20.9667 19.5245 21.5584 20.252 22.2303 20.9011H3.70535Z"/>
<path d="M13 24.7578C13.455 24.7473 13.8916 24.5762 14.2326 24.2749C14.5736 23.9735 14.797 23.5613 14.8633 23.1111H11.0645C11.1327 23.5735 11.3666 23.9955 11.7226 24.2984C12.0787 24.6013 12.5326 24.7645 13 24.7578Z" />
</svg>
