<svg width="12" height="12" viewBox="0 0 12 12" fill="none" xmlns="http://www.w3.org/2000/svg">
<path d="M1.90354 7.64351C1.93192 7.71203 1.97999 7.7706 2.04166 7.8118C2.10333 7.85301 2.17583 7.875 2.25 7.875L9.75 7.875C9.82417 7.875 9.89667 7.85301 9.95834 7.8118C10.02 7.77059 10.0681 7.71203 10.0965 7.6435C10.1248 7.57498 10.1323 7.49958 10.1178 7.42683C10.1033 7.35409 10.0676 7.28727 10.0152 7.23483L6.26516 3.48484C6.23034 3.45002 6.189 3.42239 6.1435 3.40355C6.09801 3.3847 6.04924 3.375 6 3.375C5.95075 3.375 5.90199 3.3847 5.85649 3.40355C5.811 3.42239 5.76966 3.45002 5.73484 3.48484L1.98484 7.23483C1.93239 7.28727 1.89667 7.35409 1.8822 7.42684C1.86773 7.49958 1.87516 7.57499 1.90354 7.64351Z" fill="#1A1A1A"/>
</svg>
