<svg width="20" height="20" viewBox="0 0 20 20" fill="none" xmlns="http://www.w3.org/2000/svg">
<path d="M10.1562 6.09375C10.674 6.09375 11.0938 5.67402 11.0938 5.15625C11.0938 4.63848 10.674 4.21875 10.1562 4.21875C9.63848 4.21875 9.21875 4.63848 9.21875 5.15625C9.21875 5.67402 9.63848 6.09375 10.1562 6.09375Z" fill="#1A1A1A"/>
<path d="M10.1562 11.0938C10.674 11.0938 11.0938 10.674 11.0938 10.1562C11.0938 9.63848 10.674 9.21875 10.1562 9.21875C9.63848 9.21875 9.21875 9.63848 9.21875 10.1562C9.21875 10.674 9.63848 11.0938 10.1562 11.0938Z" fill="#1A1A1A"/>
<path d="M10.1562 16.0938C10.674 16.0938 11.0938 15.674 11.0938 15.1562C11.0938 14.6385 10.674 14.2188 10.1562 14.2188C9.63848 14.2188 9.21875 14.6385 9.21875 15.1562C9.21875 15.674 9.63848 16.0938 10.1562 16.0938Z" fill="#1A1A1A"/>
</svg>
