<svg width="28" height="28" viewBox="0 0 28 28" fill="none" xmlns="http://www.w3.org/2000/svg">
<path d="M16.6797 14C16.6797 15.48 15.48 16.6797 14 16.6797C12.52 16.6797 11.3203 15.48 11.3203 14C11.3203 12.52 12.52 11.3203 14 11.3203C15.48 11.3203 16.6797 12.52 16.6797 14Z" fill="#1A1A1A"/>
<path d="M20.2677 9.25876C20.1389 8.9097 19.9334 8.59375 19.6664 8.33441C19.407 8.06738 19.0913 7.86188 18.742 7.73306C18.4587 7.62305 18.0332 7.4921 17.2494 7.45642C16.4016 7.41776 16.1473 7.40942 14.0009 7.40942C11.8542 7.40942 11.5999 7.41754 10.7523 7.45621C9.96851 7.4921 9.54276 7.62305 9.2597 7.73306C8.91043 7.86188 8.59448 8.06738 8.33536 8.33441C8.06833 8.59375 7.86282 8.90948 7.7338 9.25876C7.62378 9.54202 7.49283 9.96777 7.45715 10.7516C7.41849 11.5992 7.41016 11.8534 7.41016 14.0001C7.41016 16.1466 7.41849 16.4008 7.45715 17.2487C7.49283 18.0325 7.62378 18.458 7.7338 18.7413C7.86282 19.0905 8.06812 19.4063 8.33514 19.6656C8.59448 19.9326 8.91022 20.1382 9.25949 20.267C9.54276 20.3772 9.96851 20.5081 10.7523 20.5438C11.5999 20.5825 11.8539 20.5906 14.0006 20.5906C16.1476 20.5906 16.4018 20.5825 17.2492 20.5438C18.033 20.5081 18.4587 20.3772 18.742 20.267C19.4431 19.9965 19.9973 19.4424 20.2677 18.7413C20.3777 18.458 20.5087 18.0325 20.5446 17.2487C20.5832 16.4008 20.5913 16.1466 20.5913 14.0001C20.5913 11.8534 20.5832 11.5992 20.5446 10.7516C20.5089 9.96777 20.3779 9.54202 20.2677 9.25876ZM14.0009 18.128C11.7209 18.128 9.87259 16.2799 9.87259 13.9999C9.87259 11.7199 11.7209 9.87186 14.0009 9.87186C16.2806 9.87186 18.1289 11.7199 18.1289 13.9999C18.1289 16.2799 16.2806 18.128 14.0009 18.128ZM18.2921 10.6734C17.7593 10.6734 17.3274 10.2414 17.3274 9.70865C17.3274 9.17587 17.7593 8.74393 18.2921 8.74393C18.8249 8.74393 19.2568 9.17587 19.2568 9.70865C19.2566 10.2414 18.8249 10.6734 18.2921 10.6734Z" fill="#1A1A1A"/>
<path d="M14 0C6.2692 0 0 6.2692 0 14C0 21.7308 6.2692 28 14 28C21.7308 28 28 21.7308 28 14C28 6.2692 21.7308 0 14 0ZM21.9906 17.3144C21.9517 18.1701 21.8156 18.7544 21.6169 19.2658C21.1993 20.3457 20.3457 21.1993 19.2658 21.6169C18.7546 21.8156 18.1701 21.9515 17.3146 21.9906C16.4573 22.0297 16.1834 22.0391 14.0002 22.0391C11.8168 22.0391 11.5431 22.0297 10.6856 21.9906C9.83008 21.9515 9.24561 21.8156 8.73441 21.6169C8.19778 21.4151 7.71201 21.0987 7.31039 20.6896C6.90152 20.2882 6.58514 19.8022 6.38327 19.2658C6.1846 18.7546 6.04852 18.1701 6.00964 17.3146C5.97012 16.4571 5.96094 16.1832 5.96094 14C5.96094 11.8168 5.97012 11.5429 6.00943 10.6856C6.04831 9.82986 6.18417 9.24561 6.38284 8.73419C6.58472 8.19778 6.90131 7.71179 7.31039 7.31039C7.71179 6.90131 8.19778 6.58493 8.73419 6.38306C9.24561 6.18439 9.82986 6.04852 10.6856 6.00943C11.5429 5.97034 11.8168 5.96094 14 5.96094C16.1832 5.96094 16.4571 5.97034 17.3144 6.00964C18.1701 6.04852 18.7544 6.18439 19.2658 6.38284C19.8022 6.58472 20.2882 6.90131 20.6898 7.31039C21.0987 7.71201 21.4153 8.19778 21.6169 8.73419C21.8158 9.24561 21.9517 9.82986 21.9908 10.6856C22.0299 11.5429 22.0391 11.8168 22.0391 14C22.0391 16.1832 22.0299 16.4571 21.9906 17.3144Z" fill="#1A1A1A"/>
</svg>
