<svg width="52" height="52" viewBox="0 0 52 52" fill="none" xmlns="http://www.w3.org/2000/svg">
<circle cx="26" cy="26" r="26" fill="#EE4E1C"/>
<path d="M39.7648 16.5677L35.4314 12.2343C35.3308 12.1337 35.2114 12.0539 35.08 11.9995C34.9485 11.945 34.8076 11.917 34.6654 11.917C34.5231 11.917 34.3822 11.945 34.2508 11.9995C34.1193 12.0539 33.9999 12.1337 33.8993 12.2343L20.8993 25.2343C20.6961 25.4375 20.582 25.713 20.582 26.0003V30.3337C20.582 30.621 20.6962 30.8965 20.8993 31.0997C21.1025 31.3029 21.378 31.417 21.6654 31.417H25.9987C26.286 31.417 26.5616 31.3029 26.7648 31.0997L39.7648 18.0997C39.9679 17.8965 40.0821 17.621 40.0821 17.3337C40.0821 17.0464 39.9679 16.7708 39.7648 16.5677ZM35.7487 19.0516L32.9475 16.2503L34.6654 14.5324L37.4667 17.3337L35.7487 19.0516Z" fill="white"/>
<path d="M38.1346 22.795L28.2981 32.6313C27.997 32.9341 27.6389 33.1741 27.2444 33.3375C26.8499 33.5009 26.427 33.5845 26 33.5833H21.6667C20.805 33.5824 19.9789 33.2397 19.3696 32.6304C18.7603 32.0211 18.4176 31.195 18.4167 30.3333V26C18.4155 25.5731 18.499 25.1501 18.6624 24.7557C18.8258 24.3612 19.0658 24.0031 19.3685 23.702L29.2077 13.8629C29.1605 13.6213 29.0314 13.4035 28.8421 13.2462C28.6527 13.089 28.4149 13.002 28.1688 13H15.1667C14.5922 13.0006 14.0414 13.229 13.6352 13.6352C13.229 14.0414 13.0006 14.5922 13 15.1667V36.8333C13.0006 37.4078 13.229 37.9586 13.6352 38.3648C14.0414 38.771 14.5922 38.9994 15.1667 39H36.8333C37.4078 38.9994 37.9586 38.771 38.3648 38.3648C38.771 37.9586 38.9994 37.4078 39 36.8333V23.8344C38.998 23.5878 38.9108 23.3496 38.753 23.1601C38.5952 22.9706 38.3767 22.8416 38.1346 22.795Z" fill="white"/>
</svg>
