<svg width="16" height="16" viewBox="0 0 16 16" fill="none" xmlns="http://www.w3.org/2000/svg">
<path d="M11 14.5001C11 14.6327 10.9473 14.7598 10.8536 14.8536C10.7598 14.9474 10.6326 15.0001 10.5 15.0001H5.50002C5.36741 15.0001 5.24023 14.9474 5.14647 14.8536C5.0527 14.7599 5.00002 14.6327 5.00002 14.5001C5.00002 14.3675 5.0527 14.2403 5.14647 14.1465C5.24023 14.0527 5.36741 14.0001 5.50002 14.0001H10.5C10.6326 14.0001 10.7598 14.0528 10.8536 14.1465C10.9473 14.2403 11 14.3675 11 14.5001ZM13.5 6.50006C13.5022 7.33358 13.3139 8.15658 12.9495 8.90622C12.5851 9.65587 12.0542 10.3124 11.3974 10.8256C11.2748 10.9195 11.1752 11.0403 11.1064 11.1786C11.0375 11.3169 11.0011 11.469 11 11.6235V12.0001C10.9997 12.2652 10.8943 12.5194 10.7068 12.7068C10.5193 12.8943 10.2651 12.9998 10 13.0001H6.00002C5.7349 12.9998 5.48072 12.8943 5.29325 12.7068C5.10578 12.5194 5.00032 12.2652 5.00002 12.0001V11.6231C4.99983 11.4703 4.96464 11.3195 4.89715 11.1823C4.82966 11.0452 4.73167 10.9253 4.61068 10.8319C3.95581 10.322 3.42548 9.66976 3.05983 8.92464C2.69418 8.17953 2.50277 7.36101 2.50008 6.53101C2.48366 3.55213 4.89156 1.07166 7.8677 1.00159C8.60089 0.983956 9.33021 1.11314 10.0127 1.38154C10.6953 1.64993 11.3172 2.05213 11.842 2.56445C12.3668 3.07678 12.7839 3.68889 13.0686 4.36477C13.3533 5.04065 13.5 5.76665 13.5 6.50006ZM11.4508 5.91278C11.3293 5.1987 10.9888 4.54007 10.4763 4.02821C9.96376 3.51634 9.30471 3.17658 8.59047 3.05603C8.5257 3.04509 8.45941 3.04701 8.39538 3.06169C8.33135 3.07638 8.27085 3.10353 8.21732 3.14161C8.16379 3.17969 8.1183 3.22795 8.08343 3.28362C8.04856 3.33929 8.025 3.40129 8.0141 3.46607C8.0032 3.53084 8.00518 3.59714 8.01991 3.66115C8.03464 3.72517 8.06185 3.78565 8.09997 3.83915C8.13809 3.89265 8.18638 3.93811 8.24208 3.97294C8.29778 4.00776 8.35979 4.03127 8.42458 4.04212C8.93404 4.12813 9.40413 4.37049 9.76969 4.73562C10.1353 5.10074 10.3782 5.57054 10.4648 6.0799C10.4845 6.19625 10.5448 6.30188 10.6349 6.3781C10.725 6.45432 10.8392 6.49623 10.9572 6.4964C10.9854 6.49639 11.0135 6.49402 11.0413 6.48932C11.1061 6.47835 11.168 6.45473 11.2236 6.41982C11.2793 6.38491 11.3274 6.33939 11.3655 6.28585C11.4035 6.23231 11.4306 6.17181 11.4452 6.1078C11.4599 6.04379 11.4617 5.97752 11.4508 5.91278Z" fill="#00C271"/>
</svg>
