<svg width="18" height="16" viewBox="0 0 18 16" fill="none" xmlns="http://www.w3.org/2000/svg">
<path fill-rule="evenodd" clip-rule="evenodd" d="M9 15.7109C7.7811 15.7109 6.69089 15.16 5.96477 14.2936C5.50614 15.1378 4.61167 15.7109 3.58333 15.7109C2.08756 15.7109 0.875 14.4984 0.875 13.0026V6.33594C0.875 4.84017 2.08756 3.6276 3.58333 3.6276C4.6186 3.6276 5.5182 4.20848 5.97399 5.06208C6.04844 4.93962 6.12867 4.80928 6.21512 4.66883L8.11389 1.58334C8.44752 1.04119 9.03853 0.710938 9.67511 0.710938C10.7986 0.710938 11.6578 1.71238 11.4869 2.82283L11.2844 4.13931C11.1236 5.18477 11.9324 6.1276 12.9902 6.1276H13.565C16.1438 6.1276 17.821 8.84144 16.6678 11.148L15.7107 13.0622C14.899 14.6855 13.2398 15.7109 11.4249 15.7109H9ZM9.17847 2.23846C9.2846 2.06599 9.4726 1.96094 9.67511 1.96094C10.0325 1.96094 10.3058 2.27951 10.2515 2.63275L10.0489 3.94924C9.7716 5.75189 11.1663 7.3776 12.9902 7.3776H13.565C15.2145 7.3776 16.2874 9.11355 15.5497 10.589L14.5926 12.5031C13.9927 13.703 12.7663 14.4609 11.4249 14.4609H9C7.50423 14.4609 6.29167 13.2484 6.29167 11.7526V8.89101C6.29167 7.91139 6.29526 7.51731 6.38039 7.14417C6.40746 7.02555 6.44061 6.9084 6.47973 6.79319C6.60279 6.43078 6.80627 6.09328 7.31969 5.25898L9.17847 2.23846ZM3.58333 4.8776C4.38875 4.8776 5.04167 5.53052 5.04167 6.33594V13.0026C5.04167 13.808 4.38875 14.4609 3.58333 14.4609C2.77792 14.4609 2.125 13.808 2.125 13.0026V6.33594C2.125 5.53052 2.77792 4.8776 3.58333 4.8776Z" fill="#838383"/>
</svg>
