<svg width="18" height="18" viewBox="0 0 18 18" fill="none" xmlns="http://www.w3.org/2000/svg">
<path d="M16.3118 3.92409C16.3116 3.91369 16.3111 3.90331 16.3102 3.89294C16.3096 3.88447 16.3088 3.87607 16.3077 3.86772C16.3065 3.858 16.305 3.84834 16.3033 3.83869C16.3018 3.82996 16.3001 3.82129 16.2982 3.8127C16.2961 3.80357 16.2937 3.79452 16.2912 3.78548C16.2887 3.77679 16.2862 3.76816 16.2833 3.75964C16.2804 3.75082 16.2771 3.74212 16.2737 3.73343C16.2705 3.72507 16.2672 3.71678 16.2635 3.70862C16.2597 3.70009 16.2556 3.6917 16.2513 3.68332C16.2472 3.67529 16.2431 3.66734 16.2386 3.65955C16.2341 3.65158 16.2293 3.64375 16.2243 3.63596C16.2193 3.628 16.214 3.62017 16.2086 3.61248C16.2035 3.60534 16.1982 3.59833 16.1928 3.59136C16.1866 3.58345 16.1802 3.57576 16.1736 3.56819C16.1705 3.56465 16.1679 3.56089 16.1647 3.55741C16.162 3.55445 16.159 3.55195 16.1562 3.54908C16.1494 3.54198 16.1424 3.53513 16.1352 3.52838C16.1286 3.52213 16.122 3.51595 16.1151 3.51008C16.1083 3.5043 16.1014 3.49884 16.0943 3.49338C16.0866 3.4874 16.079 3.48148 16.071 3.47597C16.0642 3.47118 16.0571 3.46674 16.05 3.46226C16.0416 3.45697 16.0333 3.4517 16.0247 3.44689C16.0172 3.44269 16.0095 3.43889 16.0018 3.43501C15.9934 3.43081 15.985 3.42657 15.9764 3.42279C15.9679 3.41903 15.9591 3.41575 15.9504 3.41241C15.9423 3.40933 15.9342 3.40619 15.926 3.4035C15.9167 3.40041 15.9071 3.39781 15.8975 3.39522C15.8895 3.39304 15.8815 3.39083 15.8734 3.38901C15.8638 3.38688 15.8542 3.3852 15.8445 3.38355C15.8358 3.38209 15.8273 3.38067 15.8186 3.3796C15.8094 3.37847 15.8001 3.37773 15.7908 3.37706C15.7813 3.37637 15.7718 3.37582 15.7624 3.37562C15.7582 3.37553 15.7542 3.375 15.75 3.375H2.25C2.24616 3.375 2.24245 3.3755 2.2386 3.37558C2.22837 3.37579 2.21821 3.37636 2.20801 3.37713C2.19933 3.37776 2.19071 3.37845 2.18216 3.37948C2.17282 3.38062 2.16355 3.38214 2.15428 3.38374C2.14522 3.3853 2.13616 3.38686 2.12723 3.38884C2.11851 3.3908 2.10993 3.39316 2.10128 3.39553C2.09228 3.39799 2.08328 3.40043 2.07446 3.40333C2.06574 3.40618 2.05723 3.40949 2.04864 3.41277C2.04037 3.41596 2.03206 3.41907 2.02396 3.42262C2.01503 3.42653 2.00628 3.43096 1.99749 3.43538C1.99011 3.43908 1.98272 3.44272 1.97555 3.44676C1.96673 3.45168 1.95814 3.45709 1.94956 3.46253C1.9427 3.46688 1.93579 3.47118 1.92913 3.47584C1.92107 3.48145 1.91324 3.48747 1.90544 3.49357C1.89851 3.49894 1.89164 3.50431 1.88502 3.51C1.87808 3.51592 1.87139 3.52215 1.86469 3.52847C1.85755 3.53518 1.85058 3.54199 1.84378 3.54907C1.84104 3.55195 1.83805 3.55446 1.83534 3.55741C1.83215 3.5609 1.8295 3.56465 1.82641 3.56819C1.81982 3.57576 1.81343 3.58345 1.80722 3.59137C1.80176 3.59834 1.79651 3.60534 1.79142 3.61248C1.78597 3.62017 1.78075 3.628 1.7757 3.63597C1.77072 3.64376 1.76592 3.65159 1.76138 3.65955C1.75692 3.66734 1.75277 3.67529 1.74868 3.68333C1.74442 3.6917 1.7403 3.7001 1.73649 3.70863C1.73285 3.71679 1.72952 3.72507 1.72626 3.73343C1.72286 3.74212 1.7196 3.75082 1.71668 3.75965C1.71383 3.76816 1.71129 3.7768 1.70886 3.78548C1.70635 3.79453 1.70395 3.80357 1.70185 3.81271C1.69993 3.82129 1.69825 3.82996 1.6967 3.8387C1.69498 3.84834 1.69347 3.85801 1.69227 3.86772C1.69124 3.87608 1.69041 3.88449 1.68977 3.89294C1.68894 3.90333 1.68841 3.91371 1.68819 3.9241C1.68808 3.9286 1.6875 3.93297 1.6875 3.93751V13.5C1.68784 13.7983 1.80648 14.0842 2.01738 14.2951C2.22829 14.506 2.51424 14.6247 2.8125 14.625H15.1875C15.4858 14.6247 15.7717 14.506 15.9826 14.2951C16.1935 14.0842 16.3122 13.7983 16.3125 13.5V3.9375C16.3125 3.93297 16.3119 3.92859 16.3118 3.92409ZM15.1875 13.5H2.81251V5.21624L8.61988 10.5397C8.72364 10.6348 8.85927 10.6875 9.00001 10.6875C9.14075 10.6875 9.27638 10.6348 9.38014 10.5397L15.1876 5.21614L15.1882 13.5L15.1875 13.5Z" fill="#1A1A1A"/>
</svg>
