<svg width="18" height="18" viewBox="0 0 18 18" fill="none" xmlns="http://www.w3.org/2000/svg">
<path d="M15.6074 11.1393L12.3141 9.72786C12.1421 9.65384 11.9544 9.62403 11.768 9.64116C11.5816 9.65829 11.4024 9.7218 11.2468 9.82591L9.48601 10.9997C8.40984 10.4762 7.53882 9.60907 7.01065 8.53522L7.01079 8.53509L8.18042 6.74788C8.28223 6.59273 8.344 6.41476 8.3602 6.22989C8.3764 6.04503 8.34653 5.85903 8.27325 5.68853L6.86055 2.39243C6.76439 2.16869 6.59834 1.98211 6.38726 1.86065C6.17619 1.73918 5.93145 1.68935 5.68968 1.71862C4.73967 1.84077 3.86661 2.3046 3.23361 3.02346C2.60061 3.74232 2.25097 4.66704 2.25 5.62488C2.25 11.2079 6.79202 15.7499 12.375 15.7499C13.3328 15.7489 14.2576 15.3993 14.9764 14.7662C15.6953 14.1332 16.1591 13.2602 16.2813 12.3101C16.3104 12.0684 16.2606 11.8236 16.1391 11.6126C16.0176 11.4015 15.8311 11.2355 15.6074 11.1393Z" fill="#1A1A1A"/>
<path d="M11.0626 3.35583C11.9208 3.58658 12.7032 4.03879 13.3316 4.66715C13.9599 5.29552 14.4122 6.07798 14.6429 6.93614C14.6817 7.07998 14.7759 7.20257 14.905 7.277C15.034 7.35144 15.1873 7.37164 15.3312 7.33318C15.4752 7.29471 15.5979 7.20073 15.6726 7.07184C15.7474 6.94295 15.7679 6.78969 15.7297 6.64569C15.4476 5.59665 14.8948 4.64015 14.1267 3.87202C13.3586 3.10389 12.4021 2.55109 11.353 2.26901C11.209 2.23085 11.0558 2.25138 10.9269 2.32609C10.798 2.40079 10.704 2.52358 10.6656 2.6675C10.6271 2.81142 10.6473 2.96473 10.7217 3.09377C10.7962 3.22282 10.9188 3.31706 11.0626 3.35583L11.0626 3.35583Z" fill="#1A1A1A"/>
<path d="M10.4806 5.52966C10.9573 5.65786 11.392 5.90907 11.741 6.25814C12.0901 6.60721 12.3413 7.04188 12.4695 7.5186C12.5083 7.66244 12.6025 7.78503 12.7316 7.85946C12.8606 7.93389 13.0139 7.9541 13.1578 7.91563C13.3018 7.87717 13.4245 7.78318 13.4992 7.6543C13.574 7.52541 13.5945 7.37215 13.5563 7.22815C13.3768 6.56054 13.025 5.95182 12.5362 5.46298C12.0473 4.97414 11.4386 4.62234 10.771 4.44284C10.627 4.40468 10.4737 4.42521 10.3449 4.49991C10.216 4.57462 10.122 4.69741 10.0835 4.84133C10.0451 4.98525 10.0653 5.13856 10.1397 5.2676C10.2141 5.39665 10.3367 5.49089 10.4806 5.52966L10.4806 5.52966Z" fill="#1A1A1A"/>
</svg>
