<svg width="18" height="18" viewBox="0 0 18 18" fill="none" xmlns="http://www.w3.org/2000/svg">
<path d="M9 2C7.61553 2 6.26216 2.41054 5.11101 3.17971C3.95987 3.94888 3.06266 5.04213 2.53285 6.32122C2.00303 7.6003 1.86441 9.00776 2.13451 10.3656C2.4046 11.7235 3.07129 12.9708 4.05026 13.9497C5.02922 14.9287 6.2765 15.5954 7.63437 15.8655C8.99224 16.1356 10.3997 15.997 11.6788 15.4672C12.9579 14.9373 14.0511 14.0401 14.8203 12.889C15.5895 11.7378 16 10.3845 16 9C15.9979 7.14414 15.2597 5.36491 13.9474 4.05262C12.6351 2.74033 10.8559 2.00214 9 2ZM11.5346 10.7731C11.5846 10.8231 11.6244 10.8825 11.6515 10.9478C11.6786 11.0132 11.6926 11.0832 11.6927 11.154C11.6927 11.2247 11.6788 11.2948 11.6517 11.3602C11.6247 11.4255 11.585 11.4849 11.535 11.535C11.4849 11.585 11.4255 11.6247 11.3602 11.6517C11.2948 11.6788 11.2247 11.6927 11.154 11.6927C11.0832 11.6926 11.0132 11.6786 10.9478 11.6515C10.8825 11.6244 10.8231 11.5846 10.7731 11.5346L9 9.76142L7.22687 11.5346C7.12586 11.6353 6.98897 11.6919 6.84627 11.6918C6.70358 11.6918 6.56675 11.635 6.46585 11.5341C6.36495 11.4332 6.30823 11.2964 6.30816 11.1537C6.30808 11.011 6.36465 10.8741 6.46545 10.7731L8.23858 9L6.46545 7.22686C6.36465 7.12585 6.30808 6.98897 6.30816 6.84627C6.30823 6.70358 6.36495 6.56675 6.46585 6.46585C6.56675 6.36495 6.70358 6.30823 6.84627 6.30815C6.98897 6.30808 7.12586 6.36465 7.22687 6.46544L9 8.23858L10.7731 6.46544C10.8741 6.36465 11.011 6.30808 11.1537 6.30815C11.2964 6.30823 11.4333 6.36495 11.5342 6.46585C11.6351 6.56675 11.6918 6.70358 11.6918 6.84627C11.6919 6.98897 11.6353 7.12585 11.5346 7.22686L9.76142 9L11.5346 10.7731Z" fill="#1A1A1A"/>
</svg>
