<svg width="18" height="16" viewBox="0 0 18 16" fill="none" xmlns="http://www.w3.org/2000/svg">
<path fill-rule="evenodd" clip-rule="evenodd" d="M8.91358 0.710936C10.1325 0.710936 11.2227 1.26187 11.9488 2.1283C12.4074 1.28405 13.3019 0.710936 14.3302 0.710936C15.826 0.710936 17.0386 1.9235 17.0386 3.41927L17.0386 10.0859C17.0386 11.5817 15.826 12.7943 14.3302 12.7943C13.295 12.7943 12.3954 12.2134 11.9396 11.3598C11.8651 11.4823 11.7849 11.6126 11.6985 11.753L9.79968 14.8385C9.46605 15.3807 8.87505 15.7109 8.23847 15.7109C7.11496 15.7109 6.2558 14.7095 6.42664 13.599L6.62918 12.2826C6.79002 11.2371 5.98114 10.2943 4.92338 10.2943L4.34858 10.2943C1.7698 10.2943 0.0925548 7.58043 1.24582 5.2739L2.20292 3.35971C3.01459 1.73637 4.67377 0.710935 6.48872 0.710936L8.91358 0.710936ZM8.73511 14.1834C8.62898 14.3559 8.44097 14.4609 8.23847 14.4609C7.88107 14.4609 7.60776 14.1424 7.6621 13.7891L7.86464 12.4726C8.14197 10.67 6.74724 9.04427 4.92338 9.04427L4.34858 9.04427C2.69903 9.04427 1.62615 7.30832 2.36386 5.83291L3.32095 3.91872C3.92088 2.71886 5.14723 1.96094 6.48872 1.96094L8.91358 1.96094C10.4093 1.96094 11.6219 3.1735 11.6219 4.66927L11.6219 7.53087C11.6219 8.51049 11.6183 8.90457 11.5332 9.27771C11.5061 9.39633 11.473 9.51348 11.4338 9.62869C11.3108 9.99109 11.1073 10.3286 10.5939 11.1629L8.73511 14.1834ZM14.3302 11.5443C13.5248 11.5443 12.8719 10.8914 12.8719 10.0859L12.8719 3.41927C12.8719 2.61385 13.5248 1.96094 14.3302 1.96094C15.1357 1.96094 15.7886 2.61386 15.7886 3.41927L15.7886 10.0859C15.7886 10.8914 15.1357 11.5443 14.3302 11.5443Z" fill="#838383"/>
</svg>
