<svg width="24" height="29" viewBox="0 0 24 29" fill="none" xmlns="http://www.w3.org/2000/svg">
<path d="M12.325 28.0025C12.6238 28.0035 12.919 27.9376 13.189 27.8095C13.459 27.6815 13.6968 27.4945 13.885 27.2625L23.545 15.2625C23.8392 14.9046 24 14.4558 24 13.9925C24 13.5293 23.8392 13.0804 23.545 12.7225L13.545 0.722505C13.2055 0.314071 12.7177 0.0572224 12.1889 0.008463C11.66 -0.0402965 11.1335 0.123027 10.725 0.462504C10.3166 0.801982 10.0597 1.2898 10.011 1.81866C9.96222 2.34751 10.1255 2.87407 10.465 3.2825L19.405 14.0025L10.765 24.7225C10.5205 25.0161 10.3651 25.3736 10.3173 25.7527C10.2696 26.1317 10.3314 26.5166 10.4955 26.8617C10.6596 27.2067 10.9192 27.4975 11.2434 27.6997C11.5676 27.9019 11.943 28.007 12.325 28.0025Z" fill="#373473"/>
<path d="M2.32502 28.0025C2.62381 28.0035 2.91903 27.9376 3.18899 27.8095C3.45895 27.6815 3.69679 27.4945 3.88502 27.2625L13.545 15.2625C13.8392 14.9046 14 14.4558 14 13.9925C14 13.5293 13.8392 13.0804 13.545 12.7225L3.54502 0.722505C3.20555 0.314071 2.71772 0.0572224 2.18887 0.008463C1.66002 -0.0402965 1.13346 0.123027 0.725022 0.462504C0.316589 0.801982 0.059741 1.2898 0.0109816 1.81866C-0.0377779 2.34751 0.125546 2.87407 0.465022 3.2825L9.40502 14.0025L0.765023 24.7225C0.520457 25.0161 0.365103 25.3736 0.317344 25.7527C0.269585 26.1317 0.331419 26.5166 0.49553 26.8617C0.659642 27.2067 0.919162 27.4975 1.24338 27.6997C1.5676 27.9019 1.94296 28.007 2.32502 28.0025Z" fill="#373473"/>
</svg>
