<svg width="24" height="24" viewBox="0 0 24 24" fill="none" xmlns="http://www.w3.org/2000/svg">
<path d="M21.0535 6.69745C20.9128 6.55695 20.722 6.47808 20.5232 6.47815C20.3244 6.47822 20.1337 6.55724 19.9931 6.69783C19.8525 6.83843 19.7735 7.02909 19.7734 7.22792C19.7734 7.42676 19.8522 7.61748 19.9927 7.75818C20.5499 8.31531 20.9919 8.97675 21.2934 9.7047C21.595 10.4327 21.7502 11.2129 21.7502 12.0008C21.7502 12.7888 21.595 13.569 21.2934 14.2969C20.9919 15.0249 20.5499 15.6863 19.9927 16.2435C19.8525 16.3842 19.7738 16.5749 19.774 16.7736C19.7742 16.9722 19.8532 17.1628 19.9937 17.3032C20.1342 17.4437 20.3247 17.5228 20.5234 17.5229C20.7221 17.5231 20.9127 17.4444 21.0535 17.3042C22.46 15.8976 23.2502 13.99 23.2502 12.0008C23.2502 10.0117 22.46 8.10399 21.0535 6.69744V6.69745Z" fill="#fff"/>
<path d="M14.5795 2.32706C14.4534 2.26533 14.3125 2.24026 14.1728 2.25472C14.0332 2.26917 13.9004 2.32256 13.7896 2.40881L7.24264 7.50079H3C2.60231 7.50125 2.22105 7.65943 1.93984 7.94064C1.65864 8.22184 1.50045 8.60311 1.5 9.00079V15.0008C1.50045 15.3985 1.65864 15.7797 1.93984 16.061C2.22105 16.3422 2.60231 16.5003 3 16.5008H7.24265L13.7896 21.5928C13.9004 21.679 14.0332 21.7323 14.1728 21.7468C14.3125 21.7612 14.4534 21.7362 14.5795 21.6745C14.7057 21.6128 14.8119 21.517 14.8863 21.3979C14.9606 21.2788 15 21.1412 15 21.0008V3.00079C15 2.86039 14.9606 2.7228 14.8863 2.6037C14.8119 2.48459 14.7056 2.38874 14.5795 2.32706V2.32706ZM3 9.00079H6.74725V15.0008H3V9.00079Z" fill="#fff"/>
<path d="M17.3407 9.34929C17.2711 9.41893 17.2159 9.50162 17.1782 9.59261C17.1405 9.68361 17.1211 9.78114 17.1211 9.87963C17.1211 9.97812 17.1405 10.0756 17.1782 10.1666C17.2159 10.2576 17.2712 10.3403 17.3408 10.4099C17.5498 10.6188 17.7155 10.8669 17.8286 11.1398C17.9416 11.4128 17.9998 11.7054 17.9998 12.0008C17.9998 12.2963 17.9416 12.5889 17.8286 12.8618C17.7155 13.1348 17.5498 13.3828 17.3408 13.5918C17.2002 13.7324 17.1211 13.9231 17.1211 14.1221C17.1211 14.321 17.2001 14.5117 17.3407 14.6524C17.4814 14.7931 17.6721 14.8721 17.871 14.8721C18.07 14.8721 18.2607 14.7931 18.4014 14.6525C18.7496 14.3043 19.0259 13.8909 19.2144 13.4359C19.4028 12.9809 19.4998 12.4933 19.4998 12.0008C19.4998 11.5084 19.4028 11.0207 19.2144 10.5658C19.0259 10.1108 18.7496 9.6974 18.4014 9.3492C18.3317 9.27954 18.2491 9.22429 18.1581 9.1866C18.0671 9.1489 17.9695 9.12951 17.871 9.12952C17.7725 9.12953 17.675 9.14894 17.584 9.18665C17.493 9.22436 17.4104 9.27962 17.3407 9.34929Z" fill="#fff"/>
</svg>
