<svg width="24" height="24" viewBox="0 0 24 24" fill="none" xmlns="http://www.w3.org/2000/svg">
<path d="M14.5795 2.32632C14.4534 2.26459 14.3125 2.23953 14.1728 2.25398C14.0332 2.26844 13.9004 2.32183 13.7896 2.40808L7.24265 7.50006H3C2.60231 7.50052 2.22105 7.6587 1.93984 7.9399C1.65864 8.22111 1.50045 8.60238 1.5 9.00006V15.0001C1.50045 15.3977 1.65864 15.779 1.93984 16.0602C2.22105 16.3414 2.60231 16.4996 3 16.5001H7.24265L13.7896 21.592C13.9004 21.6782 14.0332 21.7316 14.1728 21.7461C14.3125 21.7605 14.4534 21.7355 14.5795 21.6738C14.7057 21.6121 14.8119 21.5163 14.8863 21.3971C14.9606 21.278 15 21.1405 15 21.0001V3.00006C15 2.85966 14.9606 2.72207 14.8863 2.60296C14.8119 2.48385 14.7056 2.38801 14.5795 2.32632V2.32632ZM3 9.00006H6.74725V15.0001H3V9.00006Z" fill="#fff"/>
<path d="M21.3108 12.0001L23.0304 10.2804C23.1711 10.1398 23.2501 9.94898 23.2501 9.75005C23.2501 9.55112 23.1711 9.36035 23.0304 9.21969C22.8898 9.07902 22.699 9 22.5 9C22.3011 9 22.1103 9.07902 21.9697 9.21969L20.25 10.9393L18.5304 9.21969C18.3898 9.07902 18.199 9 18 9C17.8011 9 17.6103 9.07902 17.4697 9.21969C17.329 9.36035 17.25 9.55112 17.25 9.75005C17.25 9.94898 17.329 10.1398 17.4697 10.2804L19.1893 12.0001L17.4697 13.7197C17.329 13.8603 17.25 14.0511 17.25 14.2501C17.25 14.449 17.329 14.6398 17.4697 14.7804C17.6103 14.9211 17.8011 15.0001 18 15.0001C18.199 15.0001 18.3898 14.9211 18.5304 14.7804L20.25 13.0608L21.9697 14.7804C22.0393 14.8501 22.122 14.9053 22.213 14.943C22.304 14.9807 22.4016 15.0001 22.5 15.0001C22.5985 15.0001 22.6961 14.9807 22.7871 14.943C22.8781 14.9053 22.9608 14.8501 23.0304 14.7804C23.1001 14.7108 23.1553 14.6281 23.193 14.5371C23.2307 14.4461 23.2501 14.3485 23.2501 14.2501C23.2501 14.1516 23.2307 14.054 23.193 13.963C23.1553 13.872 23.1001 13.7893 23.0304 13.7197L21.3108 12.0001Z" fill="#fff"/>
</svg>
