<svg width="24" height="24" viewBox="0 0 24 24" fill="none" xmlns="http://www.w3.org/2000/svg">
<path d="M15.75 20.9998C15.75 21.1987 15.671 21.3895 15.5303 21.5301C15.3897 21.6708 15.1989 21.7498 15 21.7498H9C8.80109 21.7498 8.61032 21.6708 8.46967 21.5301C8.32902 21.3895 8.25 21.1987 8.25 20.9998C8.25 20.8009 8.32902 20.6101 8.46967 20.4695C8.61032 20.3288 8.80109 20.2498 9 20.2498H15C15.1989 20.2498 15.3897 20.3288 15.5303 20.4695C15.671 20.6101 15.75 20.8009 15.75 20.9998ZM21.75 5.99982V16.4998C21.7493 17.0963 21.512 17.6682 21.0902 18.0901C20.6684 18.5119 20.0965 18.7491 19.5 18.7498H4.5C3.90347 18.7491 3.33157 18.5119 2.90976 18.0901C2.48795 17.6682 2.25068 17.0963 2.25 16.4998V5.99982C2.25068 5.40329 2.48795 4.83139 2.90976 4.40958C3.33157 3.98777 3.90347 3.7505 4.5 3.74982H19.5C20.0965 3.7505 20.6684 3.98777 21.0902 4.40958C21.512 4.83139 21.7493 5.40329 21.75 5.99982ZM15.75 11.2498C15.7498 11.1264 15.7193 11.0049 15.661 10.896C15.6028 10.7872 15.5186 10.6944 15.416 10.6258L10.916 7.62577C10.8031 7.55034 10.6718 7.50701 10.5362 7.50039C10.4005 7.49377 10.2656 7.52412 10.1459 7.5882C10.0262 7.65227 9.92612 7.74767 9.85638 7.86419C9.78665 7.98072 9.74988 8.114 9.75 8.24979V14.2498C9.75 14.3855 9.78684 14.5187 9.85659 14.6352C9.92635 14.7517 10.0264 14.847 10.1461 14.9111C10.2658 14.9751 10.4006 15.0055 10.5362 14.9989C10.6718 14.9924 10.8031 14.9491 10.916 14.8738L15.416 11.8738C15.5186 11.8052 15.6028 11.7124 15.661 11.6036C15.7193 11.4947 15.7498 11.3732 15.75 11.2498Z" fill="white"/>
</svg>
