 <svg
    width="20"
    height="18"
    viewBox="0 0 20 18"
    fill="none"
    xmlns="http://www.w3.org/2000/svg"
  >
    <mask
      id="path-1-outside-1"
      maskUnits="userSpaceOnUse"
      x="-0.166504"
      y="-0.333984"
      width="20"
      height="18"
      fill="black"
    >
      <rect fill="white" x="-0.166504" y="-0.333984" width="20" height="18" />
      <path d="M10.0002 7.91607C10.79 7.91607 11.4326 7.26595 11.4326 6.46685C11.4326 5.66774 10.79 5.01762 10.0002 5.01762C9.21041 5.01762 8.56786 5.66774 8.56786 6.46685C8.56786 7.26595 9.21041 7.91607 10.0002 7.91607ZM10.0002 5.74223C10.3951 5.74223 10.7164 6.06729 10.7164 6.46685C10.7164 6.8664 10.3951 7.19146 10.0002 7.19146C9.60531 7.19146 9.28403 6.8664 9.28403 6.46685C9.28403 6.06729 9.60527 5.74223 10.0002 5.74223Z" />
      <path d="M11.7115 13.9076H10.7017C10.5039 13.9076 10.3436 14.0699 10.3436 14.2699C10.3436 14.47 10.5039 14.6322 10.7017 14.6322H11.7115C11.9092 14.6322 12.0696 14.47 12.0696 14.2699C12.0696 14.0699 11.9092 13.9076 11.7115 13.9076Z" />
      <path d="M4.96415 4.10758C5.16192 4.10758 5.32223 3.94535 5.32223 3.74529C5.32223 3.54523 5.16192 3.383 4.96415 3.383C4.76639 3.383 4.60597 3.54523 4.60597 3.74529C4.60597 3.94535 4.76639 4.10758 4.96415 4.10758Z" />
      <path
        fill-rule="evenodd"
        clip-rule="evenodd"
        d="M18.5089 2.71457L16.5911 1.68058C16.3568 1.55432 16.1763 1.46614 15.8935 1.36201C15.6104 1.25777 15.4161 1.20792 15.1566 1.15238L13.0307 0.697179C12.4349 0.569611 11.8886 0.842499 11.7021 1.36078L11.3347 2.38219C11.2671 2.57019 11.3629 2.77812 11.5488 2.84652L11.749 2.92028L11.5725 3.62142C11.1071 3.35712 10.5708 3.20611 10.0002 3.20611C9.42961 3.20611 8.89327 3.35712 8.42786 3.62145L8.25136 2.92032L8.4516 2.84659C8.54084 2.81377 8.61353 2.74634 8.65367 2.65928C8.69381 2.57218 8.69811 2.47255 8.66563 2.38226L8.2982 1.36078C8.11174 0.842463 7.56541 0.569538 6.96962 0.697179L4.84373 1.15238C4.58423 1.20792 4.38997 1.25781 4.1069 1.36201C3.82412 1.46617 3.64357 1.55436 3.40927 1.68062L1.49154 2.71457C0.954051 3.0043 0.70894 3.56867 0.895396 4.08691L1.26283 5.10828C1.31575 5.25545 1.45308 5.34679 1.59936 5.34679C1.64 5.34679 1.6814 5.33972 1.72179 5.32487L1.92203 5.25114L2.23514 5.90909C2.07221 5.98919 1.99222 6.18263 2.05556 6.35863C2.10849 6.5058 2.24581 6.59714 2.39209 6.59714C2.43273 6.59714 2.47413 6.59007 2.51452 6.57522L2.5465 6.56345L2.85961 7.22135C2.69668 7.30146 2.61672 7.4949 2.68003 7.6709C2.73295 7.81807 2.87028 7.90941 3.01656 7.90941C3.0572 7.90941 3.0986 7.90234 3.13899 7.88745L3.17097 7.87568L3.48404 8.53359C3.32111 8.61373 3.24115 8.80713 3.3045 8.98314C3.35742 9.13031 3.49475 9.22164 3.64103 9.22164C3.68167 9.22164 3.72303 9.21458 3.76346 9.19972L3.79543 9.18795L4.10851 9.84586C3.94558 9.926 3.86562 10.1194 3.92896 10.2954C3.98189 10.4426 4.11922 10.5339 4.26549 10.5339C4.30614 10.5339 4.34753 10.5269 4.38792 10.512L4.4199 10.5003L4.93802 11.5889C4.87227 11.7075 4.83564 11.8424 4.8355 11.9822V12.6617L3.969 13.236C3.74226 13.386 3.60672 13.6391 3.60647 13.9133V15.0324C3.60647 15.4789 3.96556 15.8423 4.40694 15.8423H5.97497L6.59302 16.9254C6.73561 17.1764 7.00078 17.3324 7.28535 17.3327H11.2065C12.3078 17.3327 13.2733 16.7343 13.803 15.8422H15.5933C16.0347 15.8422 16.3938 15.4789 16.3938 15.0324V13.9128C16.3935 13.639 16.258 13.3859 16.0315 13.236L15.1648 12.6616V11.9816C15.1646 11.8421 15.128 11.7072 15.0623 11.5888L15.5804 10.5001L15.6123 10.5119C15.6528 10.5268 15.6941 10.5338 15.7348 10.5338C15.881 10.5338 16.0184 10.4425 16.0713 10.2953C16.1346 10.1193 16.0547 9.92593 15.8918 9.84579L16.2048 9.18788L16.2368 9.19965C16.2772 9.21451 16.3186 9.22157 16.3592 9.22157C16.5055 9.22157 16.6428 9.1302 16.6958 8.98306C16.7591 8.80706 16.6791 8.61366 16.5162 8.53352L16.8293 7.87561L16.8613 7.88738C16.9017 7.90227 16.9431 7.90934 16.9837 7.90934C17.1299 7.90934 17.2673 7.81796 17.3202 7.67083C17.3836 7.49482 17.3036 7.30139 17.1406 7.22128L17.4538 6.56334L17.4857 6.57511C17.5262 6.58997 17.5675 6.59703 17.6082 6.59703C17.7544 6.59703 17.8918 6.50566 17.9447 6.35852C18.008 6.18252 17.928 5.98908 17.7651 5.90898L18.0782 5.25103L18.2785 5.32476C18.3181 5.33932 18.3596 5.34661 18.4009 5.34661C18.4527 5.34661 18.5044 5.33527 18.5523 5.31266C18.6383 5.27204 18.705 5.1985 18.7374 5.10817L19.1049 4.0868C19.2915 3.56863 19.0463 3.0043 18.5089 2.71457ZM12.5068 6.46682C12.5068 7.86524 11.3823 9.00296 10.0002 9.00296C8.61804 9.00296 7.49358 7.86524 7.49358 6.46682C7.49358 5.06839 8.61804 3.93068 10.0002 3.93068C11.3823 3.93068 12.5068 5.06839 12.5068 6.46682ZM3.78602 4.17915C3.71837 3.99111 3.51283 3.89423 3.32706 3.96256L1.81332 4.52001L1.56838 3.83909C1.49659 3.6395 1.6472 3.45168 1.82832 3.354L3.74602 2.32016C3.96065 2.20448 4.10604 2.1335 4.35183 2.043C4.59791 1.95239 4.75432 1.91224 4.99202 1.8613L7.11791 1.4061C7.31861 1.36317 7.55338 1.40907 7.62521 1.60863L7.87018 2.28958L6.35622 2.8471C6.17041 2.91557 6.07455 3.12346 6.14219 3.31147C6.20983 3.4995 6.41523 3.59649 6.60115 3.52801L7.575 3.16937L7.75265 3.87507L2.9106 5.65819L2.59835 5.00205L3.57199 4.64352C3.75783 4.57508 3.85362 4.36719 3.78602 4.17915ZM7.2031 4.84855C7.04607 5.12531 6.92816 5.42744 6.85668 5.74724C6.8306 5.93627 6.77844 6.36089 6.77844 6.54714C6.78453 6.79992 6.81912 7.04564 6.87917 7.28114L4.15954 8.28266L3.84732 7.62656L3.5351 6.97046L3.22285 6.31432L7.2031 4.84855ZM7.13481 7.95818C7.24847 8.18085 7.38683 8.38856 7.54607 8.57779C7.66279 8.70848 7.94538 9.0018 8.142 9.12951C8.27449 9.22443 8.41443 9.30939 8.5606 9.38356C8.46127 9.40508 8.36684 9.4454 8.28147 9.50377L5.51088 11.1222L5.09633 10.2511L4.78404 9.59493L4.47182 8.93883L7.13481 7.95818ZM11.2065 16.608C9.93229 16.608 8.89559 15.5591 8.89559 14.2698C8.89559 12.9805 9.93229 11.9316 11.2065 11.9316C12.4808 11.9316 13.5175 12.9805 13.5175 14.2698C13.5175 15.5591 12.4808 16.608 11.2065 16.608ZM8.17942 14.2698C8.17942 14.2828 8.17985 14.2956 8.18029 14.3085C8.18056 14.3166 8.18083 14.3246 8.18099 14.3327C8.1058 14.35 8.02874 14.3591 7.952 14.3591C7.38235 14.3591 6.91892 13.8902 6.91892 13.3138C6.91892 12.7375 7.38235 12.2685 7.952 12.2685C8.23148 12.2685 8.49328 12.3814 8.68507 12.5775C8.36591 13.0627 8.17942 13.6446 8.17942 14.2698ZM15.6393 13.8423C15.6749 13.8658 15.6777 13.9028 15.6777 13.9132V15.0323C15.6777 15.0793 15.6399 15.1175 15.5934 15.1175H14.1148C14.1916 14.8481 14.2337 14.5639 14.2337 14.2698C14.2337 12.581 12.8757 11.207 11.2065 11.207C10.4133 11.207 9.69083 11.5177 9.15051 12.0246C8.83013 11.7188 8.40473 11.544 7.952 11.544C6.98746 11.544 6.20274 12.3379 6.20274 13.3139C6.20274 14.2898 6.98746 15.0837 7.952 15.0837C8.06161 15.0837 8.17154 15.0724 8.27968 15.0515C8.44054 15.6676 8.78695 16.2079 9.25436 16.608H7.28571C7.25677 16.608 7.22927 16.5912 7.21362 16.5637L6.49186 15.2987C6.42787 15.1866 6.30967 15.1176 6.18172 15.1176H4.40697C4.36049 15.1176 4.32268 15.0793 4.32268 15.0323V13.9136C4.32268 13.9028 4.32551 13.8659 4.36125 13.8422L5.38982 13.1605C5.49083 13.0936 5.55171 12.9796 5.55171 12.8575V11.9825C5.55171 11.9595 5.56309 11.9284 5.59557 11.9095L8.65209 10.124C8.66187 10.1183 8.6714 10.1121 8.68056 10.1055C8.69489 10.0952 8.71121 10.0899 8.72915 10.0899H11.2711C11.289 10.0899 11.3054 10.0952 11.3197 10.1055C11.3289 10.1121 11.3384 10.1183 11.3482 10.124L14.4054 11.9099C14.4372 11.9284 14.4486 11.9595 14.4486 11.9821V12.8575C14.4486 12.9796 14.5095 13.0936 14.6105 13.1605L15.6393 13.8423ZM15.8408 8.28266L13.1212 7.28114C13.1813 7.04564 13.2159 6.79989 13.222 6.54714C13.2093 6.3343 13.176 5.87633 13.1437 5.74724C13.0722 5.42744 12.9543 5.12527 12.7973 4.84855L16.7775 6.31432L16.4653 6.97046L16.1531 7.62656L15.8408 8.28266ZM17.0898 5.65823L12.2477 3.87503L12.4254 3.16933L17.4021 5.00205L17.0898 5.65823ZM18.432 3.83913L18.1871 4.52004L12.1302 2.28955L12.3752 1.60859C12.447 1.40904 12.6817 1.36317 12.8825 1.40607L15.0084 1.86127C15.246 1.91213 15.4025 1.95231 15.6486 2.04296C15.8944 2.13347 16.0397 2.20444 16.2543 2.32009L18.1721 3.354C18.3532 3.45168 18.5038 3.63953 18.432 3.83913ZM14.4895 11.1222L11.7189 9.50373C11.6336 9.44537 11.5391 9.40504 11.4398 9.38352C11.586 9.30936 11.7259 9.22443 11.8584 9.12951L12.4543 8.57779C12.6136 8.38856 12.7519 8.18085 12.8656 7.95818L15.5286 8.93883L15.2164 9.59493L14.4895 11.1222Z"
      />
    </mask>
    <path
      d="M10.0002 7.91607C10.79 7.91607 11.4326 7.26595 11.4326 6.46685C11.4326 5.66774 10.79 5.01762 10.0002 5.01762C9.21041 5.01762 8.56786 5.66774 8.56786 6.46685C8.56786 7.26595 9.21041 7.91607 10.0002 7.91607ZM10.0002 5.74223C10.3951 5.74223 10.7164 6.06729 10.7164 6.46685C10.7164 6.8664 10.3951 7.19146 10.0002 7.19146C9.60531 7.19146 9.28403 6.8664 9.28403 6.46685C9.28403 6.06729 9.60527 5.74223 10.0002 5.74223Z"
      fill="#888E9C"
    />
    <path
      d="M11.7115 13.9076H10.7017C10.5039 13.9076 10.3436 14.0699 10.3436 14.2699C10.3436 14.47 10.5039 14.6322 10.7017 14.6322H11.7115C11.9092 14.6322 12.0696 14.47 12.0696 14.2699C12.0696 14.0699 11.9092 13.9076 11.7115 13.9076Z"
      fill="#888E9C"
    />
    <path
      d="M4.96415 4.10758C5.16192 4.10758 5.32223 3.94535 5.32223 3.74529C5.32223 3.54523 5.16192 3.383 4.96415 3.383C4.76639 3.383 4.60597 3.54523 4.60597 3.74529C4.60597 3.94535 4.76639 4.10758 4.96415 4.10758Z"
      fill="#888E9C"
    />
    <path
      fill-rule="evenodd"
      clip-rule="evenodd"
      d="M18.5089 2.71457L16.5911 1.68058C16.3568 1.55432 16.1763 1.46614 15.8935 1.36201C15.6104 1.25777 15.4161 1.20792 15.1566 1.15238L13.0307 0.697179C12.4349 0.569611 11.8886 0.842499 11.7021 1.36078L11.3347 2.38219C11.2671 2.57019 11.3629 2.77812 11.5488 2.84652L11.749 2.92028L11.5725 3.62142C11.1071 3.35712 10.5708 3.20611 10.0002 3.20611C9.42961 3.20611 8.89327 3.35712 8.42786 3.62145L8.25136 2.92032L8.4516 2.84659C8.54084 2.81377 8.61353 2.74634 8.65367 2.65928C8.69381 2.57218 8.69811 2.47255 8.66563 2.38226L8.2982 1.36078C8.11174 0.842463 7.56541 0.569538 6.96962 0.697179L4.84373 1.15238C4.58423 1.20792 4.38997 1.25781 4.1069 1.36201C3.82412 1.46617 3.64357 1.55436 3.40927 1.68062L1.49154 2.71457C0.954051 3.0043 0.70894 3.56867 0.895396 4.08691L1.26283 5.10828C1.31575 5.25545 1.45308 5.34679 1.59936 5.34679C1.64 5.34679 1.6814 5.33972 1.72179 5.32487L1.92203 5.25114L2.23514 5.90909C2.07221 5.98919 1.99222 6.18263 2.05556 6.35863C2.10849 6.5058 2.24581 6.59714 2.39209 6.59714C2.43273 6.59714 2.47413 6.59007 2.51452 6.57522L2.5465 6.56345L2.85961 7.22135C2.69668 7.30146 2.61672 7.4949 2.68003 7.6709C2.73295 7.81807 2.87028 7.90941 3.01656 7.90941C3.0572 7.90941 3.0986 7.90234 3.13899 7.88745L3.17097 7.87568L3.48404 8.53359C3.32111 8.61373 3.24115 8.80713 3.3045 8.98314C3.35742 9.13031 3.49475 9.22164 3.64103 9.22164C3.68167 9.22164 3.72303 9.21458 3.76346 9.19972L3.79543 9.18795L4.10851 9.84586C3.94558 9.926 3.86562 10.1194 3.92896 10.2954C3.98189 10.4426 4.11922 10.5339 4.26549 10.5339C4.30614 10.5339 4.34753 10.5269 4.38792 10.512L4.4199 10.5003L4.93802 11.5889C4.87227 11.7075 4.83564 11.8424 4.8355 11.9822V12.6617L3.969 13.236C3.74226 13.386 3.60672 13.6391 3.60647 13.9133V15.0324C3.60647 15.4789 3.96556 15.8423 4.40694 15.8423H5.97497L6.59302 16.9254C6.73561 17.1764 7.00078 17.3324 7.28535 17.3327H11.2065C12.3078 17.3327 13.2733 16.7343 13.803 15.8422H15.5933C16.0347 15.8422 16.3938 15.4789 16.3938 15.0324V13.9128C16.3935 13.639 16.258 13.3859 16.0315 13.236L15.1648 12.6616V11.9816C15.1646 11.8421 15.128 11.7072 15.0623 11.5888L15.5804 10.5001L15.6123 10.5119C15.6528 10.5268 15.6941 10.5338 15.7348 10.5338C15.881 10.5338 16.0184 10.4425 16.0713 10.2953C16.1346 10.1193 16.0547 9.92593 15.8918 9.84579L16.2048 9.18788L16.2368 9.19965C16.2772 9.21451 16.3186 9.22157 16.3592 9.22157C16.5055 9.22157 16.6428 9.1302 16.6958 8.98306C16.7591 8.80706 16.6791 8.61366 16.5162 8.53352L16.8293 7.87561L16.8613 7.88738C16.9017 7.90227 16.9431 7.90934 16.9837 7.90934C17.1299 7.90934 17.2673 7.81796 17.3202 7.67083C17.3836 7.49482 17.3036 7.30139 17.1406 7.22128L17.4538 6.56334L17.4857 6.57511C17.5262 6.58997 17.5675 6.59703 17.6082 6.59703C17.7544 6.59703 17.8918 6.50566 17.9447 6.35852C18.008 6.18252 17.928 5.98908 17.7651 5.90898L18.0782 5.25103L18.2785 5.32476C18.3181 5.33932 18.3596 5.34661 18.4009 5.34661C18.4527 5.34661 18.5044 5.33527 18.5523 5.31266C18.6383 5.27204 18.705 5.1985 18.7374 5.10817L19.1049 4.0868C19.2915 3.56863 19.0463 3.0043 18.5089 2.71457ZM12.5068 6.46682C12.5068 7.86524 11.3823 9.00296 10.0002 9.00296C8.61804 9.00296 7.49358 7.86524 7.49358 6.46682C7.49358 5.06839 8.61804 3.93068 10.0002 3.93068C11.3823 3.93068 12.5068 5.06839 12.5068 6.46682ZM3.78602 4.17915C3.71837 3.99111 3.51283 3.89423 3.32706 3.96256L1.81332 4.52001L1.56838 3.83909C1.49659 3.6395 1.6472 3.45168 1.82832 3.354L3.74602 2.32016C3.96065 2.20448 4.10604 2.1335 4.35183 2.043C4.59791 1.95239 4.75432 1.91224 4.99202 1.8613L7.11791 1.4061C7.31861 1.36317 7.55338 1.40907 7.62521 1.60863L7.87018 2.28958L6.35622 2.8471C6.17041 2.91557 6.07455 3.12346 6.14219 3.31147C6.20983 3.4995 6.41523 3.59649 6.60115 3.52801L7.575 3.16937L7.75265 3.87507L2.9106 5.65819L2.59835 5.00205L3.57199 4.64352C3.75783 4.57508 3.85362 4.36719 3.78602 4.17915ZM7.2031 4.84855C7.04607 5.12531 6.92816 5.42744 6.85668 5.74724C6.8306 5.93627 6.77844 6.36089 6.77844 6.54714C6.78453 6.79992 6.81912 7.04564 6.87917 7.28114L4.15954 8.28266L3.84732 7.62656L3.5351 6.97046L3.22285 6.31432L7.2031 4.84855ZM7.13481 7.95818C7.24847 8.18085 7.38683 8.38856 7.54607 8.57779C7.66279 8.70848 7.94538 9.0018 8.142 9.12951C8.27449 9.22443 8.41443 9.30939 8.5606 9.38356C8.46127 9.40508 8.36684 9.4454 8.28147 9.50377L5.51088 11.1222L5.09633 10.2511L4.78404 9.59493L4.47182 8.93883L7.13481 7.95818ZM11.2065 16.608C9.93229 16.608 8.89559 15.5591 8.89559 14.2698C8.89559 12.9805 9.93229 11.9316 11.2065 11.9316C12.4808 11.9316 13.5175 12.9805 13.5175 14.2698C13.5175 15.5591 12.4808 16.608 11.2065 16.608ZM8.17942 14.2698C8.17942 14.2828 8.17985 14.2956 8.18029 14.3085C8.18056 14.3166 8.18083 14.3246 8.18099 14.3327C8.1058 14.35 8.02874 14.3591 7.952 14.3591C7.38235 14.3591 6.91892 13.8902 6.91892 13.3138C6.91892 12.7375 7.38235 12.2685 7.952 12.2685C8.23148 12.2685 8.49328 12.3814 8.68507 12.5775C8.36591 13.0627 8.17942 13.6446 8.17942 14.2698ZM15.6393 13.8423C15.6749 13.8658 15.6777 13.9028 15.6777 13.9132V15.0323C15.6777 15.0793 15.6399 15.1175 15.5934 15.1175H14.1148C14.1916 14.8481 14.2337 14.5639 14.2337 14.2698C14.2337 12.581 12.8757 11.207 11.2065 11.207C10.4133 11.207 9.69083 11.5177 9.15051 12.0246C8.83013 11.7188 8.40473 11.544 7.952 11.544C6.98746 11.544 6.20274 12.3379 6.20274 13.3139C6.20274 14.2898 6.98746 15.0837 7.952 15.0837C8.06161 15.0837 8.17154 15.0724 8.27968 15.0515C8.44054 15.6676 8.78695 16.2079 9.25436 16.608H7.28571C7.25677 16.608 7.22927 16.5912 7.21362 16.5637L6.49186 15.2987C6.42787 15.1866 6.30967 15.1176 6.18172 15.1176H4.40697C4.36049 15.1176 4.32268 15.0793 4.32268 15.0323V13.9136C4.32268 13.9028 4.32551 13.8659 4.36125 13.8422L5.38982 13.1605C5.49083 13.0936 5.55171 12.9796 5.55171 12.8575V11.9825C5.55171 11.9595 5.56309 11.9284 5.59557 11.9095L8.65209 10.124C8.66187 10.1183 8.6714 10.1121 8.68056 10.1055C8.69489 10.0952 8.71121 10.0899 8.72915 10.0899H11.2711C11.289 10.0899 11.3054 10.0952 11.3197 10.1055C11.3289 10.1121 11.3384 10.1183 11.3482 10.124L14.4054 11.9099C14.4372 11.9284 14.4486 11.9595 14.4486 11.9821V12.8575C14.4486 12.9796 14.5095 13.0936 14.6105 13.1605L15.6393 13.8423ZM15.8408 8.28266L13.1212 7.28114C13.1813 7.04564 13.2159 6.79989 13.222 6.54714C13.2093 6.3343 13.176 5.87633 13.1437 5.74724C13.0722 5.42744 12.9543 5.12527 12.7973 4.84855L16.7775 6.31432L16.4653 6.97046L16.1531 7.62656L15.8408 8.28266ZM17.0898 5.65823L12.2477 3.87503L12.4254 3.16933L17.4021 5.00205L17.0898 5.65823ZM18.432 3.83913L18.1871 4.52004L12.1302 2.28955L12.3752 1.60859C12.447 1.40904 12.6817 1.36317 12.8825 1.40607L15.0084 1.86127C15.246 1.91213 15.4025 1.95231 15.6486 2.04296C15.8944 2.13347 16.0397 2.20444 16.2543 2.32009L18.1721 3.354C18.3532 3.45168 18.5038 3.63953 18.432 3.83913ZM14.4895 11.1222L11.7189 9.50373C11.6336 9.44537 11.5391 9.40504 11.4398 9.38352C11.586 9.30936 11.7259 9.22443 11.8584 9.12951L12.4543 8.57779C12.6136 8.38856 12.7519 8.18085 12.8656 7.95818L15.5286 8.93883L15.2164 9.59493L14.4895 11.1222Z"
      fill="#888E9C"
    />
    <path
      d="M10.0002 7.91607C10.79 7.91607 11.4326 7.26595 11.4326 6.46685C11.4326 5.66774 10.79 5.01762 10.0002 5.01762C9.21041 5.01762 8.56786 5.66774 8.56786 6.46685C8.56786 7.26595 9.21041 7.91607 10.0002 7.91607ZM10.0002 5.74223C10.3951 5.74223 10.7164 6.06729 10.7164 6.46685C10.7164 6.8664 10.3951 7.19146 10.0002 7.19146C9.60531 7.19146 9.28403 6.8664 9.28403 6.46685C9.28403 6.06729 9.60527 5.74223 10.0002 5.74223Z"
      stroke="#888E9C"
      stroke-width="0.2"
      mask="url(#path-1-outside-1)"
    />
    <path
      d="M11.7115 13.9076H10.7017C10.5039 13.9076 10.3436 14.0699 10.3436 14.2699C10.3436 14.47 10.5039 14.6322 10.7017 14.6322H11.7115C11.9092 14.6322 12.0696 14.47 12.0696 14.2699C12.0696 14.0699 11.9092 13.9076 11.7115 13.9076Z"
      stroke="#888E9C"
      stroke-width="0.2"
      mask="url(#path-1-outside-1)"
    />
    <path
      d="M4.96415 4.10758C5.16192 4.10758 5.32223 3.94535 5.32223 3.74529C5.32223 3.54523 5.16192 3.383 4.96415 3.383C4.76639 3.383 4.60597 3.54523 4.60597 3.74529C4.60597 3.94535 4.76639 4.10758 4.96415 4.10758Z"
      stroke="#888E9C"
      stroke-width="0.2"
      mask="url(#path-1-outside-1)"
    />
    <path
      fill-rule="evenodd"
      clip-rule="evenodd"
      d="M18.5089 2.71457L16.5911 1.68058C16.3568 1.55432 16.1763 1.46614 15.8935 1.36201C15.6104 1.25777 15.4161 1.20792 15.1566 1.15238L13.0307 0.697179C12.4349 0.569611 11.8886 0.842499 11.7021 1.36078L11.3347 2.38219C11.2671 2.57019 11.3629 2.77812 11.5488 2.84652L11.749 2.92028L11.5725 3.62142C11.1071 3.35712 10.5708 3.20611 10.0002 3.20611C9.42961 3.20611 8.89327 3.35712 8.42786 3.62145L8.25136 2.92032L8.4516 2.84659C8.54084 2.81377 8.61353 2.74634 8.65367 2.65928C8.69381 2.57218 8.69811 2.47255 8.66563 2.38226L8.2982 1.36078C8.11174 0.842463 7.56541 0.569538 6.96962 0.697179L4.84373 1.15238C4.58423 1.20792 4.38997 1.25781 4.1069 1.36201C3.82412 1.46617 3.64357 1.55436 3.40927 1.68062L1.49154 2.71457C0.954051 3.0043 0.70894 3.56867 0.895396 4.08691L1.26283 5.10828C1.31575 5.25545 1.45308 5.34679 1.59936 5.34679C1.64 5.34679 1.6814 5.33972 1.72179 5.32487L1.92203 5.25114L2.23514 5.90909C2.07221 5.98919 1.99222 6.18263 2.05556 6.35863C2.10849 6.5058 2.24581 6.59714 2.39209 6.59714C2.43273 6.59714 2.47413 6.59007 2.51452 6.57522L2.5465 6.56345L2.85961 7.22135C2.69668 7.30146 2.61672 7.4949 2.68003 7.6709C2.73295 7.81807 2.87028 7.90941 3.01656 7.90941C3.0572 7.90941 3.0986 7.90234 3.13899 7.88745L3.17097 7.87568L3.48404 8.53359C3.32111 8.61373 3.24115 8.80713 3.3045 8.98314C3.35742 9.13031 3.49475 9.22164 3.64103 9.22164C3.68167 9.22164 3.72303 9.21458 3.76346 9.19972L3.79543 9.18795L4.10851 9.84586C3.94558 9.926 3.86562 10.1194 3.92896 10.2954C3.98189 10.4426 4.11922 10.5339 4.26549 10.5339C4.30614 10.5339 4.34753 10.5269 4.38792 10.512L4.4199 10.5003L4.93802 11.5889C4.87227 11.7075 4.83564 11.8424 4.8355 11.9822V12.6617L3.969 13.236C3.74226 13.386 3.60672 13.6391 3.60647 13.9133V15.0324C3.60647 15.4789 3.96556 15.8423 4.40694 15.8423H5.97497L6.59302 16.9254C6.73561 17.1764 7.00078 17.3324 7.28535 17.3327H11.2065C12.3078 17.3327 13.2733 16.7343 13.803 15.8422H15.5933C16.0347 15.8422 16.3938 15.4789 16.3938 15.0324V13.9128C16.3935 13.639 16.258 13.3859 16.0315 13.236L15.1648 12.6616V11.9816C15.1646 11.8421 15.128 11.7072 15.0623 11.5888L15.5804 10.5001L15.6123 10.5119C15.6528 10.5268 15.6941 10.5338 15.7348 10.5338C15.881 10.5338 16.0184 10.4425 16.0713 10.2953C16.1346 10.1193 16.0547 9.92593 15.8918 9.84579L16.2048 9.18788L16.2368 9.19965C16.2772 9.21451 16.3186 9.22157 16.3592 9.22157C16.5055 9.22157 16.6428 9.1302 16.6958 8.98306C16.7591 8.80706 16.6791 8.61366 16.5162 8.53352L16.8293 7.87561L16.8613 7.88738C16.9017 7.90227 16.9431 7.90934 16.9837 7.90934C17.1299 7.90934 17.2673 7.81796 17.3202 7.67083C17.3836 7.49482 17.3036 7.30139 17.1406 7.22128L17.4538 6.56334L17.4857 6.57511C17.5262 6.58997 17.5675 6.59703 17.6082 6.59703C17.7544 6.59703 17.8918 6.50566 17.9447 6.35852C18.008 6.18252 17.928 5.98908 17.7651 5.90898L18.0782 5.25103L18.2785 5.32476C18.3181 5.33932 18.3596 5.34661 18.4009 5.34661C18.4527 5.34661 18.5044 5.33527 18.5523 5.31266C18.6383 5.27204 18.705 5.1985 18.7374 5.10817L19.1049 4.0868C19.2915 3.56863 19.0463 3.0043 18.5089 2.71457ZM12.5068 6.46682C12.5068 7.86524 11.3823 9.00296 10.0002 9.00296C8.61804 9.00296 7.49358 7.86524 7.49358 6.46682C7.49358 5.06839 8.61804 3.93068 10.0002 3.93068C11.3823 3.93068 12.5068 5.06839 12.5068 6.46682ZM3.78602 4.17915C3.71837 3.99111 3.51283 3.89423 3.32706 3.96256L1.81332 4.52001L1.56838 3.83909C1.49659 3.6395 1.6472 3.45168 1.82832 3.354L3.74602 2.32016C3.96065 2.20448 4.10604 2.1335 4.35183 2.043C4.59791 1.95239 4.75432 1.91224 4.99202 1.8613L7.11791 1.4061C7.31861 1.36317 7.55338 1.40907 7.62521 1.60863L7.87018 2.28958L6.35622 2.8471C6.17041 2.91557 6.07455 3.12346 6.14219 3.31147C6.20983 3.4995 6.41523 3.59649 6.60115 3.52801L7.575 3.16937L7.75265 3.87507L2.9106 5.65819L2.59835 5.00205L3.57199 4.64352C3.75783 4.57508 3.85362 4.36719 3.78602 4.17915ZM7.2031 4.84855C7.04607 5.12531 6.92816 5.42744 6.85668 5.74724C6.8306 5.93627 6.77844 6.36089 6.77844 6.54714C6.78453 6.79992 6.81912 7.04564 6.87917 7.28114L4.15954 8.28266L3.84732 7.62656L3.5351 6.97046L3.22285 6.31432L7.2031 4.84855ZM7.13481 7.95818C7.24847 8.18085 7.38683 8.38856 7.54607 8.57779C7.66279 8.70848 7.94538 9.0018 8.142 9.12951C8.27449 9.22443 8.41443 9.30939 8.5606 9.38356C8.46127 9.40508 8.36684 9.4454 8.28147 9.50377L5.51088 11.1222L5.09633 10.2511L4.78404 9.59493L4.47182 8.93883L7.13481 7.95818ZM11.2065 16.608C9.93229 16.608 8.89559 15.5591 8.89559 14.2698C8.89559 12.9805 9.93229 11.9316 11.2065 11.9316C12.4808 11.9316 13.5175 12.9805 13.5175 14.2698C13.5175 15.5591 12.4808 16.608 11.2065 16.608ZM8.17942 14.2698C8.17942 14.2828 8.17985 14.2956 8.18029 14.3085C8.18056 14.3166 8.18083 14.3246 8.18099 14.3327C8.1058 14.35 8.02874 14.3591 7.952 14.3591C7.38235 14.3591 6.91892 13.8902 6.91892 13.3138C6.91892 12.7375 7.38235 12.2685 7.952 12.2685C8.23148 12.2685 8.49328 12.3814 8.68507 12.5775C8.36591 13.0627 8.17942 13.6446 8.17942 14.2698ZM15.6393 13.8423C15.6749 13.8658 15.6777 13.9028 15.6777 13.9132V15.0323C15.6777 15.0793 15.6399 15.1175 15.5934 15.1175H14.1148C14.1916 14.8481 14.2337 14.5639 14.2337 14.2698C14.2337 12.581 12.8757 11.207 11.2065 11.207C10.4133 11.207 9.69083 11.5177 9.15051 12.0246C8.83013 11.7188 8.40473 11.544 7.952 11.544C6.98746 11.544 6.20274 12.3379 6.20274 13.3139C6.20274 14.2898 6.98746 15.0837 7.952 15.0837C8.06161 15.0837 8.17154 15.0724 8.27968 15.0515C8.44054 15.6676 8.78695 16.2079 9.25436 16.608H7.28571C7.25677 16.608 7.22927 16.5912 7.21362 16.5637L6.49186 15.2987C6.42787 15.1866 6.30967 15.1176 6.18172 15.1176H4.40697C4.36049 15.1176 4.32268 15.0793 4.32268 15.0323V13.9136C4.32268 13.9028 4.32551 13.8659 4.36125 13.8422L5.38982 13.1605C5.49083 13.0936 5.55171 12.9796 5.55171 12.8575V11.9825C5.55171 11.9595 5.56309 11.9284 5.59557 11.9095L8.65209 10.124C8.66187 10.1183 8.6714 10.1121 8.68056 10.1055C8.69489 10.0952 8.71121 10.0899 8.72915 10.0899H11.2711C11.289 10.0899 11.3054 10.0952 11.3197 10.1055C11.3289 10.1121 11.3384 10.1183 11.3482 10.124L14.4054 11.9099C14.4372 11.9284 14.4486 11.9595 14.4486 11.9821V12.8575C14.4486 12.9796 14.5095 13.0936 14.6105 13.1605L15.6393 13.8423ZM15.8408 8.28266L13.1212 7.28114C13.1813 7.04564 13.2159 6.79989 13.222 6.54714C13.2093 6.3343 13.176 5.87633 13.1437 5.74724C13.0722 5.42744 12.9543 5.12527 12.7973 4.84855L16.7775 6.31432L16.4653 6.97046L16.1531 7.62656L15.8408 8.28266ZM17.0898 5.65823L12.2477 3.87503L12.4254 3.16933L17.4021 5.00205L17.0898 5.65823ZM18.432 3.83913L18.1871 4.52004L12.1302 2.28955L12.3752 1.60859C12.447 1.40904 12.6817 1.36317 12.8825 1.40607L15.0084 1.86127C15.246 1.91213 15.4025 1.95231 15.6486 2.04296C15.8944 2.13347 16.0397 2.20444 16.2543 2.32009L18.1721 3.354C18.3532 3.45168 18.5038 3.63953 18.432 3.83913ZM14.4895 11.1222L11.7189 9.50373C11.6336 9.44537 11.5391 9.40504 11.4398 9.38352C11.586 9.30936 11.7259 9.22443 11.8584 9.12951L12.4543 8.57779C12.6136 8.38856 12.7519 8.18085 12.8656 7.95818L15.5286 8.93883L15.2164 9.59493L14.4895 11.1222Z"
      stroke="#888E9C"
      stroke-width="0.2"
      mask="url(#path-1-outside-1)"
    />
  </svg>