 <svg
    width="20"
    height="20"
    viewBox="0 0 20 20"
    fill="none"
    xmlns="http://www.w3.org/2000/svg"
  >
    <path
      d="M18.3306 7.09369C18.3306 5.70375 17.8015 4.31392 16.7432 3.25573C15.7179 2.23059 14.3548 1.66602 12.9048 1.66602C11.4548 1.66602 10.0917 2.23059 9.06646 3.25573L2.53112 11.8623C1.28537 13.4267 1.38569 15.7177 2.83273 17.1645C3.6103 17.9421 4.63175 18.3308 5.65319 18.3308C5.67634 18.3308 5.69948 18.3304 5.72249 18.33V18.3327H15.9394V18.3312C17.2447 18.2995 18.2999 17.2444 18.3316 15.9393H18.3331V7.09369H18.3306ZM9.75743 3.9467C10.5981 3.10606 11.7159 2.64309 12.9048 2.64309C14.0937 2.64309 15.2116 3.10606 16.0522 3.9467C17.7877 5.682 17.7877 8.50539 16.0522 10.2407C15.2116 11.0813 14.0937 11.5443 12.9048 11.5443C11.7159 11.5443 10.5981 11.0813 9.75743 10.2407C8.02199 8.50539 8.02199 5.682 9.75743 3.9467ZM3.5237 16.4737C2.34954 15.2996 2.34954 13.3892 3.5237 12.2152C4.11091 11.6281 4.88186 11.3346 5.65319 11.3346C6.42427 11.3346 7.1956 11.6282 7.78269 12.2152C8.95685 13.3892 8.95685 15.2996 7.78269 16.4737C6.60839 17.6477 4.69787 17.6477 3.5237 16.4737ZM15.8793 17.3556C15.0649 17.3556 14.4025 16.6933 14.4025 15.8791C14.4025 15.0649 15.0649 14.4025 15.8793 14.4025C16.6934 14.4025 17.3559 15.0649 17.3559 15.8791C17.3559 16.6933 16.6934 17.3556 15.8793 17.3556ZM17.3559 13.921C16.9447 13.6102 16.4331 13.4255 15.8793 13.4255C14.5261 13.4255 13.4253 14.5261 13.4253 15.8791C13.4253 16.433 13.61 16.9444 13.9208 17.3556H8.26842C8.33849 17.2947 8.40702 17.2311 8.47365 17.1645C10.0288 15.6095 10.0288 13.0793 8.47365 11.5243C7.48577 10.5366 6.1046 10.1765 4.8296 10.4435L7.48158 6.93793C7.44051 8.37925 7.96872 9.83392 9.06646 10.9315C10.0917 11.9567 11.455 12.5214 12.9048 12.5214C14.3548 12.5214 15.718 11.9568 16.7433 10.9315C16.9723 10.7025 17.1765 10.4579 17.3559 10.2011V13.921Z"
      fill="#888E9C"
    />
    <path
      d="M10.4191 7.09699V7.09355C10.4191 6.65753 10.5334 6.22889 10.7498 5.85378C10.8846 5.62006 10.8045 5.32137 10.5707 5.18659C10.3369 5.05167 10.0381 5.13191 9.90334 5.36562C9.60148 5.88887 9.44189 6.48638 9.44189 7.09355V7.09699C9.44189 7.36681 9.6606 7.58552 9.93055 7.58552C10.2004 7.58552 10.4191 7.36681 10.4191 7.09699Z"
      fill="#888E9C"
    />
    <path
      d="M14.1483 9.24558C13.7728 9.46302 13.3433 9.5781 12.9063 9.57835C12.6364 9.57848 12.4178 9.79732 12.418 10.0671C12.4181 10.3368 12.6368 10.5554 12.9066 10.5554H12.9069C13.5155 10.555 14.114 10.3944 14.638 10.091C14.8716 9.95588 14.9513 9.65706 14.816 9.42348C14.6809 9.19002 14.3819 9.11029 14.1483 9.24558Z"
      fill="#888E9C"
    />
    <path
      d="M11.6639 9.24677C11.2864 9.02883 10.9713 8.71437 10.7527 8.33723C10.6174 8.10389 10.3183 8.02442 10.0849 8.15972C9.85141 8.29501 9.77194 8.59395 9.90736 8.82741C10.2115 9.35193 10.65 9.7896 11.1751 10.0929C11.2522 10.1374 11.3361 10.1585 11.419 10.1585C11.5879 10.1585 11.7521 10.0709 11.8426 9.91422C11.9776 9.6805 11.8975 9.38181 11.6639 9.24677Z"
      fill="#888E9C"
    />
    <path
      d="M15.3905 7.08619V7.09306C15.3905 7.5301 15.2757 7.95963 15.0584 8.33525C14.9233 8.56884 15.0032 8.86766 15.2368 9.0027C15.3137 9.04733 15.3979 9.06844 15.4809 9.06844C15.6496 9.06844 15.8137 8.98095 15.9043 8.82442C16.2075 8.30028 16.3677 7.70163 16.3677 7.09306V7.08619C16.3677 6.81637 16.149 6.59766 15.8791 6.59766C15.6092 6.59766 15.3905 6.81637 15.3905 7.08619Z"
      fill="#888E9C"
    />
    <path
      d="M11.4139 5.00835C11.4972 5.00835 11.5816 4.98698 11.6588 4.9421C12.0342 4.72428 12.4636 4.60869 12.9005 4.60793C13.1703 4.60755 13.3888 4.38846 13.3883 4.11863C13.3878 3.84906 13.1692 3.63086 12.8997 3.63086C12.8995 3.63086 12.8991 3.63086 12.8988 3.63086C12.2903 3.63188 11.6919 3.79311 11.1681 4.09714C10.9348 4.23269 10.8554 4.53164 10.991 4.76497C11.0816 4.92112 11.2456 5.00835 11.4139 5.00835Z"
      fill="#888E9C"
    />
    <path
      d="M14.1433 4.93728C14.5209 5.15485 14.8364 5.46892 15.0555 5.84581C15.1461 6.00184 15.3099 6.08894 15.4783 6.08894C15.5617 6.08894 15.6461 6.06745 15.7234 6.02256C15.9566 5.88701 16.0359 5.58794 15.9002 5.35474C15.5954 4.83047 15.1564 4.39331 14.631 4.09067C14.3971 3.95601 14.0984 4.03638 13.9637 4.27009C13.8291 4.50393 13.9094 4.80262 14.1433 4.93728Z"
      fill="#888E9C"
    />
    <path
      d="M12.9045 8.64254C13.7593 8.64254 14.4546 7.94725 14.4546 7.09275C14.4546 6.23813 13.7593 5.54297 12.9045 5.54297C12.0498 5.54297 11.3545 6.23813 11.3545 7.09275C11.3545 7.94725 12.0498 8.64254 12.9045 8.64254ZM12.9045 6.52004C13.2204 6.52004 13.4774 6.7769 13.4774 7.09275C13.4774 7.40848 13.2204 7.66547 12.9045 7.66547C12.5887 7.66547 12.3317 7.40848 12.3317 7.09275C12.3317 6.7769 12.5887 6.52004 12.9045 6.52004Z"
      fill="#888E9C"
    />
    <path
      d="M5.65307 12.7949C4.79832 12.7949 4.10303 13.4902 4.10303 14.3447C4.10303 15.1993 4.79845 15.8945 5.65307 15.8945C6.50769 15.8945 7.2031 15.1993 7.2031 14.3447C7.2031 13.4902 6.50769 12.7949 5.65307 12.7949ZM5.65307 14.9174C5.33721 14.9174 5.08023 14.6606 5.08023 14.3447C5.08023 14.029 5.33721 13.772 5.65307 13.772C5.96892 13.772 6.22591 14.029 6.22591 14.3447C6.22591 14.6606 5.96892 14.9174 5.65307 14.9174Z"
      fill="#888E9C"
    />
    <path
      d="M15.8793 15.2285C15.6093 15.2285 15.3906 15.4472 15.3906 15.7171V16.0428C15.3906 16.3127 15.6093 16.5314 15.8793 16.5314C16.1491 16.5314 16.3678 16.3127 16.3678 16.0428V15.7171C16.3678 15.4472 16.1491 15.2285 15.8793 15.2285Z"
      fill="#888E9C"
    />
  </svg>
