 <svg
    width="20"
    height="20"
    viewBox="0 0 20 20"
    fill="none"
    xmlns="http://www.w3.org/2000/svg"
  >
    <path
      d="M11.6405 13.1562H12.1405V12.6562V12.2969H12.2343V13.25H7.76554V12.2969H7.85929V12.6562V13.1562H8.35929H11.6405ZM16.5942 7.95737L16.7985 8.52131L17.3165 8.21891L18.0065 7.81606L18.126 8.02482L17.242 8.54084L16.8819 8.75105L17.024 9.14306L17.3072 9.92431L17.3072 9.92432L17.3091 9.92947C17.311 9.93447 17.3124 9.9413 17.3124 9.94922V16.75C17.3124 16.7773 17.3024 16.7945 17.2951 16.8024C17.2942 16.8034 17.2934 16.8041 17.2928 16.8047H15.9861C15.9814 16.8002 15.9725 16.7889 15.9681 16.768C15.9681 16.7678 15.968 16.7676 15.968 16.7675L15.8179 16.0328L15.7362 15.6328H15.328H4.67179H4.26359L4.1819 16.0328L4.03151 16.7691L4.03111 16.7711C4.02725 16.7904 4.01894 16.8007 4.0145 16.8047H2.70703C2.70638 16.8041 2.7056 16.8034 2.70473 16.8024C2.69742 16.7945 2.68741 16.7773 2.68741 16.75V9.94922C2.68741 9.9413 2.68886 9.93447 2.69073 9.92947L2.69076 9.92948L2.69264 9.92431L2.97584 9.14306L3.11804 8.75077L2.75753 8.54066L1.8738 8.02564L1.9932 7.81758L2.68569 8.22108L3.20283 8.5224L3.40732 7.9599L4.86435 3.95209L4.86743 3.94362L4.8702 3.93505C5.01253 3.49476 5.42207 3.19727 5.88272 3.19727L14.3456 3.19727L14.346 3.19727C14.5046 3.19715 14.6591 3.24743 14.7872 3.34086C14.9154 3.43428 15.0105 3.56601 15.0589 3.71704L15.0618 3.72593L15.0649 3.73471L16.5942 7.95737ZM1.70216 8.32474L1.70311 8.32308L1.70216 8.32474ZM16.9062 10.0977V10.0098L16.8762 9.92714L16.5715 9.08729L16.452 8.75781H16.1015H3.89835H3.54786L3.42832 9.08729L3.12364 9.92714L3.09366 10.0098V10.0977V14.7266V15.2266H3.59366H16.4062H16.9062V14.7266V10.0977ZM5.25004 4.08028L5.24996 4.08025L5.24682 4.08888L3.8269 7.99317L3.58291 8.66406H4.29679H15.7069H16.42L16.177 7.99366L14.7044 3.93116L14.5849 3.60156H14.2343H5.88272C5.59611 3.60156 5.34852 3.78515 5.25994 4.05087L5.25982 4.05083L5.2564 4.06194L5.25364 4.07092L5.25004 4.08028ZM14.6448 11.5465C14.592 11.4938 14.5624 11.4223 14.5624 11.3477C14.5624 11.2731 14.592 11.2015 14.6448 11.1488C14.6975 11.096 14.7691 11.0664 14.8437 11.0664C14.9183 11.0664 14.9898 11.096 15.0425 11.1488C15.0953 11.2015 15.1249 11.2731 15.1249 11.3477C15.1249 11.4222 15.0953 11.4938 15.0425 11.5465C14.9898 11.5993 14.9183 11.6289 14.8437 11.6289C14.7691 11.6289 14.6975 11.5993 14.6448 11.5465ZM4.95729 11.5465C4.90454 11.4938 4.87491 11.4222 4.87491 11.3477C4.87491 11.2731 4.90454 11.2015 4.95729 11.1488C5.01003 11.096 5.08157 11.0664 5.15616 11.0664C5.23076 11.0664 5.30229 11.096 5.35504 11.1488C5.40778 11.2015 5.43741 11.2731 5.43741 11.3477C5.43741 11.4222 5.40778 11.4938 5.35504 11.5465C5.30229 11.5993 5.23076 11.6289 5.15616 11.6289C5.08157 11.6289 5.01003 11.5993 4.95729 11.5465Z"
      fill="#888E9C"
      stroke="#888E9C"
    />
  </svg>