<svg width="7" height="16" viewBox="0 0 7 16" fill="none" xmlns="http://www.w3.org/2000/svg">
  <path
    d="M6.06459 3.41699H0.646824C0.291047 3.41699 0 3.70804 0 4.06382V9.01809C0 9.38168 0.297494 9.6793 0.661204 9.6793C1.02479 9.6793 1.32241 9.3818 1.32241 9.01809V5.18699H1.48126V9.41269H1.48647C1.48548 9.43005 1.48126 9.44667 1.48126 9.46428V15.1192C1.48126 15.6033 1.87736 15.9995 2.36158 15.9995C2.8457 15.9995 3.24189 15.6034 3.24189 15.1192V9.46428C3.24189 9.44667 3.23768 9.43006 3.23669 9.41269H3.47168C3.47069 9.43005 3.46647 9.44642 3.46647 9.46403V15.1196C3.46647 15.6036 3.86244 15.9995 4.34644 15.9995C4.83044 15.9995 5.2264 15.6036 5.2264 15.1196V9.46403C5.2264 9.44642 5.22219 9.43006 5.22119 9.41269H5.2264V5.18731H5.3891V9.06888C5.3891 9.42466 5.68015 9.71571 6.03592 9.71571H6.06469C6.42047 9.71571 6.71152 9.42466 6.71152 9.06888L6.71139 4.06382C6.71139 3.70804 6.42035 3.41699 6.0647 3.41699H6.06459Z"
    fill="#000000" />
  <path
    d="M4.95007 1.59711C4.95007 2.47917 4.23493 3.19421 3.35297 3.19421C2.47091 3.19421 1.75586 2.4792 1.75586 1.59711C1.75586 0.715014 2.47087 0 3.35297 0C4.2349 0 4.95007 0.715014 4.95007 1.59711Z"
    fill="#000000" />
</svg>
