<svg width="129" height="56" viewBox="0 0 129 56" fill="none" xmlns="http://www.w3.org/2000/svg">
<rect width="100%" height="100%" fill="black"/>
<g clip-path="url(#clip0_367_11009)">
<path d="M79.9381 42.0747L74.5662 46.8221H66.5234V42.0747H79.9449M82.4333 41.1307H65.5782V47.7752H74.9144L82.4208 41.1307H82.4333ZM89.079 34.0021L83.7038 38.7495H66.5131V34.0021H89.0813M91.5663 33.0615H65.5691V39.7061H84.052L91.5583 33.0615H91.5663ZM126.515 0.940561L120.255 6.46836H66.48V0.940561H126.515ZM129 0H65.5337V7.41121H120.612L129 0ZM70.8016 50.1438L66.5302 53.9198V50.1438H70.8051M73.2935 49.2032H65.5851V56L73.2832 49.2032H73.2935ZM116.492 9.79351L111.113 14.5398H66.4811V9.79351H116.492ZM118.966 8.84951H65.5451V15.4941H111.471L118.981 8.84951H118.966ZM107.355 17.8627L101.98 22.6055H66.496V17.8627H107.361M109.846 16.9187H65.552V23.5632H102.339L109.841 16.9187H109.846ZM98.2155 25.9329L92.8402 30.6792H66.5062V25.9329H98.2223M100.711 24.9924H65.5816V31.637H93.2055L100.715 24.9924H100.711ZM50.941 24.9512C50.8299 24.9489 50.7193 24.9378 50.61 24.918C50.1543 24.7785 49.7004 24.6335 49.2482 24.4832H49.1557C48.9735 24.4405 48.7885 24.4107 48.6021 24.3939H48.0919C47.9672 24.4073 47.8434 24.4271 47.7209 24.4534L47.5679 24.4832L47.3396 24.553L47.2072 24.5965C47.0538 24.65 46.9061 24.719 46.7666 24.8024C46.6278 24.6744 46.4746 24.563 46.31 24.4706C46.1033 24.348 45.8799 24.2563 45.6468 24.1983L45.5327 24.172C45.4248 23.9704 45.2959 23.7809 45.148 23.6067C44.7614 23.1968 44.2799 22.8887 43.7462 22.7096C42.9146 22.4864 42.0543 22.3888 41.1939 22.4201H40.7955C39.7687 22.4632 38.7447 22.5575 37.7272 22.7028C37.3665 22.7554 31.9536 23.0048 27.0098 23.2142L1.24316 0.471425H62.9973L62.9676 23.5197C61.4666 23.6159 57.6152 23.9774 57.4303 23.998H57.4006L57.3139 24.0198C57.0753 24.0495 55.08 24.315 54.6622 24.3516C54.4043 24.3779 53.4728 24.5381 52.571 24.6834C51.9078 24.7979 51.1853 24.9191 51.0871 24.9294L50.941 24.9512Z" fill="white"/>
<path d="M62.5269 0.940561L62.5041 23.0815C60.7919 23.2074 57.5626 23.5129 57.3937 23.53H57.2385C56.9074 23.5735 55.0251 23.8218 54.6131 23.8619C54.3608 23.8882 53.6188 24.0152 52.4956 24.1937C51.8986 24.2932 51.1703 24.4225 51.0402 24.4328H50.9443C50.8679 24.4318 50.7916 24.4253 50.716 24.4134C50.2728 24.2773 49.8311 24.1365 49.3908 23.9912L49.3348 23.9717H49.2515C49.0487 23.9243 48.8427 23.8922 48.6351 23.8756H48.0484C47.908 23.8884 47.7685 23.9094 47.6306 23.9385H47.4514C47.363 23.9551 47.2766 23.9808 47.1934 24.0152L47.0793 24.0518C46.9908 24.0782 46.9046 24.1115 46.8213 24.1514C46.7306 24.0871 46.6377 24.0261 46.5428 23.9683C46.3209 23.8373 46.0825 23.7369 45.8339 23.6696C45.7352 23.509 45.6245 23.356 45.5029 23.2119C45.0661 22.7572 44.5261 22.4153 43.9288 22.2153C43.0417 21.9672 42.1223 21.8553 41.2018 21.8835H40.784C39.6733 21.9132 38.1723 22.0929 37.6655 22.1695C37.2214 22.2222 31.9923 22.4613 27.1798 22.6673L2.48843 0.940561H62.5304M63.4664 0H0L26.8442 23.696C27.5074 23.6696 37.2671 23.2509 37.8025 23.1708C38.3378 23.0907 39.7909 22.9213 40.8114 22.895H41.2075C42.0056 22.8654 42.8038 22.9518 43.5772 23.1513C44.0355 23.2993 44.4517 23.5556 44.7906 23.8985C44.9541 24.0769 45.0855 24.2825 45.1787 24.5061C45.1822 24.5331 45.1911 24.5592 45.205 24.5827C45.2997 24.5934 45.3938 24.609 45.4869 24.6297C45.9577 24.7417 46.3776 25.0083 46.6798 25.3871H46.7026C46.722 25.3871 46.7688 25.3402 46.8247 25.307C46.9889 25.2085 47.1593 25.121 47.335 25.045C47.4149 25.0256 47.6032 24.9592 47.6865 24.9386H47.7527C47.8589 24.9191 48.0473 24.8825 48.1306 24.8757H48.5815C48.7391 24.8755 48.8964 24.8889 49.0518 24.9157H49.1077C49.1077 24.9157 50.3964 25.3379 50.5231 25.3643C50.6662 25.3915 50.8113 25.406 50.9569 25.4077H51.1384C51.3998 25.3814 54.274 24.8757 54.7272 24.8265C55.1804 24.7773 57.412 24.4946 57.412 24.4946H57.4919C57.4919 24.4946 62.5886 24.0129 63.4573 23.9969L63.4664 0Z" fill="white"/>
<path d="M28.5908 24.6228L36.7867 24.2246C36.8928 24.2246 39.242 24.085 40.0444 24.0015C40.2966 23.9748 40.55 23.9615 40.8035 23.9614C41.2335 23.9639 41.6629 23.9949 42.0888 24.0541C42.5451 24.1095 42.985 24.2587 43.381 24.4924L43.4278 24.5221C43.2861 24.6152 43.1521 24.7197 43.0271 24.8345C42.8583 25.0075 42.7054 25.1955 42.5705 25.3963C42.4257 25.6322 42.3143 25.8871 42.2395 26.1538V26.1904C42.0112 26.8769 42.1254 27.3003 42.5705 27.4559C42.8147 27.5342 43.0698 27.5728 43.3262 27.5703C43.4864 27.5702 43.6462 27.5545 43.8033 27.5234C44.247 27.4333 44.6567 27.2204 44.9859 26.909C45.1925 26.7138 45.3701 26.4899 45.5133 26.2442L45.5327 26.2076C45.5405 26.2258 45.5469 26.2445 45.5521 26.2636C45.5655 26.3032 45.5823 26.3415 45.6023 26.378C45.6671 26.4994 45.7648 26.5997 45.8843 26.6675C46.0057 26.7397 46.1438 26.7791 46.2849 26.782C46.3964 26.7814 46.5075 26.768 46.616 26.7419C46.7308 26.7145 46.8419 26.6734 46.947 26.6195C47.1051 26.5395 47.2441 26.4264 47.3545 26.2877C47.4083 26.2183 47.4671 26.1529 47.5303 26.092C47.5988 26.034 47.6734 25.9837 47.7529 25.9421C47.8157 25.9158 47.988 25.862 47.988 25.862H48.1273C48.201 25.8666 48.2742 25.8765 48.3464 25.8918C48.497 25.9306 48.6396 25.9956 48.7677 26.084C48.8179 26.1275 48.9172 26.2201 49.0131 26.2968C49.0433 26.3209 49.0702 26.349 49.093 26.3803C49.1397 26.4363 49.1917 26.4877 49.2482 26.5337C49.3629 26.6229 49.5037 26.672 49.6489 26.6733H49.8041C50.2153 26.6316 50.6228 26.5594 51.0232 26.457C51.2287 26.4009 51.9113 26.298 52.4615 26.211C53.1464 26.1046 53.5448 26.0451 53.7011 25.9982C53.9169 25.9421 55.8254 25.6961 57.1107 25.5405C57.1872 25.5405 59.1392 25.3208 59.4599 25.2784C59.6425 25.2556 61.2863 25.1423 62.9825 25.0324L62.9528 54.9805L28.5908 24.6228Z" fill="white"/>
<path d="M40.8019 24.435C41.2119 24.4369 41.6215 24.4655 42.0278 24.5208C42.2087 24.5422 42.3872 24.5805 42.5609 24.6353C42.426 24.7922 42.2999 24.9565 42.1831 25.1273C42.0125 25.3997 41.8807 25.6947 41.7915 26.0038V26.0369C41.3349 27.41 42.1694 27.8071 42.4342 27.8975C42.9319 28.055 43.4625 28.0765 43.9712 27.9596C44.4799 27.8427 44.9483 27.5918 45.3278 27.2327C45.4077 27.1491 45.4808 27.0736 45.5436 27.0038C45.5959 27.0416 45.6512 27.0749 45.7091 27.1034C45.8205 27.1652 45.94 27.211 46.0641 27.2395C46.1394 27.2532 46.2159 27.2597 46.2924 27.259C46.4329 27.2554 46.5728 27.2385 46.7102 27.2086H46.8038V27.1858C46.9181 27.1522 47.0289 27.1077 47.1348 27.053H47.1576C47.3821 26.9399 47.5775 26.7762 47.7284 26.5747C47.766 26.5245 47.808 26.4778 47.8539 26.4351L47.9533 26.3653L48.0788 26.3219H48.1313L48.2672 26.3413C48.3426 26.3676 48.415 26.4021 48.4829 26.4443L48.7215 26.6537L48.7409 26.6731C48.8075 26.7537 48.882 26.8274 48.9635 26.8928C49.1583 27.0477 49.3997 27.132 49.6484 27.132H49.8344C50.2759 27.088 50.7135 27.0115 51.1437 26.9031C51.3263 26.8528 52.0569 26.7407 52.5317 26.6674C53.3068 26.553 53.6321 26.4981 53.8148 26.4477C54.0796 26.3882 55.7199 26.1754 57.1582 25.9992C57.2415 25.9992 59.1934 25.7795 59.521 25.7372C60.5145 25.6565 61.5088 25.5855 62.5037 25.5243L62.4775 53.9311L29.7694 25.0357L36.8181 24.7039C36.9174 24.7039 39.2769 24.5643 40.0919 24.4808C40.3273 24.4552 40.5639 24.4429 40.8007 24.4442M40.8007 23.5002C40.5319 23.5002 40.2633 23.5147 39.996 23.5437C39.1969 23.6272 36.7644 23.7634 36.7644 23.7634L27.4043 24.2085L63.4021 56.001L63.4352 24.5048C62.8085 24.5483 59.6683 24.7508 59.3818 24.7909C59.0953 24.8309 57.0349 25.0529 57.0349 25.0529C57.0349 25.0529 53.8387 25.4385 53.5488 25.5243C53.2589 25.6101 51.3183 25.8562 50.8971 25.982C50.5262 26.0784 50.1484 26.1461 49.7671 26.1846H49.6449C49.6027 26.1853 49.5618 26.1697 49.5308 26.1411C49.4543 26.0816 49.428 26.0152 49.3025 25.9122C49.1769 25.8092 49.0571 25.696 49.0571 25.696C48.7874 25.493 48.4625 25.3773 48.1256 25.3641H48.0332C47.9696 25.3661 47.9065 25.375 47.8448 25.3905C47.8448 25.3905 47.6256 25.4568 47.556 25.49C47.4293 25.5532 47.3111 25.6324 47.2044 25.7257C47.1248 25.8026 47.0504 25.8847 46.9819 25.9717C46.9232 26.0478 46.8498 26.1112 46.7661 26.1582C46.6855 26.2005 46.601 26.235 46.5138 26.2612C46.4416 26.2758 46.3683 26.2846 46.2947 26.2875H46.2422C46.1992 26.2788 46.1579 26.2629 46.12 26.2406C46.0837 26.2144 46.0524 26.1819 46.0276 26.1445C46.0082 26.1045 46.0082 26.0816 45.9545 25.958C45.9112 25.862 45.858 25.7707 45.7959 25.6857C45.6758 25.5297 45.5215 25.4036 45.345 25.3172H45.2982C45.2953 25.3901 45.2853 25.4625 45.2685 25.5335C45.2331 25.7024 45.1775 25.8665 45.103 26.0221C44.9756 26.2273 44.8221 26.415 44.6464 26.5805C44.3855 26.818 44.0665 26.9819 43.7218 27.0553C43.594 27.0806 43.4639 27.0929 43.3337 27.0919C43.1296 27.0938 42.9264 27.0649 42.731 27.0061C42.4662 26.9169 42.6168 26.5015 42.691 26.2921C42.7566 26.0698 42.8478 25.8559 42.9627 25.6548C43.0746 25.4868 43.2011 25.3291 43.3405 25.1834C43.4524 25.0784 43.5743 24.9849 43.7047 24.9042C43.8421 24.8294 43.9839 24.7629 44.1293 24.7051V24.6822C44.0241 24.4267 43.8391 24.2122 43.6019 24.0712C43.1538 23.8072 42.6566 23.6378 42.1408 23.5734C41.6936 23.5123 41.2429 23.4802 40.7916 23.4773L40.8007 23.5002Z" fill="white"/>
<path d="M43.9086 26.0473C43.9181 26.1196 43.9381 26.1901 43.968 26.2567C43.9874 26.2864 44.0045 26.3036 44.0273 26.2933C44.1415 26.2338 44.2294 25.7818 44.2556 25.7017C44.2791 25.5923 44.2791 25.4792 44.2556 25.3699C44.2556 25.3699 43.8744 25.5163 43.8584 25.5358C43.8627 25.7073 43.8795 25.8782 43.9086 26.0473Z" fill="white"/>
</g>
<defs>
<clipPath id="clip0_367_11009">
<rect width="129" height="56" fill="#fff"/>
</clipPath>
</defs>
</svg>
