<svg width="16" height="16" viewBox="0 0 16 16" fill="none" xmlns="http://www.w3.org/2000/svg">
<path fill-rule="evenodd" clip-rule="evenodd" d="M4.00016 2.00016C4.00016 1.63197 4.29864 1.3335 4.66683 1.3335C5.03502 1.3335 5.3335 1.63197 5.3335 2.00016V2.66683H10.6668V2.00016C10.6668 1.63197 10.9653 1.3335 11.3335 1.3335C11.7017 1.3335 12.0002 1.63197 12.0002 2.00016V2.66683H13.3335C14.0699 2.66683 14.6668 3.26378 14.6668 4.00016V7.3335V13.4168C14.6668 14.1072 14.0699 14.6668 13.3335 14.6668H2.66683C1.93045 14.6668 1.3335 14.1072 1.3335 13.4168V7.3335V4.00016C1.3335 3.26378 1.93045 2.66683 2.66683 2.66683H4.00016V2.00016ZM2.66683 7.3335V13.4168H13.3335V7.3335H2.66683ZM4.66683 4.00016L4.66602 4.00016H2.66683V6.00016H13.3335V4.00016H11.3343L11.3335 4.00016L11.3327 4.00016H4.66764L4.66683 4.00016ZM8.00016 9.3335C8.36835 9.3335 8.66683 9.03502 8.66683 8.66683C8.66683 8.29864 8.36835 8.00016 8.00016 8.00016C7.63197 8.00016 7.3335 8.29864 7.3335 8.66683C7.3335 9.03502 7.63197 9.3335 8.00016 9.3335ZM4.66683 9.3335C5.03502 9.3335 5.3335 9.03502 5.3335 8.66683C5.3335 8.29864 5.03502 8.00017 4.66683 8.00017C4.29864 8.00017 4.00016 8.29864 4.00016 8.66683C4.00016 9.03502 4.29864 9.3335 4.66683 9.3335ZM12.0002 8.66683C12.0002 9.03502 11.7017 9.3335 11.3335 9.3335C10.9653 9.3335 10.6668 9.03502 10.6668 8.66683C10.6668 8.29864 10.9653 8.00016 11.3335 8.00016C11.7017 8.00016 12.0002 8.29864 12.0002 8.66683ZM4.66683 12.6668C5.03502 12.6668 5.3335 12.3684 5.3335 12.0002C5.3335 11.632 5.03502 11.3335 4.66683 11.3335C4.29864 11.3335 4.00016 11.632 4.00016 12.0002C4.00016 12.3684 4.29864 12.6668 4.66683 12.6668ZM8.66683 12.0002C8.66683 12.3684 8.36835 12.6668 8.00016 12.6668C7.63197 12.6668 7.3335 12.3684 7.3335 12.0002C7.3335 11.632 7.63197 11.3335 8.00016 11.3335C8.36835 11.3335 8.66683 11.632 8.66683 12.0002ZM11.3335 12.6668C11.7017 12.6668 12.0002 12.3684 12.0002 12.0002C12.0002 11.632 11.7017 11.3335 11.3335 11.3335C10.9653 11.3335 10.6668 11.632 10.6668 12.0002C10.6668 12.3684 10.9653 12.6668 11.3335 12.6668Z" fill="#586392"/>
</svg>
