<svg width="10" height="16" viewBox="0 0 10 16" fill="none" xmlns="http://www.w3.org/2000/svg">
  <path
    d="M0.078927 7.03182L0.920174 5.34933C1.12204 4.9455 1.4754 4.62591 1.89602 4.45761C3.74682 3.73419 3.98234 3.75096 4.16745 3.76775L5.42932 3.8519C5.81626 3.86868 6.08549 3.96973 7.38104 5.87086C7.4315 5.93811 7.49887 5.9887 7.5998 6.00548L9.14769 6.24102C9.56832 6.30827 9.85434 6.69533 9.78707 7.11595C9.71982 7.53657 9.33277 7.8226 8.91214 7.75533L7.36425 7.51978C6.85947 7.43563 6.40517 7.1664 6.11918 6.74578C6.05193 6.64484 5.98456 6.5607 5.93409 6.47655L4.94145 9.62281L6.32116 11.0025C6.52302 11.2044 6.69131 11.4736 6.79226 11.7428L7.85226 14.8386C8.00366 15.2929 7.76811 15.7977 7.3138 15.9491C7.21287 15.9828 7.12872 15.9996 7.02779 15.9996C6.65764 15.9996 6.32114 15.764 6.20334 15.4106L5.14334 12.3149C5.12655 12.2812 5.10965 12.2644 5.09287 12.2307L4.3021 11.4399L2.83836 15.4106C2.70375 15.764 2.36726 15.9826 2.01391 15.9826C1.91298 15.9826 1.81205 15.9659 1.71112 15.9322C1.25682 15.7639 1.02127 15.2592 1.18958 14.8049L2.90563 10.0603L2.60284 9.75748C2.24946 9.4041 2.11498 8.91623 2.2159 8.44513L2.83839 5.73632C2.72056 5.78678 2.60285 5.83725 2.45145 5.88772C2.3842 5.9214 2.31683 5.97187 2.28315 6.03911L1.4419 7.72161C1.30729 7.99083 1.03807 8.14223 0.752051 8.14223C0.634219 8.14223 0.516508 8.10855 0.415582 8.05808C0.0453138 7.873 -0.106081 7.40191 0.0789928 7.03176L0.078927 7.03182Z"
    fill="#000000" />
  <path
    d="M3.35248 1.5155C3.25096 2.44853 3.92497 3.28719 4.85798 3.38871C5.79089 3.49023 6.62955 2.81622 6.73107 1.88333C6.83271 0.9503 6.15869 0.111637 5.22569 0.0101163C4.29266 -0.0914012 3.45412 0.582615 3.35248 1.5155Z"
    fill="#000000" />
</svg>
