<svg width="13" height="15" viewBox="0 0 13 15" fill="none" xmlns="http://www.w3.org/2000/svg">
  <path
    d="M9.5153 0.594749C9.14585 0.638766 8.81149 0.849145 8.58586 1.17964C8.36022 1.51014 8.26181 1.9336 8.31224 2.35689C8.36268 2.78026 8.55783 3.16875 8.85481 3.437C9.15177 3.70523 9.52618 3.83117 9.89565 3.78715C10.2652 3.74312 10.5995 3.53275 10.8252 3.20225C11.0508 2.87175 11.1492 2.44829 11.0988 2.02489C11.0484 1.60163 10.8532 1.21303 10.5562 0.944887C10.2593 0.676659 9.88487 0.550718 9.5153 0.594749Z"
    fill="#000000" />
  <path
    d="M11.5912 7.12839L11.0948 7.18753L11.0949 7.18752C10.8548 7.25443 10.602 7.25095 10.3594 7.17735C10.0271 7.04046 9.72477 6.81835 9.47614 6.5285L9.16361 6.14042C9.38061 5.82223 9.46082 5.40665 9.38279 5.00409C9.30478 4.60165 9.07649 4.25309 8.75862 4.05124C8.51644 3.90413 8.24241 3.84608 7.97503 3.88514L5.47837 4.18259C5.13136 4.22394 4.80934 4.39402 4.56127 4.66697L3.01958 6.36341C2.93736 6.45399 2.89457 6.58193 2.90234 6.71439C2.9101 6.84685 2.96768 6.97077 3.06008 7.05432L3.28324 7.25579L3.28334 7.25588C3.36052 7.32559 3.45631 7.36188 3.55297 7.35808C3.64974 7.35438 3.74093 7.31074 3.80965 7.23524L5.26867 5.63423C5.33885 5.5573 5.4322 5.5134 5.53096 5.51113L6.3804 5.49134L5.35249 6.99706L5.35257 6.99694C5.21917 7.19329 5.13709 7.42955 5.11544 7.67981C5.09368 7.92998 5.1332 8.18443 5.22954 8.41497L4.13892 10.3158C4.08404 10.4232 3.9926 10.4992 3.88553 10.5264L1.74644 11.0403L1.74643 11.0402C1.64925 11.0634 1.56421 11.1273 1.50804 11.2194C1.4518 11.3117 1.42848 11.4257 1.44253 11.539L1.47133 11.7807C1.48574 11.9017 1.5415 12.0127 1.62634 12.0893C1.71117 12.1659 1.81814 12.2019 1.92376 12.1892L4.26428 11.9103C4.58289 11.8724 4.87123 11.691 5.06585 11.4061L6.42099 9.6886L7.41297 10.5845L7.41296 10.5844C7.48423 10.6488 7.53538 10.7379 7.55827 10.8375L8.22689 13.423C8.24993 13.5345 8.3083 13.6337 8.39067 13.701C8.47294 13.7683 8.57327 13.7992 8.67217 13.7874L8.97248 13.7516L8.97239 13.7516C9.07793 13.7391 9.17344 13.6789 9.23789 13.5845C9.30235 13.4901 9.33047 13.369 9.31606 13.2481L8.97983 10.426C8.94556 10.1384 8.85242 9.86204 8.70807 9.61926L7.81419 8.11686L8.13439 7.64787C8.19621 7.55732 8.28674 7.49821 8.38752 7.48244C8.48833 7.46678 8.59182 7.49578 8.67696 7.5635L9.38512 8.12728C9.79518 8.45385 10.2909 8.60197 10.7792 8.5438L11.7461 8.4286C11.8517 8.41601 11.9472 8.35589 12.0117 8.26148C12.0761 8.16707 12.1042 8.046 12.0897 7.92508L12.0435 7.5371C12.0291 7.41618 11.9734 7.30508 11.8886 7.22846C11.8038 7.15183 11.6968 7.11584 11.5912 7.12842L11.5912 7.12839Z"
    fill="#000000" />
</svg>