<svg width="15" height="17" viewBox="0 0 15 17" fill="#2B55EF" xmlns="http://www.w3.org/2000/svg">
<path d="M12.6296 1.68855C13.0741 1.68855 13.4506 1.84504 13.7593 2.15803C14.0679 2.47102 14.2222 2.85287 14.2222 3.30357V14.5336C14.2222 14.9593 14.0679 15.3286 13.7593 15.6416C13.4506 15.9546 13.0741 16.1111 12.6296 16.1111H1.59259C1.14815 16.1111 0.771605 15.9546 0.462963 15.6416C0.154321 15.3286 0 14.9593 0 14.5336V3.30357C0 2.85287 0.154321 2.47102 0.462963 2.15803C0.771605 1.84504 1.14815 1.68855 1.59259 1.68855H4.88889C5.06173 1.21281 5.35185 0.830959 5.75926 0.543009C6.16667 0.255059 6.61728 0.111084 7.11111 0.111084C7.60494 0.111084 8.05556 0.255059 8.46296 0.543009C8.87037 0.830959 9.16049 1.21281 9.33333 1.68855H12.6296ZM7.11111 1.68855C6.88889 1.68855 6.7037 1.76993 6.55556 1.93268C6.40741 2.09543 6.33333 2.28323 6.33333 2.49606C6.33333 2.70889 6.40741 2.89669 6.55556 3.05944C6.7037 3.2222 6.88889 3.30357 7.11111 3.30357C7.33333 3.30357 7.51852 3.2222 7.66667 3.05944C7.81482 2.89669 7.88889 2.70889 7.88889 2.49606C7.88889 2.28323 7.81482 2.09543 7.66667 1.93268C7.51852 1.76993 7.33333 1.68855 7.11111 1.68855ZM8.7037 12.9186V11.3036H3.14815V12.9186H8.7037ZM11.0741 9.72611V8.11108H3.14815V9.72611H11.0741ZM11.0741 6.49606V4.9186H3.14815V6.49606H11.0741Z"/>
</svg>
