<svg width="35" height="24" viewBox="0 0 35 24" fill="none" xmlns="http://www.w3.org/2000/svg">
<path d="M20.7273 24.0001H29.4546C30.5329 24.0001 31.4493 23.7569 32.2102 23.333L20.7273 16.4832V24.0001Z" fill="#2E3192"/>
<path d="M34.7238 19.7509C34.8482 19.1962 34.9114 18.6087 34.9114 17.9995V15.2722H27.2151L34.7216 19.7509" fill="#2E3192"/>
<path d="M0.190974 4.23207C0.0617031 4.8124 -0.00233039 5.40535 6.47774e-05 5.99989V8.72716H7.72588L0.190974 4.23207Z" fill="#2E3192"/>
<path d="M14.1821 0H5.45479C4.38406 0 3.4737 0.24 2.71606 0.657818L14.1821 7.49782V0Z" fill="#2E3192"/>
<path d="M2.75073 23.3598C3.50128 23.7656 4.39964 24.0001 5.45455 24.0001H14.1818V16.5405L2.75073 23.3598Z" fill="#2E3192"/>
<path d="M0 15.2727V18C0 18.6278 0.0665455 19.2327 0.198 19.8016L7.79018 15.2727H0Z" fill="#2E3192"/>
<path d="M32.2446 0.684546C31.4777 0.249273 30.5487 0 29.4546 0H20.7273V7.55509L32.2446 0.684546Z" fill="#2E3192"/>
<path d="M34.9089 8.72728V6.00001C34.9089 5.40328 34.8472 4.82783 34.7278 4.28346L27.2791 8.72728H34.9089Z" fill="#2E3192"/>
<path d="M27.2794 8.72727L34.7281 4.28345C34.3867 2.72127 33.5554 1.428 32.2447 0.684546L20.7274 7.55509V0H19.6365V9.81818H34.9092V8.72727H27.2794Z" fill="#E6E7E8"/>
<path d="M0 14.1818V15.2727H7.79018L0.198 19.8016C0.558545 21.3589 1.41491 22.6375 2.75073 23.3596L14.1818 16.5404V24H15.2727V14.1818H0Z" fill="#E6E7E8"/>
<path d="M34.9092 14.1818H19.6365V24H20.7274V16.4831L32.2103 23.3335C33.5308 22.5982 34.3725 21.312 34.7216 19.752L27.215 15.2727H34.9092V14.1818Z" fill="#E6E7E8"/>
<path d="M14.1818 0V7.49782L2.71582 0.657818C1.39036 1.38873 0.543273 2.67273 0.190364 4.23218L7.72582 8.72727H0V9.81818H15.2727V0H14.1818Z" fill="#E6E7E8"/>
<path d="M19.6364 9.81818V0H15.2727V9.81818H0V14.1818H15.2727V24H19.6364V14.1818H34.9091V9.81818H19.6364Z" fill="#BE1E2D"/>
<path d="M11.9664 8.72714L1.03001 2.19859C0.794923 2.54768 0.606195 2.93168 0.450195 3.34077L9.47583 8.72714H11.9647" fill="#BE1E2D"/>
<path d="M34.4128 20.7764L25.242 15.2727H22.7024L33.7822 21.9376C34.0391 21.5786 34.2509 21.1893 34.4128 20.7785" fill="#BE1E2D"/>
<path d="M33.1193 1.30424L20.7102 8.72734L23.2297 8.72897L33.9375 2.31825C33.6986 1.88352 33.4466 1.60315 33.1193 1.30424Z" fill="#BE1E2D"/>
<path d="M0.989258 21.75C1.23462 22.1237 1.5299 22.4621 1.86689 22.7558L14.2165 15.2727H11.7276L0.989258 21.75Z" fill="#BE1E2D"/>
</svg>
