<svg width="18" height="14" viewBox="0 0 18 14" fill="none" xmlns="http://www.w3.org/2000/svg">
<path d="M17.125 0.144532H12.6562C11.6973 0.144532 10.7598 0.419923 9.95312 0.939454L9 1.55078L8.04688 0.939454C7.24104 0.420022 6.30249 0.144019 5.34375 0.144532H0.875C0.529297 0.144532 0.25 0.423829 0.25 0.769532V11.8633C0.25 12.209 0.529297 12.4883 0.875 12.4883H5.34375C6.30273 12.4883 7.24023 12.7637 8.04688 13.2832L8.91406 13.8418C8.93945 13.8574 8.96875 13.8672 8.99805 13.8672C9.02734 13.8672 9.05664 13.8594 9.08203 13.8418L9.94922 13.2832C10.7578 12.7637 11.6973 12.4883 12.6562 12.4883H17.125C17.4707 12.4883 17.75 12.209 17.75 11.8633V0.769532C17.75 0.423829 17.4707 0.144532 17.125 0.144532ZM5.34375 11.082H1.65625V1.55078H5.34375C6.03516 1.55078 6.70703 1.74805 7.28711 2.12109L8.24023 2.73242L8.375 2.82031V11.8438C7.44531 11.3438 6.40625 11.082 5.34375 11.082ZM16.3438 11.082H12.6562C11.5938 11.082 10.5547 11.3438 9.625 11.8438V2.82031L9.75977 2.73242L10.7129 2.12109C11.293 1.74805 11.9648 1.55078 12.6562 1.55078H16.3438V11.082ZM6.75195 4.05078H3.12305C3.04688 4.05078 2.98438 4.11719 2.98438 4.19727V5.07617C2.98438 5.15625 3.04688 5.22266 3.12305 5.22266H6.75C6.82617 5.22266 6.88867 5.15625 6.88867 5.07617V4.19727C6.89062 4.11719 6.82812 4.05078 6.75195 4.05078ZM11.1094 4.19727V5.07617C11.1094 5.15625 11.1719 5.22266 11.248 5.22266H14.875C14.9512 5.22266 15.0137 5.15625 15.0137 5.07617V4.19727C15.0137 4.11719 14.9512 4.05078 14.875 4.05078H11.248C11.1719 4.05078 11.1094 4.11719 11.1094 4.19727ZM6.75195 6.78516H3.12305C3.04688 6.78516 2.98438 6.85156 2.98438 6.93164V7.81055C2.98438 7.89062 3.04688 7.95703 3.12305 7.95703H6.75C6.82617 7.95703 6.88867 7.89062 6.88867 7.81055V6.93164C6.89062 6.85156 6.82812 6.78516 6.75195 6.78516ZM14.877 6.78516H11.248C11.1719 6.78516 11.1094 6.85156 11.1094 6.93164V7.81055C11.1094 7.89062 11.1719 7.95703 11.248 7.95703H14.875C14.9512 7.95703 15.0137 7.89062 15.0137 7.81055V6.93164C15.0156 6.85156 14.9531 6.78516 14.877 6.78516Z" fill="#272F3E"/>
</svg>
