<svg width="18" height="14" viewBox="0 0 18 14" fill="none" xmlns="http://www.w3.org/2000/svg">
<path d="M17.125 0.144532H12.6562C11.6973 0.144532 10.7598 0.419923 9.95312 0.939454L9 1.55078L8.04688 0.939454C7.24104 0.420022 6.30249 0.144019 5.34375 0.144532H0.875C0.529297 0.144532 0.25 0.423829 0.25 0.769532V11.8633C0.25 12.209 0.529297 12.4883 0.875 12.4883H5.34375C6.30273 12.4883 7.24023 12.7637 8.04688 13.2832L8.91406 13.8418C8.93945 13.8574 8.96875 13.8672 8.99805 13.8672C9.02734 13.8672 9.05664 13.8594 9.08203 13.8418L9.94922 13.2832C10.7578 12.7637 11.6973 12.4883 12.6562 12.4883H17.125C17.4707 12.4883 17.75 12.209 17.75 11.8633V0.769532C17.75 0.423829 17.4707 0.144532 17.125 0.144532ZM6.89062 7.81055C6.89062 7.89062 6.82812 7.95703 6.75195 7.95703H3.12305C3.04688 7.95703 2.98438 7.89062 2.98438 7.81055V6.93164C2.98438 6.85156 3.04688 6.78516 3.12305 6.78516H6.75C6.82617 6.78516 6.88867 6.85156 6.88867 6.93164V7.81055H6.89062ZM6.89062 5.07617C6.89062 5.15625 6.82812 5.22266 6.75195 5.22266H3.12305C3.04688 5.22266 2.98438 5.15625 2.98438 5.07617V4.19727C2.98438 4.11719 3.04688 4.05078 3.12305 4.05078H6.75C6.82617 4.05078 6.88867 4.11719 6.88867 4.19727V5.07617H6.89062ZM15.0156 7.81055C15.0156 7.89062 14.9531 7.95703 14.877 7.95703H11.248C11.1719 7.95703 11.1094 7.89062 11.1094 7.81055V6.93164C11.1094 6.85156 11.1719 6.78516 11.248 6.78516H14.875C14.9512 6.78516 15.0137 6.85156 15.0137 6.93164V7.81055H15.0156ZM15.0156 5.07617C15.0156 5.15625 14.9531 5.22266 14.877 5.22266H11.248C11.1719 5.22266 11.1094 5.15625 11.1094 5.07617V4.19727C11.1094 4.11719 11.1719 4.05078 11.248 4.05078H14.875C14.9512 4.05078 15.0137 4.11719 15.0137 4.19727V5.07617H15.0156Z" fill="#272F3E"/>
</svg>
