<svg width="14" height="18" viewBox="0 0 14 18" fill="none" xmlns="http://www.w3.org/2000/svg">
<path d="M13.6914 4.63867L9.48828 0.433594C9.37109 0.316406 9.21094 0.25 9.04492 0.25H0.75C0.404297 0.25 0.125 0.529297 0.125 0.875V17.125C0.125 17.4707 0.404297 17.75 0.75 17.75H13.25C13.5957 17.75 13.875 17.4707 13.875 17.125V5.08008C13.875 4.91406 13.8086 4.75586 13.6914 4.63867ZM12.4336 5.36719H8.75781V1.69141L12.4336 5.36719ZM12.4688 16.3438H1.53125V1.65625H7.42969V5.875C7.42969 6.09256 7.51611 6.30121 7.66995 6.45505C7.82379 6.60889 8.03244 6.69531 8.25 6.69531H12.4688V16.3438ZM4.85156 9.72266C4.85156 9.82812 4.9375 9.9082 5.04297 9.9082H5.67578C5.78125 9.9082 5.86719 9.82617 5.86719 9.72461C5.86719 9.17383 6.37109 8.7168 7 8.7168C7.62891 8.7168 8.13281 9.17383 8.13281 9.72266C8.13281 10.2168 7.72266 10.6445 7.16992 10.7168C6.79297 10.7715 6.49609 11.1133 6.49219 11.5V12.125C6.49219 12.2324 6.58008 12.3203 6.6875 12.3203H7.3125C7.41992 12.3203 7.50781 12.2324 7.50781 12.125V11.8867C7.50781 11.7695 7.58594 11.6621 7.69727 11.627C8.56836 11.3457 9.16211 10.5723 9.14844 9.69531C9.13281 8.61133 8.1875 7.72656 7.0293 7.71094C5.83008 7.69727 4.85156 8.60156 4.85156 9.72266ZM6.375 13.5312C6.375 13.697 6.44085 13.856 6.55806 13.9732C6.67527 14.0904 6.83424 14.1562 7 14.1562C7.16576 14.1562 7.32473 14.0904 7.44194 13.9732C7.55915 13.856 7.625 13.697 7.625 13.5312C7.625 13.3655 7.55915 13.2065 7.44194 13.0893C7.32473 12.9721 7.16576 12.9062 7 12.9062C6.83424 12.9062 6.67527 12.9721 6.55806 13.0893C6.44085 13.2065 6.375 13.3655 6.375 13.5312Z" fill="#272F3E"/>
</svg>
