<svg width="18" height="22" viewBox="0 0 18 22" fill="none" xmlns="http://www.w3.org/2000/svg">
<path d="M17.318 2.98215L9.35391 0.268091C9.25781 0.235278 9.12891 0.218872 9 0.218872C8.87109 0.218872 8.74219 0.235278 8.64609 0.268091L0.682031 2.98215C0.4875 3.04778 0.328125 3.27278 0.328125 3.47903V14.7853C0.328125 14.9915 0.461719 15.2634 0.623438 15.3923L8.70234 21.6876C8.78437 21.7509 8.88984 21.7837 8.99766 21.7837C9.10547 21.7837 9.21328 21.7509 9.29297 21.6876L17.3719 15.3923C17.5336 15.2657 17.6672 14.9939 17.6672 14.7853V3.47903C17.6719 3.27278 17.5125 3.05012 17.318 2.98215ZM15.9844 14.3353L9 19.7775L2.01562 14.3353V4.3134L9 1.93215L15.9844 4.3134V14.3353ZM6.44297 11.3939L4.62656 13.2103C4.59167 13.2455 4.57209 13.2931 4.57209 13.3427C4.57209 13.3923 4.59167 13.4399 4.62656 13.4751L5.42344 14.272C5.49609 14.3447 5.61563 14.3447 5.68828 14.272L7.50469 12.4556C8.81016 13.2782 10.5539 13.1212 11.6906 11.9845C13.0102 10.665 13.0102 8.52747 11.6906 7.20793C10.3711 5.8884 8.23359 5.8884 6.91406 7.20793C5.77734 8.34465 5.62031 10.0907 6.44297 11.3939ZM7.97578 8.26965C8.70937 7.53606 9.89766 7.53606 10.6289 8.26965C11.3625 9.00325 11.3625 10.1915 10.6289 10.9228C9.89531 11.6564 8.70703 11.6564 7.97578 10.9228C7.24453 10.1892 7.24219 9.00325 7.97578 8.26965Z" fill="#272F3E"/>
</svg>
