<svg width="16" height="18" viewBox="0 0 16 18" fill="none" xmlns="http://www.w3.org/2000/svg">
<path d="M14.9316 2.31836L8.29492 0.0566406C8.21484 0.0292968 8.10742 0.015625 8 0.015625C7.89258 0.015625 7.78516 0.0292968 7.70508 0.0566406L1.06836 2.31836C0.90625 2.37305 0.773438 2.56055 0.773438 2.73242V12.1543C0.773438 12.3262 0.884766 12.5527 1.01953 12.6602L7.75195 17.9062C7.82031 17.959 7.9082 17.9863 7.99805 17.9863C8.08789 17.9863 8.17773 17.959 8.24414 17.9062L14.9766 12.6602C15.1113 12.5547 15.2227 12.3281 15.2227 12.1543V2.73242C15.2266 2.56055 15.0938 2.375 14.9316 2.31836ZM10.2422 9.82031C9.29492 10.7676 7.83984 10.8984 6.75391 10.2129L5.24023 11.7266C5.21087 11.7556 5.17121 11.772 5.12988 11.772C5.08856 11.772 5.0489 11.7556 5.01953 11.7266L4.35547 11.0625C4.32639 11.0331 4.31008 10.9935 4.31008 10.9521C4.31008 10.9108 4.32639 10.8712 4.35547 10.8418L5.86914 9.32812C5.18359 8.24023 5.31445 6.78711 6.26172 5.83984C7.36133 4.74023 9.14258 4.74023 10.2422 5.83984C11.3418 6.93945 11.3418 8.7207 10.2422 9.82031ZM7.1457 8.93613C7.29056 9.08327 7.46312 9.20029 7.65342 9.28042C7.84371 9.36055 8.04799 9.40222 8.25447 9.40303C8.46096 9.40383 8.66555 9.36375 8.85647 9.2851C9.04739 9.20645 9.22085 9.09078 9.36685 8.94477C9.51284 8.79876 9.62849 8.62529 9.70713 8.43437C9.78576 8.24344 9.82582 8.03884 9.825 7.83236C9.82418 7.62588 9.78249 7.42161 9.70234 7.23131C9.62219 7.04102 9.50517 6.86848 9.35801 6.72363C9.21315 6.57649 9.0406 6.45948 8.8503 6.37934C8.66 6.29921 8.45572 6.25754 8.24924 6.25674C8.04276 6.25593 7.83816 6.29601 7.64724 6.37466C7.45633 6.45331 7.28287 6.56898 7.13687 6.71499C6.99087 6.861 6.87522 7.03447 6.79658 7.2254C6.71795 7.41632 6.67789 7.62092 6.67871 7.8274C6.67953 8.03388 6.72122 8.23816 6.80137 8.42845C6.88152 8.61874 6.99855 8.79129 7.1457 8.93613Z" fill="#272F3E"/>
</svg>
