<svg width="18" height="14" viewBox="0 0 18 14" fill="none" xmlns="http://www.w3.org/2000/svg">
<path d="M17.4024 6.49609C15.5508 2.5957 12.752 0.632812 9.00005 0.632812C5.24615 0.632812 2.44927 2.5957 0.597708 6.49805C0.523441 6.65531 0.484924 6.82706 0.484924 7.00098C0.484924 7.17489 0.523441 7.34665 0.597708 7.50391C2.44927 11.4043 5.2481 13.3672 9.00005 13.3672C12.754 13.3672 15.5508 11.4043 17.4024 7.50195C17.5528 7.18555 17.5528 6.81836 17.4024 6.49609ZM9.00005 11.9609C5.84966 11.9609 3.54302 10.3633 1.91607 7C3.54302 3.63672 5.84966 2.03906 9.00005 2.03906C12.1504 2.03906 14.4571 3.63672 16.084 7C14.459 10.3633 12.1524 11.9609 9.00005 11.9609ZM8.92193 3.5625C7.02349 3.5625 5.48443 5.10156 5.48443 7C5.48443 8.89844 7.02349 10.4375 8.92193 10.4375C10.8204 10.4375 12.3594 8.89844 12.3594 7C12.3594 5.10156 10.8204 3.5625 8.92193 3.5625ZM8.92193 9.1875C7.71294 9.1875 6.73443 8.20898 6.73443 7C6.73443 5.79102 7.71294 4.8125 8.92193 4.8125C10.1309 4.8125 11.1094 5.79102 11.1094 7C11.1094 8.20898 10.1309 9.1875 8.92193 9.1875Z" fill="#272F3E"/>
</svg>
