<svg width="32" height="32" viewBox="0 0 32 32" fill="none" xmlns="http://www.w3.org/2000/svg">
<circle cx="16" cy="16" r="16" fill="rgb(0, 103, 224)"/>
<path d="M23.2064 11.6523L18.681 7.12691C18.5124 6.95829 18.2207 7.07678 18.2207 7.31832V11.8437C18.2207 11.9941 18.3392 12.1126 18.4896 12.1126H23.015C23.2565 12.1126 23.375 11.8209 23.2064 11.6523Z" fill="white"/>
<path d="M13.3708 17.9413C13.2933 17.873 13.2113 17.8411 13.1292 17.8411H11.999V19.2812H13.1292C13.2113 19.2812 13.2933 19.2447 13.3708 19.1764C13.4482 19.108 13.512 19.0168 13.5667 18.9075C13.6169 18.7981 13.6442 18.6796 13.6442 18.5611C13.6442 18.4335 13.6169 18.3196 13.5667 18.2102C13.512 18.0963 13.4482 18.0097 13.3708 17.9413Z" fill="white"/>
<path d="M17.9512 18.3014C17.8555 18.1601 17.7324 18.0507 17.5866 17.9641C17.4408 17.8821 17.263 17.8411 17.0579 17.8411H15.9824V20.899H17.0579C17.3314 20.899 17.5547 20.8306 17.7279 20.6894C17.901 20.5481 18.0286 20.3612 18.1107 20.1288C18.1927 19.8964 18.2292 19.6458 18.2292 19.3723C18.2292 19.1672 18.2064 18.9758 18.1608 18.789C18.1198 18.6021 18.0469 18.4426 17.9512 18.3014Z" fill="white"/>
<path d="M23.1556 13.6665H18.2201C17.3587 13.6665 16.666 12.9692 16.666 12.1125V6.6665H11.2201C10.3587 6.6665 9.66602 7.36377 9.66602 8.22054V23.8202C9.66602 24.6541 10.3451 25.3332 11.179 25.3332H12.7604H15.3991H22.1484C22.9824 25.3332 23.6615 24.6541 23.6615 23.8202V14.1769C23.6615 13.8944 23.4336 13.6665 23.1556 13.6665ZM14.2415 19.2902C14.1185 19.5135 13.959 19.6867 13.763 19.8188C13.5671 19.951 13.3529 20.0194 13.1296 20.0194H11.9993V21.2498C11.9993 21.3638 11.9629 21.4549 11.8945 21.5324C11.8262 21.6099 11.735 21.6463 11.6211 21.6463C11.5117 21.6463 11.4251 21.6099 11.3522 21.5324C11.2839 21.4549 11.2474 21.3638 11.2474 21.2498V17.4901C11.2474 17.3761 11.2839 17.285 11.3613 17.2075C11.4388 17.13 11.5299 17.0936 11.6439 17.0936H13.1296C13.3529 17.0936 13.5671 17.1574 13.763 17.2896C13.959 17.4217 14.1185 17.5949 14.2415 17.8182C14.3646 18.0415 14.4238 18.2876 14.4238 18.561C14.4238 18.8254 14.3646 19.0715 14.2415 19.2902ZM18.849 20.5207C18.6986 20.867 18.4753 21.1405 18.1882 21.3455C17.901 21.5506 17.5456 21.6509 17.1263 21.6509H15.5723C15.4583 21.6509 15.3672 21.6144 15.2897 21.5369C15.2122 21.4595 15.1758 21.3683 15.1758 21.2544V17.4946C15.1758 17.3807 15.2122 17.2896 15.2897 17.2121C15.3672 17.1346 15.4583 17.0981 15.5723 17.0981H17.1263C17.4408 17.0981 17.7142 17.1574 17.9603 17.2759C18.2018 17.3944 18.4069 17.5584 18.5755 17.7681C18.7441 17.9777 18.8672 18.2192 18.9538 18.4972C19.0404 18.7707 19.0814 19.0669 19.0814 19.3768C19.0768 19.7915 18.9993 20.1743 18.849 20.5207ZM22.6224 17.7316C22.5449 17.8045 22.4538 17.841 22.3398 17.841H20.64V18.9849H22.0436C22.1576 18.9849 22.2487 19.0213 22.3262 19.0942C22.4036 19.1672 22.4401 19.2583 22.4401 19.3722C22.4401 19.4679 22.4036 19.5545 22.3262 19.6274C22.2487 19.7004 22.1576 19.7368 22.0436 19.7368H20.64V21.2544C20.64 21.3683 20.599 21.4595 20.5215 21.5369C20.4395 21.6144 20.3483 21.6509 20.2389 21.6509C20.1159 21.6509 20.0202 21.6144 19.9427 21.5369C19.8652 21.4595 19.8288 21.3683 19.8288 21.2544V17.4946C19.8288 17.3807 19.8652 17.2896 19.9427 17.2121C20.0202 17.1346 20.1113 17.0981 20.2253 17.0981H22.3398C22.4538 17.0981 22.5449 17.1346 22.6224 17.2075C22.6999 17.2804 22.7363 17.3716 22.7363 17.4855C22.7363 17.5721 22.6953 17.6541 22.6224 17.7316Z" fill="white"/>
</svg>
