<svg width="24" height="24" viewBox="0 0 24 24" fill="none" xmlns="http://www.w3.org/2000/svg">
<circle cx="12" cy="12" r="12" fill="#EE4E1C"/>
<path d="M18.3536 7.64646L16.3536 5.64646C16.3071 5.60003 16.252 5.56319 16.1914 5.53806C16.1307 5.51293 16.0657 5.5 16 5.5C15.9343 5.5 15.8693 5.51293 15.8086 5.53806C15.748 5.56319 15.6929 5.60003 15.6464 5.64646L9.64642 11.6465C9.55267 11.7402 9.5 11.8674 9.5 12V14C9.5 14.1326 9.55268 14.2598 9.64645 14.3536C9.74022 14.4473 9.86739 14.5 10 14.5H12C12.1326 14.5 12.2598 14.4473 12.3536 14.3536L18.3536 8.35355C18.4473 8.25979 18.5 8.13261 18.5 8.00001C18.5 7.8674 18.4473 7.74023 18.3536 7.64646ZM16.5 8.7929L15.2071 7.50001L16 6.70712L17.2929 8.00001L16.5 8.7929Z" fill="white"/>
<path d="M17.6006 10.5205L13.0607 15.0604C12.9217 15.2001 12.7564 15.3109 12.5743 15.3863C12.3923 15.4617 12.1971 15.5003 12 15.4998H10C9.60231 15.4993 9.22104 15.3411 8.93983 15.0599C8.65862 14.7787 8.50044 14.3974 8.5 13.9998V11.9998C8.49946 11.8027 8.53801 11.6075 8.61342 11.4254C8.68883 11.2434 8.79961 11.0781 8.93933 10.9391L13.4805 6.39801C13.4587 6.28652 13.3991 6.18598 13.3117 6.1134C13.2243 6.04083 13.1146 6.00068 13.001 5.99976H7C6.73486 6.00002 6.48066 6.10546 6.29318 6.29294C6.1057 6.48042 6.00026 6.73462 6 6.99976V16.9998C6.00026 17.2649 6.1057 17.5191 6.29318 17.7066C6.48066 17.8941 6.73486 17.9995 7 17.9998H17C17.2651 17.9995 17.5193 17.8941 17.7068 17.7066C17.8943 17.5191 17.9997 17.2649 18 16.9998V11.0002C17.9991 10.8864 17.9588 10.7765 17.886 10.689C17.8132 10.6016 17.7123 10.542 17.6006 10.5205Z" fill="white"/>
</svg>
