<svg width="315" height="59" viewBox="0 0 315 59" fill="none" xmlns="http://www.w3.org/2000/svg">
<path d="M65.3359 45.682H71.0936V32.2806C71.0936 29.4486 72.8459 27.7292 74.8485 27.7292C76.8512 27.7292 78.6035 29.4486 78.6035 32.2806V45.682H84.3611V32.2806C84.3611 29.4486 86.1134 27.7292 88.1161 27.7292C90.1187 27.7292 91.871 29.4486 91.871 32.2806V45.682H97.6287V31.7749C97.6287 25.4534 94.3743 22.1663 89.3677 22.1663C87.3651 22.1663 85.6628 22.9249 84.4612 23.6834C83.7603 24.1386 83.1595 24.6443 82.6088 25.2006C82.2583 24.6443 81.7577 24.1386 81.1569 23.6834C80.1055 22.9249 78.4533 22.1663 76.1002 22.1663C74.448 22.1663 73.0962 22.8237 72.1449 23.4306C71.5942 23.7846 71.0435 24.2397 70.5929 24.6949L69.5916 22.4192H65.3359V45.682Z" fill="white"/>
<path d="M113.149 27.7292C116.403 27.7292 118.907 30.2072 118.907 34.0506C118.907 37.894 116.403 40.372 113.149 40.372C109.895 40.372 107.392 37.894 107.392 34.0506C107.392 30.2072 109.895 27.7292 113.149 27.7292ZM113.149 22.1663C106.941 22.1663 101.634 27.4763 101.634 34.0506C101.634 40.6249 106.941 45.9349 113.149 45.9349C119.357 45.9349 124.664 40.6249 124.664 34.0506C124.664 27.4763 119.357 22.1663 113.149 22.1663Z" fill="white"/>
<path d="M130.756 37.5905C130.756 42.6476 133.96 45.9348 138.516 45.9348C139.267 45.9348 139.918 45.8336 140.469 45.6819C140.769 45.6313 141.02 45.5302 141.27 45.4291V40.3719L140.87 40.5236C140.619 40.5742 140.319 40.6248 139.768 40.6248C137.765 40.6248 136.514 39.3605 136.514 37.3376V27.7291H141.52V22.4191H136.514V16.8562H131.507V20.1433C131.507 22.0145 130.606 22.9248 128.754 22.9248H127.252V27.7291H130.756V37.5905Z" fill="white"/>
<path d="M156.038 27.7291C159.292 27.7291 161.795 30.2071 161.795 34.0505C161.795 37.8939 159.292 40.3719 156.038 40.3719C152.783 40.3719 150.28 37.8939 150.28 34.0505C150.28 30.2071 152.783 27.7291 156.038 27.7291ZM156.038 22.1662C149.829 22.1662 144.522 27.4762 144.522 34.0505C144.522 40.6248 149.829 45.9348 156.038 45.9348C162.246 45.9348 167.553 40.6248 167.553 34.0505C167.553 27.4762 162.246 22.1662 156.038 22.1662Z" fill="white"/>
<path d="M171.785 45.6819H177.543V33.2919C177.543 30.2576 179.495 28.2348 182.299 28.2348C182.9 28.2348 183.4 28.3359 183.751 28.3865L184.302 28.4876V22.4191L183.801 22.3179C183.45 22.2673 183.1 22.1662 182.549 22.1662C180.797 22.1662 179.445 22.8236 178.494 23.5822C177.943 23.9868 177.443 24.4419 177.042 24.9476L176.041 22.4191H171.785V45.6819Z" fill="white"/>
<path d="M186.815 38.3491C187.265 42.9511 190.319 45.9348 196.327 45.9348C201.534 45.9348 204.839 42.6476 204.839 38.8548C204.839 30.5611 193.073 32.4828 193.073 29.2462C193.073 27.9819 194.074 26.9705 195.827 26.9705C197.579 26.9705 198.831 28.2348 199.081 29.2462H204.588C204.037 25.2005 201.134 22.1662 195.576 22.1662C190.57 22.1662 187.315 25.4533 187.315 29.2462C187.315 37.2871 199.081 35.3148 199.081 38.6019C199.081 39.8662 197.829 41.1305 195.827 41.1305C193.824 41.1305 192.572 39.9168 192.322 38.3491H186.815Z" fill="white"/>
<path d="M223.609 38.6019C223.359 38.9559 223.009 39.2593 222.608 39.5122C221.857 39.9673 220.906 40.3719 219.354 40.3719C216.35 40.3719 214.648 38.6019 214.097 36.3262H230.118L230.218 35.5676C230.268 35.1125 230.368 34.6068 230.368 34.0505C230.368 26.9705 225.362 22.1662 219.354 22.1662C213.146 22.1662 207.839 27.4762 207.839 34.0505C207.839 40.6248 213.146 45.9348 219.354 45.9348C224.561 45.9348 228.416 42.0913 229.617 38.6019H223.609ZM213.847 32.2805C214.397 29.7013 216.35 27.7291 219.354 27.7291C222.358 27.7291 224.31 29.7013 224.861 32.2805H213.847Z" fill="white"/>
<path d="M234.612 45.6819H240.37V33.2919C240.37 30.2576 242.323 28.2348 245.126 28.2348C245.727 28.2348 246.228 28.3359 246.578 28.3865L247.129 28.4876V22.4191L246.628 22.3179C246.278 22.2673 245.927 22.1662 245.377 22.1662C243.624 22.1662 242.272 22.8236 241.321 23.5822C240.77 23.9868 240.27 24.4419 239.869 24.9476L238.868 22.4191H234.612V45.6819Z" fill="white"/>
<path d="M257.152 45.6819H262.659L271.421 22.4191H265.413L259.906 38.6019L254.398 22.4191H248.39L257.152 45.6819Z" fill="white"/>
<path d="M288.93 38.6019C288.68 38.9559 288.329 39.2593 287.929 39.5122C287.178 39.9673 286.227 40.3719 284.675 40.3719C281.671 40.3719 279.968 38.6019 279.418 36.3262H295.439L295.539 35.5676C295.589 35.1125 295.689 34.6068 295.689 34.0505C295.689 26.9705 290.683 22.1662 284.675 22.1662C278.466 22.1662 273.159 27.4762 273.159 34.0505C273.159 40.6248 278.466 45.9348 284.675 45.9348C289.881 45.9348 293.737 42.0913 294.938 38.6019H288.93ZM279.167 32.2805C279.718 29.7013 281.671 27.7291 284.675 27.7291C287.679 27.7291 289.631 29.7013 290.182 32.2805H279.167Z" fill="white"/>
<path d="M0 48.6158V16.8572C9.89887 16.8572 17.481 21.2433 19.7977 24.7889C19.7977 24.7889 6.95027 31.7489 0 48.6158Z" fill="white"/>
<path d="M12.2148 48.7681C12.2148 31.3202 26.3591 16.8572 43.807 16.8572V48.7681H12.2148Z" fill="white"/>
</svg>
