<svg width="139" height="120" viewBox="0 0 139 120" fill="none" xmlns="http://www.w3.org/2000/svg">
<path d="M1.18033 108.244C0.528451 108.244 0 107.714 0 107.06C0 106.405 0.528451 105.875 1.18033 105.875H104.459C105.111 105.875 105.639 106.405 105.639 107.06C105.639 107.714 105.111 108.244 104.459 108.244H1.18033ZM110.361 108.244C109.709 108.244 109.18 107.714 109.18 107.06C109.18 106.405 109.709 105.875 110.361 105.875H114.049C114.701 105.875 115.229 106.405 115.229 107.06C115.229 107.714 114.701 108.244 114.049 108.244H110.361ZM123.639 108.244C122.987 108.244 122.459 107.714 122.459 107.06C122.459 106.405 122.987 105.875 123.639 105.875H136.918C137.57 105.875 138.098 106.405 138.098 107.06C138.098 107.714 137.57 108.244 136.918 108.244H123.639ZM35.1147 119.35C34.4629 119.35 33.9344 118.82 33.9344 118.165C33.9344 117.511 34.4629 116.981 35.1147 116.981H45.4426C46.0945 116.981 46.6229 117.511 46.6229 118.165C46.6229 118.82 46.0945 119.35 45.4426 119.35H35.1147ZM52.082 119.35C51.4301 119.35 50.9016 118.82 50.9016 118.165C50.9016 117.511 51.4301 116.981 52.082 116.981H97.082C97.7338 116.981 98.2623 117.511 98.2623 118.165C98.2623 118.82 97.7338 119.35 97.082 119.35H52.082ZM118.033 78.1846C118.033 76.6051 120.393 76.6051 120.393 78.1846V82.6269C120.393 83.2812 119.865 83.8115 119.213 83.8115H114.787C113.213 83.8115 113.213 81.4423 114.787 81.4423H118.033V78.1846ZM120.393 87.0692C120.393 88.6487 118.033 88.6487 118.033 87.0692V82.6269C118.033 81.9727 118.561 81.4423 119.213 81.4423H123.639C125.213 81.4423 125.213 83.8115 123.639 83.8115H120.393V87.0692ZM5.90164 42.6462C5.90164 41.0667 8.26229 41.0667 8.26229 42.6462V47.0885C8.26229 47.7427 7.73384 48.2731 7.08197 48.2731H2.65574C1.08197 48.2731 1.08197 45.9038 2.65574 45.9038H5.90164V42.6462ZM115.229 5.18269H119.213C120.787 5.18269 120.787 7.55192 119.213 7.55192H115.229V11.55C115.229 13.1295 112.869 13.1295 112.869 11.55V7.55192H108.885C107.311 7.55192 107.311 5.18269 108.885 5.18269H112.869V1.18462C112.869 -0.394872 115.229 -0.394872 115.229 1.18462V5.18269ZM8.26229 51.5308C8.26229 53.1103 5.90164 53.1103 5.90164 51.5308V47.0885C5.90164 46.4342 6.43009 45.9038 7.08197 45.9038H11.5082C13.082 45.9038 13.082 48.2731 11.5082 48.2731H8.26229V51.5308Z" fill="#C3CBD6"/>
<path d="M20.7928 90.5391C21.4883 89.8411 22.5316 90.8881 21.8361 91.5862L20.2711 93.1568C19.9831 93.4459 19.516 93.4459 19.2279 93.1568L17.663 91.5862C16.9674 90.8881 18.0107 89.8411 18.7062 90.5391L19.7495 91.5862L20.7928 90.5391ZM18.7062 94.7274C18.0107 95.4254 16.9674 94.3783 17.663 93.6803L19.2279 92.1097C19.516 91.8206 19.9831 91.8206 20.2711 92.1097L21.8361 93.6803C22.5316 94.3783 21.4883 95.4254 20.7928 94.7274L19.7495 93.6803L18.7062 94.7274ZM33.8183 13.031C34.5138 12.3329 35.5571 13.38 34.8616 14.078L33.2967 15.6486C33.0086 15.9378 32.5415 15.9378 32.2534 15.6486L30.6885 14.078C29.993 13.38 31.0363 12.3329 31.7318 13.031L32.7751 14.078L33.8183 13.031ZM31.7318 17.2192C31.0363 17.9173 29.993 16.8702 30.6885 16.1722L32.2534 14.6016C32.5415 14.3124 33.0086 14.3124 33.2967 14.6016L34.8616 16.1722C35.5571 16.8702 34.5138 17.9173 33.8183 17.2192L32.7751 16.1722L31.7318 17.2192Z" fill="#C3CBD6"/>
<path fill-rule="evenodd" clip-rule="evenodd" d="M38.0669 29.3193H85.28C87.7245 29.3193 89.7062 31.3082 89.7062 33.7616V91.5117C89.7062 93.9651 87.7245 95.954 85.28 95.954H38.0669C35.6223 95.954 33.6406 93.9651 33.6406 91.5117V33.7616C33.6406 31.3082 35.6223 29.3193 38.0669 29.3193Z" fill="white" stroke="#C3CBD6" stroke-width="1.6"/>
<path fill-rule="evenodd" clip-rule="evenodd" d="M45.1484 69.0037H52.5255H45.1484ZM45.1484 58.6383H51.0501H45.1484ZM45.1484 48.2729H54.0009H45.1484Z" stroke="#C3CBD6" stroke-width="1.6" stroke-linecap="round" stroke-linejoin="round"/>
<path fill-rule="evenodd" clip-rule="evenodd" d="M89.6513 77.8876L96.23 71.9426L106.984 83.9477C108.619 85.7726 108.471 88.5817 106.654 90.2237C104.839 91.8641 102.042 91.717 100.408 89.8951C100.407 89.8943 100.407 89.8935 100.406 89.8927L89.6513 77.8876Z" fill="#F5F7F9" stroke="#C3CBD6" stroke-width="1.6"/>
<path d="M80.1157 84.1076C93.5607 84.1076 104.46 73.1687 104.46 59.6749C104.46 46.1811 93.5607 35.2422 80.1157 35.2422C66.6708 35.2422 55.7715 46.1811 55.7715 59.6749C55.7715 73.1687 66.6708 84.1076 80.1157 84.1076Z" fill="#F5F7F9" stroke="#C3CBD6" stroke-width="1.6"/>
<path d="M80.1165 78.1843C90.302 78.1843 98.5591 69.8972 98.5591 59.6747C98.5591 49.4521 90.302 41.165 80.1165 41.165C69.9309 41.165 61.6738 49.4521 61.6738 59.6747C61.6738 69.8972 69.9309 78.1843 80.1165 78.1843Z" fill="white" stroke="#C3CBD6" stroke-width="1.6"/>
</svg>
