<svg width="20" height="18" viewBox="0 0 20 18" fill="none" xmlns="http://www.w3.org/2000/svg">
<path d="M18.7545 8.82066C18.4706 8.5371 18.0932 8.37654 17.6921 8.36901L17.2883 8.36141L17.1829 7.97159C16.5597 5.66678 14.8771 3.85905 12.7466 3.01514C13.0019 3.46801 13.1479 3.99037 13.1479 4.54627C13.1479 6.27066 11.745 7.67358 10.0206 7.67358C8.29621 7.67358 6.89329 6.27066 6.89329 4.54627H7.96915C7.96915 5.67743 8.88944 6.59772 10.0206 6.59772C11.1518 6.59772 12.072 5.67743 12.072 4.54627C12.072 3.41511 11.1518 2.49482 10.0206 2.49482C9.91602 2.49482 9.81185 2.49705 9.7081 2.50138H9.61095C8.60165 2.49855 7.78141 1.67674 7.78141 0.66683H6.70556C6.70556 1.36176 6.95071 2.00036 7.35867 2.50138H6.83781C5.82615 2.50138 5.00312 1.67835 5.00312 0.666687H3.92726C3.92726 2.0743 4.93175 3.25155 6.26151 3.51972C4.62854 4.48039 3.37678 6.05401 2.85825 7.97159L2.75285 8.36141L2.34908 8.36901C1.948 8.37654 1.57059 8.5371 1.28631 8.82105C0.994754 9.1129 0.833984 9.50124 0.833984 9.91409C0.833984 10.7502 1.51371 11.4434 2.34915 11.4592L2.75289 11.4668L2.85828 11.8566C3.7303 15.0812 6.67554 17.3334 10.0206 17.3334C13.3657 17.3334 16.3109 15.0812 17.1829 11.8566L17.2883 11.4668L17.692 11.4592C18.5275 11.4434 19.2072 10.7502 19.2072 9.91409C19.2072 9.50124 19.0465 9.1129 18.7545 8.82066ZM6.54755 9.3049C6.07815 9.3049 5.69626 9.68679 5.69626 10.1562H4.6204C4.6204 9.09357 5.48492 8.22904 6.54755 8.22904C7.61017 8.22904 8.4747 9.09353 8.4747 10.1562H7.39884C7.39887 9.68679 7.01698 9.3049 6.54755 9.3049ZM10.0206 14.8414C8.85268 14.8414 7.75782 14.2155 7.1633 13.208L8.08986 12.6613C8.4918 13.3424 9.23164 13.7655 10.0206 13.7655C10.8096 13.7655 11.5495 13.3424 11.9514 12.6613L12.878 13.208C12.2835 14.2155 11.1886 14.8414 10.0206 14.8414ZM14.345 10.1562C14.345 9.68679 13.9631 9.3049 13.4937 9.3049C13.0243 9.3049 12.6424 9.68679 12.6424 10.1562H11.5665C11.5665 9.09357 12.4311 8.22904 13.4937 8.22904C14.5563 8.22904 15.4208 9.09353 15.4208 10.1562H14.345Z" fill="#272F3E"/>
</svg>
