<svg width="22" height="20" viewBox="0 0 22 20" fill="none" xmlns="http://www.w3.org/2000/svg">
<path d="M9.37027 11.1922C9.37027 10.028 8.4231 9.08081 7.25887 9.08081C6.09464 9.08081 5.14743 10.028 5.14743 11.1922H6.42893C6.42893 10.7346 6.80126 10.3623 7.25887 10.3623C7.71648 10.3623 8.08877 10.7346 8.08877 11.1922H9.37027Z" fill="#272F3E"/>
<path d="M14.6124 9.07983C13.4482 9.07983 12.501 10.027 12.501 11.1912H13.7825C13.7825 10.7336 14.1548 10.3613 14.6124 10.3613C15.07 10.3613 15.4423 10.7336 15.4423 11.1912H16.7238C16.7238 10.027 15.7767 9.07983 14.6124 9.07983Z" fill="#272F3E"/>
<path d="M10.9355 14.941C10.1253 14.941 9.36562 14.5065 8.95283 13.8071L7.84915 14.4583C8.49128 15.5465 9.67389 16.2224 10.9354 16.2224C12.1969 16.2224 13.3796 15.5465 14.0217 14.4583L12.918 13.807C12.5053 14.5065 11.7456 14.941 10.9355 14.941Z" fill="#272F3E"/>
<path d="M21.0372 8.92229C20.6291 8.51465 20.1166 8.2451 19.5603 8.13955C18.3589 4.42715 14.874 1.87111 10.9355 1.87111H10.5059C9.47423 1.87111 8.63491 1.03174 8.63491 0.00012207H7.35341C7.35341 0.700175 7.58305 1.34741 7.97056 1.87111H7.56456C6.53289 1.87111 5.69357 1.03174 5.69357 0.00012207H4.41207C4.41207 1.39249 5.31973 2.57609 6.57412 2.99233C4.5902 4.08304 3.03518 5.90086 2.31074 8.13955C1.75445 8.2451 1.24182 8.51474 0.833355 8.92277C0.295953 9.46073 0 10.1756 0 10.9356C0 11.6863 0.2896 12.3946 0.815504 12.93C1.22652 13.3485 1.74559 13.6246 2.31074 13.7317C3.51202 17.4441 6.99698 20.0001 10.9355 20.0001C14.874 20.0001 18.3589 17.4441 19.5602 13.7317C20.1254 13.6246 20.6445 13.3485 21.0555 12.93C21.5814 12.3946 21.871 11.6863 21.871 10.9356C21.871 10.1756 21.575 9.46073 21.0372 8.92229ZM19.0554 12.5L18.5745 12.5091L18.449 12.9734C17.5342 16.3561 14.4445 18.7186 10.9354 18.7186C7.42637 18.7186 4.33677 16.3561 3.42203 12.9734L3.29646 12.5091L2.8156 12.5C1.96967 12.484 1.28146 11.7822 1.28146 10.9356C1.28146 10.5176 1.44428 10.1244 1.73941 9.82891C2.02724 9.54139 2.40942 9.37882 2.81547 9.37121L3.29642 9.36218L3.42199 8.89783C4.33677 5.51518 7.42641 3.15265 10.9355 3.15265C12.0937 3.15265 13.0359 4.09489 13.0359 5.25307C13.0359 6.41125 12.0937 7.35353 10.9355 7.35353C9.77731 7.35353 8.83508 6.41129 8.83508 5.25311H7.55358C7.55358 7.11792 9.07069 8.63503 10.9355 8.63503C12.8003 8.63503 14.3174 7.11792 14.3174 5.25311C14.3174 4.72241 14.1942 4.22011 13.9754 3.77265C16.1247 4.68688 17.8128 6.54555 18.449 8.89787L18.5745 9.36222L19.0555 9.37126C19.4616 9.37887 19.8437 9.54143 20.1311 9.82844C20.4267 10.1244 20.5895 10.5176 20.5895 10.9357C20.5895 11.7823 19.9013 12.484 19.0554 12.5Z" fill="#272F3E"/>
</svg>
