<svg width="14" height="18" viewBox="0 0 14 18" fill="none" xmlns="http://www.w3.org/2000/svg">
<path d="M13.25 0.25H0.75C0.404297 0.25 0.125 0.529297 0.125 0.875V11.207C0.125 11.1953 0.132812 11.1875 0.144531 11.1875H4.42773L4.5293 11.6699C4.76562 12.8379 5.80469 13.6875 7 13.6875C8.19531 13.6875 9.23438 12.8379 9.46875 11.6699L9.57031 11.1875H13.8555C13.8672 11.1875 13.875 11.1953 13.875 11.207V0.875C13.875 0.529297 13.5957 0.25 13.25 0.25ZM10.9062 8.62891C10.9062 8.71484 10.8359 8.78516 10.75 8.78516H3.25C3.16406 8.78516 3.09375 8.71484 3.09375 8.62891V7.69141C3.09375 7.60547 3.16406 7.53516 3.25 7.53516H10.75C10.8359 7.53516 10.9062 7.60547 10.9062 7.69141V8.62891ZM10.9062 5.50391C10.9062 5.58984 10.8359 5.66016 10.75 5.66016H3.25C3.16406 5.66016 3.09375 5.58984 3.09375 5.50391V4.56641C3.09375 4.48047 3.16406 4.41016 3.25 4.41016H10.75C10.8359 4.41016 10.9062 4.48047 10.9062 4.56641V5.50391ZM13.8555 12.418H10.5566C10.3301 13.0586 9.93164 13.6348 9.40234 14.0723C8.72852 14.6309 7.875 14.9375 7 14.9375C6.125 14.9375 5.27148 14.6289 4.59766 14.0723C4.07049 13.6353 3.67159 13.0636 3.44336 12.418H0.144531C0.132812 12.418 0.125 12.4102 0.125 12.3984V17.125C0.125 17.4707 0.404297 17.75 0.75 17.75H13.25C13.5957 17.75 13.875 17.4707 13.875 17.125V12.3984C13.875 12.4102 13.8672 12.418 13.8555 12.418Z" fill="#272F3E"/>
</svg>
