<svg width="14" height="18" viewBox="0 0 14 18" fill="none" xmlns="http://www.w3.org/2000/svg">
<path d="M13.25 0.25H0.75C0.404297 0.25 0.125 0.529297 0.125 0.875V17.125C0.125 17.4707 0.404297 17.75 0.75 17.75H13.25C13.5957 17.75 13.875 17.4707 13.875 17.125V0.875C13.875 0.529297 13.5957 0.25 13.25 0.25ZM12.4688 16.3438H1.53125V12.418H3.44336C3.66992 13.0586 4.06836 13.6348 4.59766 14.0723C5.27148 14.6289 6.125 14.9375 7 14.9375C7.875 14.9375 8.72852 14.6309 9.40234 14.0723C9.93164 13.6348 10.3301 13.0586 10.5566 12.418H12.4688V11.1875H9.57031L9.46875 11.6699C9.23438 12.8379 8.19531 13.6875 7 13.6875C5.80469 13.6875 4.76562 12.8379 4.5293 11.6699L4.42773 11.1875H1.53125V1.65625H12.4688V16.3438ZM3.25 5.66016H10.75C10.8359 5.66016 10.9062 5.58984 10.9062 5.50391V4.56641C10.9062 4.48047 10.8359 4.41016 10.75 4.41016H3.25C3.16406 4.41016 3.09375 4.48047 3.09375 4.56641V5.50391C3.09375 5.58984 3.16406 5.66016 3.25 5.66016ZM3.25 8.78516H10.75C10.8359 8.78516 10.9062 8.71484 10.9062 8.62891V7.69141C10.9062 7.60547 10.8359 7.53516 10.75 7.53516H3.25C3.16406 7.53516 3.09375 7.60547 3.09375 7.69141V8.62891C3.09375 8.71484 3.16406 8.78516 3.25 8.78516Z" fill="#272F3E"/>
</svg>
