<svg width="18" height="19" viewBox="0 0 18 19" fill="none" xmlns="http://www.w3.org/2000/svg">
<path d="M10.1195 0.00012207C6.04685 0.00012207 2.73322 3.41731 2.73322 7.61727C2.73322 11.8172 6.04685 15.2344 10.1195 15.2344C14.1922 15.2344 17.5059 11.8172 17.5059 7.61727C17.5059 3.41731 14.1922 0.00012207 10.1195 0.00012207ZM10.1195 12.8907C7.29965 12.8907 5.00593 10.5251 5.00593 7.61727C5.00593 4.70942 7.29965 2.34386 10.1195 2.34386C12.9393 2.34386 15.2331 4.70942 15.2331 7.61727C15.2331 10.5251 12.9393 12.8907 10.1195 12.8907Z" fill="#272F3E"/>
<path fill-rule="evenodd" clip-rule="evenodd" d="M13.711 6.01638L9.24028 10.7975L6.43193 7.79416L7.89278 6.42817L9.24028 7.86924L12.2501 4.65039L13.711 6.01638Z" fill="#272F3E"/>
<path fill-rule="evenodd" clip-rule="evenodd" d="M-2.28882e-05 16.9504L5.81816 11.2837L7.21359 12.7164L1.39541 18.3831L-2.28882e-05 16.9504Z" fill="#272F3E"/>
</svg>
