<svg width="20" height="22" viewBox="0 0 20 22" fill="none" xmlns="http://www.w3.org/2000/svg">
<path fill-rule="evenodd" clip-rule="evenodd" d="M2.87799 0.18575C4.38202 -0.284988 6.08669 0.144413 7.18617 1.41899C8.39817 2.82401 8.49908 4.82034 7.5656 6.31958L14.2669 14.0883C15.8635 13.3862 17.792 13.7696 18.9953 15.1646C20.4793 16.885 20.2984 19.492 18.5914 20.9876C16.8842 22.4831 14.2973 22.3009 12.8132 20.5804C11.6098 19.1853 11.5015 17.2074 12.4137 15.7117L5.70845 7.93848L5.74665 7.90508C4.1472 8.6156 2.21099 8.23383 1.00405 6.8348C-0.0954361 5.56007 -0.280021 3.79919 0.391887 2.36376L2.91024 5.28329C3.5175 5.9089 4.51281 5.96027 5.17565 5.3796C5.83849 4.79892 5.92662 3.79844 5.39308 3.10843L5.3965 3.10544L2.87799 0.18575ZM17.0918 16.6586C16.4886 15.954 15.4333 15.8792 14.7394 16.4915C14.0455 17.1041 13.9718 18.1755 14.575 18.8801C15.1781 19.5847 16.2333 19.6596 16.9272 19.0471C17.6211 18.4346 17.695 17.3631 17.0918 16.6586Z" fill="#272F3E"/>
</svg>
