<svg width="19" height="18" viewBox="0 0 19 18" fill="none" xmlns="http://www.w3.org/2000/svg">
<path d="M3.94336 3.75171H7.01953V4.78008H3.94336V3.75171Z" fill="#272F3E"/>
<path d="M12.1484 7.86511H15.2246V8.89347H12.1484V7.86511Z" fill="#272F3E"/>
<path d="M3.94336 5.80847H7.01953V6.83683H3.94336V5.80847Z" fill="#272F3E"/>
<path d="M3.94336 7.86511H7.01953V8.89347H3.94336V7.86511Z" fill="#272F3E"/>
<path d="M0.833984 0.666626V11.9786H18.334V0.666626H0.833984ZM8.0459 9.92189H2.91895V2.72335H8.0459V9.92189ZM10.0967 7.86516H9.07129V4.78007H10.0967V7.86516ZM16.249 9.92189H11.1221V2.72335H16.249V9.92189Z" fill="#272F3E"/>
<path d="M12.1484 3.75171H15.2246V4.78008H12.1484V3.75171Z" fill="#272F3E"/>
<path d="M12.1484 5.80847H15.2246V6.83683H12.1484V5.80847Z" fill="#272F3E"/>
<path d="M14.1984 15.365V13.007H13.173V15.365L12.5101 14.7001L11.7852 15.4272L13.6857 17.3333L15.5863 15.4272L14.8613 14.7001L14.1984 15.365Z" fill="#272F3E"/>
<path d="M5.99529 15.365V13.007H4.9699V15.365L4.30698 14.7001L3.58203 15.4272L5.4826 17.3333L7.38316 15.4272L6.65821 14.7001L5.99529 15.365Z" fill="#272F3E"/>
</svg>
