<svg width="20" height="20" viewBox="0 0 20 20" fill="none" xmlns="http://www.w3.org/2000/svg">
<path d="M0 0.00012207V13.5744H20V0.00012207H0ZM18.8281 12.3404H1.17188V1.23415H18.8281V12.3404Z" fill="#272F3E"/>
<path d="M8.24219 2.46826H2.38281V11.1064H8.24219V2.46826ZM7.07031 3.70229V4.93631H3.55469V3.70229H7.07031ZM7.07031 6.17034V7.40436H3.55469V6.17034H7.07031ZM3.55469 9.87241V8.63838H7.07031V9.87241H3.55469Z" fill="#272F3E"/>
<path d="M17.6172 2.46826H11.7578V11.1064H17.6172V2.46826ZM16.4453 3.70229V4.93631H12.9297V3.70229H16.4453ZM16.4453 6.17034V7.40436H12.9297V6.17034H16.4453ZM12.9297 9.87241V8.63838H16.4453V9.87241H12.9297Z" fill="#272F3E"/>
<path d="M9.41406 4.93628H10.5859V8.63835H9.41406V4.93628Z" fill="#272F3E"/>
<path d="M15.2734 17.6378V14.8083H14.1015V17.6378L13.344 16.8401L12.5154 17.7127L14.6875 20.0001L16.8596 17.7127L16.031 16.8401L15.2734 17.6378Z" fill="#272F3E"/>
<path d="M5.89841 17.6378V14.8083H4.72654V17.6378L3.96896 16.8401L3.14037 17.7127L5.31247 20.0001L7.48458 17.7127L6.65599 16.8401L5.89841 17.6378Z" fill="#272F3E"/>
</svg>
