<svg width="20" height="20" viewBox="0 0 20 20" fill="none" xmlns="http://www.w3.org/2000/svg">
<path d="M19.4141 8.36832H17.1218L16.9484 6.69606C16.8493 5.74113 16.0981 5.02104 15.2012 5.02104H8.67188V3.30556C8.67188 2.95895 8.40953 2.67795 8.08594 2.67795H6.48438V0.627737C6.48438 0.281126 6.22203 0.00012207 5.89844 0.00012207H2.77344C2.44984 0.00012207 2.1875 0.281126 2.1875 0.627737V2.67795H0.585938C0.262344 2.67795 0 2.95895 0 3.30556V19.3725C0 19.7191 0.262344 20.0001 0.585938 20.0001H8.08594C8.40953 20.0001 8.67188 19.7191 8.67188 19.3725V17.3223H13.4766V19.3725C13.4766 19.7191 13.7389 20.0001 14.0625 20.0001H17.1875C17.5111 20.0001 17.7734 19.7191 17.7734 19.3725V16.6199L18.8518 15.4648C18.9617 15.3471 19.0234 15.1875 19.0234 15.021V12.3014H19.4141C19.7377 12.3014 20 12.0204 20 11.6738V8.99594C20 8.64933 19.7377 8.36832 19.4141 8.36832ZM18.8281 9.62355V11.0461C18.4898 11.0461 17.7303 11.0461 17.3995 11.0461L17.2519 9.62355H18.8281ZM15.2012 6.27627C15.5002 6.27627 15.7506 6.51636 15.7836 6.83468C16.1297 10.1718 15.6926 5.95707 16.2204 11.0461H8.67188V6.27627H15.2012ZM3.35938 1.25535H5.3125V2.67795H3.35938V1.25535ZM7.5 3.93318V16.0671H1.17188V3.93318H7.5ZM1.17188 18.7449V17.3223H7.5V18.7449H1.17188ZM14.6484 18.7449V17.3223H16.6016V18.7449H14.6484ZM17.8516 14.7611C16.9499 15.7269 19.0698 13.4562 16.6323 16.0671H8.67188V12.3014H17.8516V14.7611Z" fill="#272F3E"/>
<path d="M15.9375 13.3892H14.0625C13.7389 13.3892 13.4766 13.6702 13.4766 14.0168C13.4766 14.3634 13.7389 14.6444 14.0625 14.6444H15.9375C16.2611 14.6444 16.5234 14.3634 16.5234 14.0168C16.5234 13.6702 16.2611 13.3892 15.9375 13.3892Z" fill="#272F3E"/>
<path d="M3.39849 11.2972H4.46053L3.78013 13.4836C3.6533 13.8913 3.93814 14.3099 4.33607 14.3099C4.58138 14.3099 4.81002 14.1436 4.89189 13.8806L5.82939 10.868C5.95568 10.4621 5.6733 10.0419 5.27349 10.0419H4.14896L4.59193 8.14395C4.67045 7.80767 4.47955 7.46692 4.1656 7.38286C3.85205 7.29892 3.53353 7.50323 3.4551 7.83951L2.8301 10.5173C2.73752 10.9136 3.01795 11.2972 3.39849 11.2972Z" fill="#272F3E"/>
</svg>
