<svg width="19" height="18" viewBox="0 0 19 18" fill="none" xmlns="http://www.w3.org/2000/svg">
<path d="M17.8218 7.64014H16.8477L17.0907 9.87166H18.3345V8.16315C18.3345 7.87445 18.1048 7.64014 17.8218 7.64014Z" fill="#272F3E"/>
<path d="M9.44727 14.3347H16.5642L17.3294 13.5541C17.4255 13.4557 17.4795 13.3229 17.4795 13.1841V10.9177H9.44727V14.3347ZM13.7197 12.1381H15.3604C15.6434 12.1381 15.873 12.3724 15.873 12.6611C15.873 12.9498 15.6434 13.1841 15.3604 13.1841H13.7197C13.4367 13.1841 13.207 12.9498 13.207 12.6611C13.207 12.3724 13.4367 12.1381 13.7197 12.1381Z" fill="#272F3E"/>
<path d="M12.625 16.8103C12.625 17.099 12.8547 17.3333 13.1377 17.3333H15.8721C16.1551 17.3333 16.3848 17.099 16.3848 16.8103V15.3807H12.625V16.8103Z" fill="#272F3E"/>
<path d="M15.6635 6.24645C15.5771 5.45078 14.9198 4.85071 14.135 4.85071H9.44727V9.87163H16.0586L15.6635 6.24645Z" fill="#272F3E"/>
<path d="M7.90918 3.35144H1.34668C1.06367 3.35144 0.833984 3.58575 0.833984 3.87445V14.3696H8.42187V3.87445C8.42187 3.58575 8.19219 3.35144 7.90918 3.35144ZM5.93462 9.72313L5.11431 12.2336C5.04253 12.4529 4.84258 12.5913 4.62793 12.5913C4.2796 12.5913 4.03064 12.2425 4.14155 11.903L4.73696 10.0809H3.80762C3.47454 10.0809 3.2294 9.76117 3.3103 9.43094L3.85718 7.19942C3.92588 6.91908 4.20444 6.74893 4.47891 6.81901C4.75337 6.8891 4.92051 7.17292 4.85181 7.45325L4.46421 9.03484H5.44824C5.79725 9.03484 6.04522 9.38394 5.93462 9.72313Z" fill="#272F3E"/>
<path d="M0.833984 16.8102C0.833984 17.0989 1.06367 17.3332 1.34668 17.3332H7.90918C8.19219 17.3332 8.42187 17.0989 8.42187 16.8102V15.4155H0.833984V16.8102Z" fill="#272F3E"/>
<path d="M6.50781 1.18964C6.50781 0.900936 6.27812 0.666626 5.99512 0.666626H3.26074C2.97773 0.666626 2.74805 0.900936 2.74805 1.18964V2.3054H6.50781V1.18964Z" fill="#272F3E"/>
</svg>
