<svg width="20" height="18" viewBox="0 0 20 18" fill="none" xmlns="http://www.w3.org/2000/svg">
<path d="M6.53006 1.20566C6.53006 0.907968 6.28872 0.666626 5.99103 0.666626H3.68161C3.38392 0.666626 3.14258 0.907968 3.14258 1.20566V1.89802H6.5301V1.20566H6.53006Z" fill="#272F3E"/>
<path d="M16.9227 1.20566C16.9227 0.907968 16.6813 0.666626 16.3836 0.666626H14.0742C13.7765 0.666626 13.5352 0.907968 13.5352 1.20566V1.89802H16.9227V1.20566Z" fill="#272F3E"/>
<path d="M18.6939 2.97607H1.37301C1.07533 2.97607 0.833984 3.21742 0.833984 3.51511V4.74651C0.833984 5.0442 1.07533 5.28554 1.37301 5.28554H18.6939C18.9915 5.28554 19.2329 5.0442 19.2329 4.74651V3.51511C19.2329 3.21742 18.9915 2.97607 18.6939 2.97607Z" fill="#272F3E"/>
<path d="M10.7304 10.7269C10.6321 10.568 10.6232 10.3696 10.7068 10.2025L11.4714 8.6731H9.21255L8.01953 11.0592H8.87943C9.17712 11.0592 9.41846 11.3005 9.41846 11.5982V13.1837L11.6197 10.9825H11.1889C11.0021 10.9826 10.8286 10.8858 10.7304 10.7269Z" fill="#272F3E"/>
<path d="M18.6939 16.2552H18.0781V6.3634H1.98873V16.2552H1.37301C1.07533 16.2552 0.833984 16.4966 0.833984 16.7943C0.833984 17.0919 1.07533 17.3333 1.37301 17.3333H18.6939C18.9915 17.3333 19.2329 17.0919 19.2329 16.7943C19.2329 16.4966 18.9915 16.2552 18.6939 16.2552ZM13.3014 10.8244L9.25986 14.866C9.09445 15.0314 8.85893 15.0601 8.67242 14.9828C8.471 14.8994 8.33966 14.7028 8.33966 14.4848V12.137H7.14664C6.95985 12.137 6.78635 12.0403 6.68811 11.8814C6.5899 11.7225 6.58098 11.524 6.66453 11.3569L8.39658 7.89278C8.48786 7.71015 8.67451 7.5948 8.87869 7.5948H12.3429C12.5297 7.5948 12.7031 7.69154 12.8014 7.85045C12.8996 8.00935 12.9085 8.20779 12.825 8.37489L12.0603 9.90426H12.9202C13.1383 9.90426 13.3348 10.0356 13.4182 10.237C13.5017 10.4384 13.4555 10.6703 13.3014 10.8244Z" fill="#272F3E"/>
</svg>
