<svg width="20" height="20" viewBox="0 0 20 20" fill="none" xmlns="http://www.w3.org/2000/svg">
<path d="M19.4141 6.83639C19.7377 6.83639 20 6.54678 20 6.18956V3.41823C20 3.06101 19.7377 2.7714 19.4141 2.7714H17.4896V0.646953C17.4896 0.28973 17.2272 0.00012207 16.9036 0.00012207H14.3932C14.0696 0.00012207 13.8073 0.28973 13.8073 0.646953V2.77145H6.1927V0.646953C6.1927 0.28973 5.93035 0.00012207 5.60676 0.00012207H3.09637C2.77277 0.00012207 2.51043 0.28973 2.51043 0.646953V2.77145H0.585938C0.262344 2.77145 0 3.06105 0 3.41828V6.1896C0 6.54682 0.262344 6.83643 0.585938 6.83643H1.25523V18.7065H0.585938C0.262344 18.7065 0 18.9961 0 19.3533C0 19.7105 0.262344 20.0001 0.585938 20.0001H19.4141C19.7377 20.0001 20 19.7105 20 19.3533C20 18.9961 19.7377 18.7065 19.4141 18.7065H18.7448V6.83639H19.4141ZM14.9792 1.29378H16.3177V2.77145H14.9792V1.29378ZM3.6823 1.29378H5.02086V2.77145H3.6823V1.29378ZM17.5729 18.7065H2.42711V6.83639H17.5729V18.7065ZM1.17188 5.54273V4.06506H18.8281V5.54273H1.17188Z" fill="#272F3E"/>
<path d="M6.86208 13.7647H8.15891V16.582C8.15891 16.8436 8.30165 17.0795 8.52063 17.1796C8.72337 17.2723 8.97938 17.2379 9.15919 17.0393L13.5524 12.1895C13.72 12.0045 13.7701 11.7263 13.6795 11.4846C13.5888 11.2429 13.3751 11.0853 13.1381 11.0853H12.2034L13.0346 9.25006C13.1254 9.04954 13.1157 8.81142 13.009 8.62073C12.9022 8.43005 12.7136 8.31396 12.5105 8.31396H8.74489C8.52294 8.31396 8.32005 8.45239 8.22083 8.67153L6.33805 12.8285C6.24723 13.029 6.25692 13.2671 6.36368 13.4578C6.47044 13.6486 6.65903 13.7647 6.86208 13.7647ZM9.107 9.60771H11.5624L10.7313 11.4429C10.6404 11.6435 10.6501 11.8816 10.7569 12.0723C10.8636 12.263 11.0523 12.379 11.2553 12.379H11.7235L9.33079 15.0204V13.1178C9.33079 12.7606 9.06844 12.471 8.74485 12.471H7.81012L9.107 9.60771Z" fill="#272F3E"/>
</svg>
