<svg width="18" height="18" viewBox="0 0 18 18" fill="none" xmlns="http://www.w3.org/2000/svg">
<path d="M17.329 8.00478C16.856 4.24816 13.7502 1.13453 9.99342 0.670145C9.70674 0.634696 9.45508 0.871967 9.45508 1.1608V3.68087C12.0234 3.91531 14.084 5.97585 14.3183 8.5442H16.8385C17.1278 8.5442 17.3652 8.29182 17.329 8.00478Z" fill="#272F3E"/>
<path d="M8.4785 6.59119C6.86298 6.59119 5.54883 7.90534 5.54883 9.52086C5.54883 11.1364 6.86298 12.4505 8.4785 12.4505C10.094 12.4505 11.4082 11.1364 11.4082 9.52086C11.4082 7.90534 10.094 6.59119 8.4785 6.59119ZM8.4785 11.474C7.40133 11.474 6.52539 10.598 6.52539 9.52086C6.52539 8.44368 7.40133 7.56774 8.4785 7.56774C9.55568 7.56774 10.4316 8.44368 10.4316 9.52086C10.4316 10.598 9.55568 11.474 8.4785 11.474Z" fill="#272F3E"/>
<path d="M8.47851 8.54431C7.94017 8.54431 7.50195 8.98253 7.50195 9.52087C7.50195 10.0592 7.94017 10.4974 8.47851 10.4974C9.01685 10.4974 9.45507 10.0592 9.45507 9.52087C9.45507 8.98253 9.01685 8.54431 8.47851 8.54431Z" fill="#272F3E"/>
<path d="M13.8496 9.52084C13.5797 9.52084 13.3613 9.30245 13.3613 9.03256C13.3613 6.6093 11.39 4.63805 8.96676 4.63805C8.69687 4.63805 8.47848 4.41966 8.47848 4.14977V1.70837C4.16379 1.70837 0.666016 5.20614 0.666016 9.52084C0.666016 13.8355 4.16379 17.3333 8.47848 17.3333C12.7932 17.3333 16.2909 13.8355 16.2909 9.52084H13.8496ZM4.33534 5.37763C4.52602 5.18694 4.83517 5.18694 5.02586 5.37763C5.21655 5.56832 5.21655 5.87746 5.02586 6.06822C4.83517 6.25891 4.52602 6.25891 4.33534 6.06822C4.14458 5.87746 4.14458 5.56828 4.33534 5.37763ZM3.10741 10.0091C2.83775 10.0091 2.61913 9.7905 2.61913 9.52084C2.61913 9.25111 2.83775 9.03256 3.10741 9.03256C3.37707 9.03256 3.59569 9.25111 3.59569 9.52084C3.59569 9.7905 3.37707 10.0091 3.10741 10.0091ZM5.02583 13.664C4.83514 13.8547 4.52599 13.8547 4.3353 13.664C4.14458 13.4733 4.14458 13.1641 4.3353 12.9735C4.52599 12.7828 4.83514 12.7828 5.02583 12.9735C5.21652 13.1641 5.21652 13.4733 5.02583 13.664ZM8.47848 15.3802C8.20882 15.3802 7.9902 15.1616 7.9902 14.8919C7.9902 14.6222 8.20882 14.4036 8.47848 14.4036C8.74814 14.4036 8.96676 14.6222 8.96676 14.8919C8.96676 15.1616 8.74814 15.3802 8.47848 15.3802ZM8.47848 13.4271C6.32462 13.4271 4.57225 11.6747 4.57225 9.52084C4.57225 7.36697 6.32462 5.61461 8.47848 5.61461C10.6323 5.61461 12.3847 7.36697 12.3847 9.52084C12.3847 11.6747 10.6323 13.4271 8.47848 13.4271ZM12.6216 13.664C12.4309 13.8547 12.1218 13.8547 11.9311 13.664C11.7404 13.4733 11.7404 13.1641 11.9311 12.9735C12.1218 12.7828 12.4309 12.7828 12.6216 12.9735C12.8124 13.1641 12.8124 13.4733 12.6216 13.664Z" fill="#272F3E"/>
</svg>
