<svg width="20" height="20" viewBox="0 0 20 20" fill="none" xmlns="http://www.w3.org/2000/svg">
<path d="M9.41406 17.6173C9.73767 17.6173 10 17.355 10 17.0314C10 16.7078 9.73767 16.4454 9.41406 16.4454C9.09046 16.4454 8.82812 16.7078 8.82812 17.0314C8.82812 17.355 9.09046 17.6173 9.41406 17.6173Z" fill="#272F3E"/>
<path d="M2.96875 11.172C3.29235 11.172 3.55469 10.9097 3.55469 10.5861C3.55469 10.2625 3.29235 10.0001 2.96875 10.0001C2.64515 10.0001 2.38281 10.2625 2.38281 10.5861C2.38281 10.9097 2.64515 11.172 2.96875 11.172Z" fill="#272F3E"/>
<path d="M4.85657 15.7295C5.18017 15.7295 5.4425 15.4672 5.4425 15.1436C5.4425 14.82 5.18017 14.5576 4.85657 14.5576C4.53296 14.5576 4.27063 14.82 4.27063 15.1436C4.27063 15.4672 4.53296 15.7295 4.85657 15.7295Z" fill="#272F3E"/>
<path d="M4.85657 6.57544C5.18017 6.57544 5.4425 6.31311 5.4425 5.9895C5.4425 5.6659 5.18017 5.40356 4.85657 5.40356C4.53296 5.40356 4.27063 5.6659 4.27063 5.9895C4.27063 6.31311 4.53296 6.57544 4.85657 6.57544Z" fill="#272F3E"/>
<path d="M13.9716 15.7295C14.2952 15.7295 14.5575 15.4672 14.5575 15.1436C14.5575 14.82 14.2952 14.5576 13.9716 14.5576C13.648 14.5576 13.3856 14.82 13.3856 15.1436C13.3856 15.4672 13.648 15.7295 13.9716 15.7295Z" fill="#272F3E"/>
<path d="M10 0.00012207C9.67641 0.00012207 9.41406 0.262466 9.41406 0.58606V1.172C4.23172 1.172 0 5.40403 0 10.5861C0 15.7684 4.23207 20.0001 9.41406 20.0001C14.5835 20.0001 18.7891 15.777 18.7891 10.5861H19.4141C19.7377 10.5861 20 10.3237 20 10.0001C20 4.50184 15.4975 0.00012207 10 0.00012207ZM9.41406 18.8282C4.8693 18.8282 1.17188 15.1308 1.17188 10.5861C1.17188 6.04129 4.8693 2.34387 9.41406 2.34387V4.10168C9.41406 4.42528 9.67641 4.68762 10 4.68762C12.9078 4.68762 15.2734 7.07079 15.2734 10.0001C15.2734 10.3237 15.5358 10.5822 15.8594 10.5822H17.6172C17.6172 15.1269 13.9373 18.8282 9.41406 18.8282ZM16.4192 9.41418C16.1429 6.32649 13.6769 3.82356 10.5859 3.54227V1.19122C14.9877 1.48122 18.5189 5.01239 18.8089 9.41418H16.4192Z" fill="#272F3E"/>
<path d="M9.41406 5.8595C6.82938 5.8595 4.72656 7.97981 4.72656 10.5861C4.72656 13.1707 6.82938 15.2736 9.41406 15.2736C11.9987 15.2736 14.1016 13.1707 14.1016 10.5861C14.1016 7.97981 11.9987 5.8595 9.41406 5.8595ZM9.41406 14.1017C7.47555 14.1017 5.89844 12.5246 5.89844 10.5861C5.89844 8.62602 7.47555 7.03137 9.41406 7.03137C11.3526 7.03137 12.9297 8.62602 12.9297 10.5861C12.9297 12.5246 11.3526 14.1017 9.41406 14.1017Z" fill="#272F3E"/>
<path d="M9.41406 8.24231C8.12172 8.24231 7.07031 9.29372 7.07031 10.5861C7.07031 11.8784 8.12172 12.9298 9.41406 12.9298C10.7064 12.9298 11.7578 11.8784 11.7578 10.5861C11.7578 9.29372 10.7064 8.24231 9.41406 8.24231ZM9.41406 11.7579C8.76789 11.7579 8.24219 11.2322 8.24219 10.5861C8.24219 9.93989 8.76789 9.41418 9.41406 9.41418C10.0602 9.41418 10.5859 9.93989 10.5859 10.5861C10.5859 11.2322 10.0602 11.7579 9.41406 11.7579Z" fill="#272F3E"/>
</svg>
