<svg width="20" height="20" viewBox="0 0 20 20" fill="none" xmlns="http://www.w3.org/2000/svg">
<path d="M19.9969 6.51334C19.9969 4.8454 19.362 3.17761 18.092 1.90778C16.8617 0.677612 15.2259 0.00012207 13.486 0.00012207C11.746 0.00012207 10.1103 0.677612 8.87994 1.90778L1.03754 12.2357C-0.457365 14.113 -0.336974 16.8622 1.39948 18.5983C2.33255 19.5314 3.55829 19.9978 4.78403 19.9978C4.8118 19.9978 4.83957 19.9974 4.86719 19.9969V20.0001H17.1275V19.9983C18.6938 19.9603 19.9601 18.6941 19.9981 17.1281H19.9999V6.51334H19.9969ZM9.70911 2.73694C10.7179 1.72818 12.0593 1.17261 13.486 1.17261C14.9127 1.17261 16.2541 1.72818 17.2628 2.73694C19.3455 4.81931 19.3455 8.20737 17.2628 10.2897C16.2541 11.2985 14.9127 11.8541 13.486 11.8541C12.0593 11.8541 10.7179 11.2985 9.70911 10.2897C7.62659 8.20737 7.62659 4.81931 9.70911 2.73694ZM2.22864 17.7693C0.819642 16.3604 0.819642 14.068 2.22864 12.6591C2.93329 11.9546 3.85843 11.6024 4.78403 11.6024C5.70932 11.6024 6.63492 11.9548 7.33942 12.6591C8.74841 14.068 8.74841 16.3604 7.33942 17.7693C5.93027 19.1781 3.63764 19.1781 2.22864 17.7693ZM17.0553 18.8276C16.0781 18.8276 15.2831 18.0328 15.2831 17.0558C15.2831 16.0788 16.0781 15.2839 17.0553 15.2839C18.0323 15.2839 18.8273 16.0788 18.8273 17.0558C18.8273 18.0328 18.0323 18.8276 17.0553 18.8276ZM18.8273 14.7061C18.3338 14.3332 17.72 14.1115 17.0553 14.1115C15.4315 14.1115 14.1105 15.4323 14.1105 17.0558C14.1105 17.7205 14.3322 18.3342 14.7051 18.8276H7.9223C8.00638 18.7545 8.08862 18.6783 8.16858 18.5983C10.0347 16.7323 10.0347 13.6961 8.16858 11.8301C6.98312 10.6448 5.32572 10.2127 3.79572 10.5331L6.97809 6.32642C6.9288 8.056 7.56265 9.80161 8.87994 11.1187C10.1103 12.3489 11.7462 13.0266 13.486 13.0266C15.2259 13.0266 16.8618 12.3491 18.0921 11.1187C18.3669 10.8439 18.612 10.5504 18.8273 10.2423V14.7061Z" fill="#272F3E"/>
<path d="M10.5029 6.51731V6.51319C10.5029 5.98997 10.6401 5.47559 10.8998 5.02546C11.0615 4.745 10.9654 4.38657 10.6848 4.22483C10.4044 4.06293 10.0458 4.15922 9.88403 4.43967C9.52179 5.06757 9.33029 5.78458 9.33029 6.51319V6.51731C9.33029 6.8411 9.59274 7.10355 9.91668 7.10355C10.2405 7.10355 10.5029 6.8411 10.5029 6.51731Z" fill="#272F3E"/>
<path d="M14.978 9.09665C14.5274 9.35758 14.012 9.49567 13.4875 9.49598C13.1638 9.49613 12.9015 9.75873 12.9016 10.0825C12.9018 10.4062 13.1642 10.6685 13.488 10.6685H13.4883C14.2186 10.668 14.9368 10.4753 15.5656 10.1112C15.846 9.94901 15.9416 9.59043 15.7793 9.31012C15.6171 9.02997 15.2583 8.9343 14.978 9.09665Z" fill="#272F3E"/>
<path d="M11.9967 9.09811C11.5437 8.83657 11.1656 8.45922 10.9033 8.00665C10.7409 7.72665 10.382 7.63128 10.1019 7.79364C9.82174 7.95599 9.72637 8.31472 9.88888 8.59487C10.2539 9.2243 10.78 9.7495 11.4102 10.1134C11.5026 10.1668 11.6034 10.1922 11.7028 10.1922C11.9055 10.1922 12.1026 10.087 12.2111 9.89904C12.3732 9.61858 12.277 9.26015 11.9967 9.09811Z" fill="#272F3E"/>
<path d="M16.4687 6.50507V6.51331C16.4687 7.03775 16.3309 7.55319 16.0701 8.00394C15.9081 8.28424 16.0039 8.64282 16.2842 8.80487C16.3765 8.85843 16.4775 8.88376 16.5772 8.88376C16.7797 8.88376 16.9765 8.77878 17.0853 8.59094C17.4491 7.96198 17.6413 7.24359 17.6413 6.51331V6.50507C17.6413 6.18127 17.3789 5.91882 17.0551 5.91882C16.7311 5.91882 16.4687 6.18127 16.4687 6.50507Z" fill="#272F3E"/>
<path d="M11.6969 4.01114C11.7968 4.01114 11.8982 3.9855 11.9908 3.93164C12.4412 3.67026 12.9565 3.53156 13.4808 3.53064C13.8046 3.53018 14.0667 3.26727 14.0661 2.94348C14.0655 2.62 13.8032 2.35815 13.4799 2.35815C13.4796 2.35815 13.4791 2.35815 13.4788 2.35815C12.7485 2.35938 12.0304 2.55286 11.4019 2.91769C11.1219 3.08035 11.0267 3.43909 11.1894 3.71909C11.2982 3.90646 11.4949 4.01114 11.6969 4.01114Z" fill="#272F3E"/>
<path d="M14.9723 3.92667C15.4255 4.18774 15.804 4.56464 16.067 5.01691C16.1757 5.20413 16.3723 5.30865 16.5743 5.30865C16.6744 5.30865 16.7757 5.28287 16.8685 5.229C17.1483 5.06634 17.2434 4.70746 17.0806 4.42761C16.7148 3.79849 16.1881 3.2739 15.5576 2.91074C15.2769 2.74915 14.9184 2.84558 14.7568 3.12604C14.5952 3.40665 14.6917 3.76508 14.9723 3.92667Z" fill="#272F3E"/>
<path d="M13.4859 8.37305C14.5116 8.37305 15.3459 7.5387 15.3459 6.51331C15.3459 5.48776 14.5116 4.65356 13.4859 4.65356C12.4602 4.65356 11.6258 5.48776 11.6258 6.51331C11.6258 7.5387 12.4602 8.37305 13.4859 8.37305ZM13.4859 5.82605C13.8649 5.82605 14.1733 6.13428 14.1733 6.51331C14.1733 6.89218 13.8649 7.20056 13.4859 7.20056C13.1068 7.20056 12.7985 6.89218 12.7985 6.51331C12.7985 6.13428 13.1068 5.82605 13.4859 5.82605Z" fill="#272F3E"/>
<path d="M4.78394 13.3545C3.75824 13.3545 2.92389 14.1888 2.92389 15.2142C2.92389 16.2398 3.75839 17.074 4.78394 17.074C5.80948 17.074 6.64398 16.2398 6.64398 15.2142C6.64398 14.1888 5.80948 13.3545 4.78394 13.3545ZM4.78394 15.9015C4.40491 15.9015 4.09653 15.5933 4.09653 15.2142C4.09653 14.8354 4.40491 14.527 4.78394 14.527C5.16296 14.527 5.47134 14.8354 5.47134 15.2142C5.47134 15.5933 5.16296 15.9015 4.78394 15.9015Z" fill="#272F3E"/>
<path d="M17.0552 16.274C16.7313 16.274 16.4688 16.5365 16.4688 16.8603V17.2512C16.4688 17.575 16.7313 17.8375 17.0552 17.8375C17.379 17.8375 17.6414 17.575 17.6414 17.2512V16.8603C17.6414 16.5365 17.379 16.274 17.0552 16.274Z" fill="#272F3E"/>
</svg>
