<svg width="18" height="18" viewBox="0 0 18 18" fill="none" xmlns="http://www.w3.org/2000/svg">
<path d="M17.3301 6.09431C17.3301 4.70436 16.8012 3.31441 15.7428 2.25646C14.7175 1.23107 13.3542 0.666626 11.9042 0.666626C10.4544 0.666626 9.09116 1.23107 8.06602 2.25646L1.53055 10.8629C0.954152 11.5868 0.666016 12.4661 0.666016 13.3453C0.666016 14.3669 1.05473 15.3879 1.8323 16.1654C2.60973 16.9427 3.63118 17.3314 4.65263 17.3314C4.67577 17.3314 4.69891 17.331 4.72206 17.3308V17.3333H14.9391V17.3316C16.2441 17.3001 17.2995 16.2451 17.331 14.9401H17.3327V6.09431H17.3301ZM15.3672 6.08757L15.3675 6.09431C15.3675 6.70275 15.207 7.3014 14.904 7.8258C14.8135 7.98207 14.6494 8.06968 14.4804 8.06968C14.3974 8.06968 14.3135 8.04845 14.2363 8.00382C14.003 7.86877 13.9229 7.56996 14.0579 7.3365C14.2753 6.96088 14.3903 6.53121 14.3903 6.09431V6.08757C14.3903 5.81761 14.609 5.5989 14.8789 5.5989C15.1484 5.5989 15.3672 5.81761 15.3672 6.08757ZM12.9636 3.27143C13.0984 3.03771 13.3968 2.95735 13.6309 3.09214C14.1563 3.39477 14.595 3.83193 14.9001 4.35607C15.0355 4.58953 14.9564 4.88835 14.7233 5.02403C14.6459 5.06891 14.5616 5.0904 14.4781 5.0904C14.3095 5.0904 14.1459 5.00317 14.0553 4.84728C13.8363 4.47039 13.5205 4.15618 13.1429 3.93875C12.9092 3.80396 12.8288 3.50552 12.9636 3.27143ZM10.3545 6.09431C10.3545 5.23981 11.0497 4.54452 11.9042 4.54452C12.7591 4.54452 13.4544 5.23981 13.4544 6.09431C13.4544 6.9488 12.7591 7.64422 11.9042 7.64422C11.0497 7.64422 10.3545 6.9488 10.3545 6.09431ZM10.8421 8.91566C10.7516 9.07257 10.5873 9.16018 10.4183 9.16018C10.3356 9.16018 10.2516 9.13894 10.1745 9.09431C9.64937 8.7913 9.21094 8.3535 8.90653 7.8291C8.77149 7.59564 8.85096 7.29657 9.08429 7.1614C9.31775 7.02598 9.61682 7.10545 9.75199 7.33879C9.9707 7.71581 10.2858 8.03026 10.6634 8.24834C10.8968 8.38338 10.9769 8.6822 10.8421 8.91566ZM11.9059 8.57971C12.3428 8.57933 12.7725 8.4645 13.1478 8.24707C13.3815 8.1119 13.6804 8.19137 13.8154 8.42509C13.9508 8.65854 13.8711 8.95736 13.6376 9.0924C13.1136 9.39618 12.515 9.55665 11.9063 9.55691C11.9063 9.55691 11.9063 9.55691 11.9059 9.55691C11.6364 9.55691 11.4176 9.3382 11.4174 9.06862C11.4174 8.7988 11.6361 8.58009 11.9059 8.57971ZM10.1677 3.09799C10.6914 2.79396 11.2897 2.63272 11.8984 2.63183H11.899C12.1686 2.63183 12.3873 2.8499 12.3877 3.11948C12.3883 3.3893 12.1699 3.60839 11.9 3.60865C11.4633 3.60967 11.0339 3.72525 10.6585 3.94294C10.581 3.98796 10.4967 4.00906 10.4135 4.00906C10.2451 4.00906 10.0811 3.92183 9.99053 3.76594C9.85511 3.53248 9.93421 3.23341 10.1677 3.09799ZM8.44139 6.09431C8.44139 5.48726 8.60097 4.88962 8.90271 4.3665C9.03775 4.13279 9.33631 4.05242 9.57028 4.18746C9.804 4.32225 9.8841 4.62107 9.74932 4.8544C9.5329 5.22951 9.41858 5.65816 9.41858 6.09431V6.09761C9.41858 6.36744 9.19988 6.58627 8.93005 6.58627C8.6601 6.58627 8.44139 6.36744 8.44139 6.09761V6.09431ZM4.65263 14.8948C3.79814 14.8948 3.10284 14.1995 3.10284 13.345C3.10284 12.4905 3.79814 11.7952 4.65263 11.7952C5.5075 11.7952 6.2028 12.4905 6.2028 13.345C6.2028 14.1995 5.5075 14.8948 4.65263 14.8948ZM15.3672 15.0426C15.3672 15.3125 15.1484 15.5312 14.8789 15.5312C14.609 15.5312 14.3903 15.3125 14.3903 15.0426V14.7168C14.3903 14.4468 14.609 14.2281 14.8789 14.2281C15.1484 14.2281 15.3672 14.4468 15.3672 14.7168V15.0426ZM16.3555 12.9215C15.9444 12.6107 15.4326 12.4261 14.8789 12.4261C13.5257 12.4261 12.4248 13.5266 12.4248 14.8796C12.4248 15.4336 12.6097 15.945 12.9202 16.3561H7.26786C7.33792 16.2952 7.40659 16.2317 7.47334 16.1654C9.02834 14.61 9.02834 12.0801 7.47334 10.5251C6.48534 9.53707 5.10416 9.17709 3.82916 9.44425L6.48114 5.93841C6.44007 7.37986 6.96815 8.83466 8.06602 9.93227C9.09116 10.9573 10.4544 11.5221 11.9042 11.5221C13.3542 11.5221 14.7175 10.9573 15.7428 9.93227C15.9717 9.70314 16.1761 9.45861 16.3555 9.20176V12.9215Z" fill="#272F3E"/>
</svg>
