<svg width="18" height="18" viewBox="0 0 18 18" fill="none" xmlns="http://www.w3.org/2000/svg">
<path d="M14.9889 0.666626H3.00977C1.71745 0.666626 0.666016 1.71806 0.666016 3.01038V14.9895C0.666016 16.2819 1.71745 17.3333 3.00977 17.3333H14.9889C16.2813 17.3333 17.3327 16.2819 17.3327 14.9895V3.01038C17.3327 1.71806 16.2813 0.666626 14.9889 0.666626ZM2.76563 14.7454C2.76563 14.4576 2.9987 14.2246 3.28646 14.2246C3.57422 14.2246 3.80729 14.4576 3.80729 14.7454C3.80729 15.0332 3.57422 15.2662 3.28646 15.2662C2.9987 15.2662 2.76563 15.0332 2.76563 14.7454ZM13.4723 4.63896C15.8595 7.06975 15.8667 10.9559 13.4727 13.3929C13.4486 13.4231 13.4212 13.4505 13.391 13.4746C10.956 15.8646 7.07686 15.864 4.64258 13.4768C4.61133 13.4524 4.58366 13.4241 4.55892 13.3935C2.16494 10.9559 2.1723 7.07428 4.55436 4.64384C4.5791 4.61226 4.60807 4.58394 4.63965 4.55855C7.06517 2.17724 10.9472 2.16135 13.3887 4.55562C13.4199 4.58004 13.4476 4.60836 13.4723 4.63896ZM3.80729 3.28707C3.80729 3.57483 3.57422 3.8079 3.28646 3.8079C2.9987 3.8079 2.76563 3.57483 2.76563 3.28707C2.76563 2.99931 2.9987 2.76624 3.28646 2.76624C3.57422 2.76624 3.80729 2.99931 3.80729 3.28707ZM14.224 14.7454C14.224 14.4576 14.457 14.2246 14.7448 14.2246C15.0326 14.2246 15.2656 14.4576 15.2656 14.7454C15.2656 15.0332 15.0326 15.2662 14.7448 15.2662C14.457 15.2662 14.224 15.0332 14.224 14.7454ZM14.7448 3.8079C14.457 3.8079 14.224 3.57483 14.224 3.28707C14.224 2.99931 14.457 2.76624 14.7448 2.76624C15.0326 2.76624 15.2656 2.99931 15.2656 3.28707C15.2656 3.57483 15.0326 3.8079 14.7448 3.8079Z" fill="#272F3E"/>
<path d="M10.0579 9.01628C10.0579 8.44206 9.59082 7.97461 9.01628 7.97461C8.44173 7.97461 7.97461 8.44206 7.97461 9.01628C7.97461 9.5905 8.44173 10.0579 9.01628 10.0579C9.59082 10.0579 10.0579 9.5905 10.0579 9.01628Z" fill="#272F3E"/>
<path d="M9.75373 7.06884C10.2748 5.56517 11.7797 6.10533 12.2505 5.77295C12.3833 5.67952 12.4738 5.47607 12.5207 5.1678C11.8208 4.52978 10.9471 4.07992 9.97965 3.89795C10.3767 5.15638 9.11356 5.7694 9.02099 6.30582C8.99234 6.47119 9.0786 6.68766 9.27685 6.95003C9.44254 6.97086 9.60237 7.01122 9.75373 7.06884Z" fill="#272F3E"/>
<path d="M11.6315 6.95756C10.9829 7.0045 10.7604 7.03702 10.6621 7.74141C10.7624 7.87032 10.8477 8.01095 10.9154 8.16166C11.9121 7.67761 12.5762 8.25281 13.0029 8.6226C13.4918 9.04529 13.6702 9.17651 14.2188 8.77169C14.1725 7.77722 13.846 6.85437 13.3164 6.08093C12.9066 6.86609 12.141 6.9211 11.6315 6.95756Z" fill="#272F3E"/>
<path d="M12.3203 9.40981C11.8305 8.98631 11.6492 8.84923 11.0817 9.27798C11.0609 9.44367 11.0205 9.6035 10.9629 9.75486C12.0094 10.1175 12.0723 10.9938 12.1126 11.5569C12.1596 12.2069 12.195 12.4201 12.8639 12.5218C13.502 11.8219 13.9518 10.9479 14.1338 9.98077C13.3937 10.2136 12.8708 9.88689 12.3203 9.40981Z" fill="#272F3E"/>
<path d="M11.0743 11.6314C11.0267 10.9728 10.9906 10.7597 10.2905 10.662C10.1616 10.7622 10.0206 10.8475 9.87024 10.9152C10.3543 11.912 9.77909 12.5761 9.4093 13.0028C8.98687 13.4914 8.85507 13.6697 9.26021 14.2186C10.2547 14.1724 11.1775 13.8459 11.951 13.3163C11.1658 12.9065 11.1108 12.1408 11.0743 11.6314Z" fill="#272F3E"/>
<path d="M8.2767 10.9637C7.75567 12.4674 6.25075 11.9273 5.77995 12.2596C5.64714 12.3531 5.55664 12.5565 5.50977 12.8648C6.20964 13.5028 7.08334 13.9527 8.05078 14.1346C7.65375 12.8762 8.91687 12.2632 9.00945 11.7268C9.03809 11.5614 8.95183 11.3449 8.75359 11.0826C8.58789 11.0617 8.42806 11.0214 8.2767 10.9637Z" fill="#272F3E"/>
<path d="M7.0944 10.9286C7.23177 10.832 7.32356 10.6174 7.36914 10.2909C7.26888 10.162 7.18359 10.0214 7.11588 9.87103C6.84375 10.0029 6.59668 10.0562 6.37239 10.0562C5.77441 10.0562 5.33854 9.67864 5.02832 9.40977C4.53978 8.98737 4.36139 8.85557 3.8125 9.26068C3.85872 10.2551 4.18522 11.178 4.71484 11.9514C5.32445 10.7835 6.64935 11.2422 7.0944 10.9286Z" fill="#272F3E"/>
<path d="M5.70996 8.6226C6.19993 9.0462 6.38128 9.18305 6.94856 8.75444C6.9694 8.58874 7.00976 8.42891 7.06738 8.27755C6.02083 7.91492 5.958 7.03861 5.91764 6.47546C5.87067 5.82553 5.83528 5.61235 5.16634 5.51062C4.52832 6.21049 4.07845 7.08419 3.89648 8.05164C4.74251 7.78471 5.32357 8.28764 5.70996 8.6226Z" fill="#272F3E"/>
<path d="M6.9567 6.40083C7.00436 7.0594 7.04039 7.27251 7.74055 7.37023C7.86946 7.26997 8.01041 7.18469 8.1608 7.11698C7.67675 6.12024 8.25195 5.45617 8.62174 5.02942C9.04416 4.54088 9.17597 4.36252 8.77082 3.8136C7.77636 3.85982 6.85351 4.18632 6.08008 4.71594C6.86523 5.12577 6.92024 5.8914 6.9567 6.40083Z" fill="#272F3E"/>
</svg>
