<svg width="20" height="20" viewBox="0 0 20 20" fill="none" xmlns="http://www.w3.org/2000/svg">
<path d="M17.1875 0.00012207H2.8125C1.26168 0.00012207 0 1.2618 0 2.81262V17.1876C0 18.7384 1.26168 20.0001 2.8125 20.0001H17.1875C18.7383 20.0001 20 18.7384 20 17.1876V2.81262C20 1.2618 18.7383 0.00012207 17.1875 0.00012207ZM18.75 17.1876C18.75 18.0492 18.0491 18.7501 17.1875 18.7501H2.8125C1.95094 18.7501 1.25 18.0492 1.25 17.1876V2.81262C1.25 1.95106 1.95094 1.25012 2.8125 1.25012H17.1875C18.0491 1.25012 18.75 1.95106 18.75 2.81262V17.1876Z" fill="#272F3E"/>
<path d="M15.3675 4.76712C15.3379 4.73029 15.3046 4.69638 15.2673 4.66705C12.3453 1.80177 7.68766 1.80412 4.76832 4.67056C4.73055 4.7008 4.6959 4.73482 4.66598 4.77302C1.79942 7.69748 1.80645 12.3556 4.67172 15.2723C4.70137 15.3092 4.73465 15.3431 4.77192 15.3724C7.68867 18.2325 12.3465 18.2395 15.2702 15.3697C15.3064 15.3408 15.3391 15.3079 15.3682 15.2717C18.2488 12.3385 18.2262 7.67705 15.3675 4.76712ZM14.6381 14.2263C13.8341 14.1042 13.7922 13.842 13.7366 13.0685C13.6881 12.3927 13.6124 11.3413 12.3567 10.9062C12.4259 10.7245 12.4742 10.5327 12.4992 10.3336C13.1792 9.81994 13.397 9.98244 13.9855 10.4921C14.6516 11.069 15.2777 11.4559 16.1618 11.177C15.9435 12.3379 15.4037 13.3865 14.6381 14.2263ZM10.3128 16.2626C9.82719 15.6048 9.98477 15.3897 10.4921 14.8039C10.9357 14.2917 11.6257 13.4945 11.0452 12.2988C11.2257 12.2172 11.3947 12.115 11.5495 11.9949C12.3937 12.112 12.4339 12.3799 12.4898 13.1581C12.5337 13.7694 12.5999 14.6882 13.5417 15.18C12.6137 15.8154 11.5065 16.2072 10.3128 16.2626ZM3.77672 10.3129C4.43457 9.82728 4.64973 9.98482 5.23547 10.4922C5.60793 10.8147 6.13086 11.2677 6.84836 11.2677C7.11758 11.2677 7.41426 11.2038 7.74059 11.0454C7.82211 11.2258 7.92438 11.3949 8.04446 11.5496C7.99008 11.9414 7.87965 12.1986 7.71473 12.3149C7.18082 12.6912 5.59094 12.1408 4.85934 13.5419C4.22399 12.6138 3.83215 11.5066 3.77672 10.3129ZM5.40117 5.81314C6.2052 5.93517 6.24711 6.19736 6.30266 6.97091C6.35117 7.6467 6.42688 8.69814 7.68258 9.13322C7.6134 9.31494 7.56512 9.50673 7.54008 9.70576C6.86008 10.2195 6.64223 10.0569 6.05383 9.54728C5.59008 9.14568 4.89278 8.54197 3.87758 8.86216C4.09582 7.70142 4.63567 6.65287 5.40117 5.81314ZM9.72649 3.77677C10.2121 4.43462 10.0545 4.64974 9.54723 5.23552C9.10364 5.74771 8.41356 6.54486 8.99414 7.7406C8.81364 7.82216 8.64457 7.92439 8.48985 8.04451C7.64563 7.92736 7.60539 7.65955 7.5495 6.88134C7.50559 6.27002 7.43942 5.35123 6.49758 4.85943C7.42559 4.224 8.53278 3.8322 9.72649 3.77677ZM16.2626 9.72654C15.6048 10.2121 15.3895 10.0546 14.8038 9.54728C14.2916 9.10369 13.4945 8.41353 12.2987 8.99416C12.2172 8.81365 12.1149 8.64459 11.9948 8.48986C12.112 7.64564 12.3798 7.60544 13.158 7.54951C13.7693 7.5056 14.6881 7.43947 15.1799 6.49759C15.8153 7.4256 16.2072 8.53283 16.2626 9.72654ZM8.76965 10.0197C8.76965 9.33044 9.33039 8.7697 10.0197 8.7697C10.7089 8.7697 11.2697 9.33044 11.2697 10.0197C11.2697 10.709 10.7089 11.2697 10.0197 11.2697C9.33039 11.2697 8.76965 10.709 8.76965 10.0197ZM13.9019 6.12763C13.3364 6.52615 11.5309 5.87947 10.9061 7.68263C10.7244 7.61345 10.5326 7.56521 10.3336 7.54013C10.0957 7.22517 9.99215 6.9656 10.0266 6.76701C10.1375 6.12642 11.6523 5.38412 11.1772 3.87763C12.3379 4.09587 13.3865 4.63576 14.2263 5.40127C14.17 5.77134 14.0614 6.01525 13.9019 6.12763ZM6.13739 13.9118C6.70293 13.5133 8.5084 14.1599 9.13317 12.3568C9.31489 12.426 9.50668 12.4742 9.70567 12.4993C9.9436 12.8142 10.0472 13.0738 10.0127 13.2724C9.9018 13.913 8.38696 14.6553 8.86211 16.1618C7.70141 15.9435 6.65282 15.4036 5.81305 14.6381C5.86926 14.2681 5.97789 14.0242 6.13739 13.9118Z" fill="#272F3E"/>
</svg>
