<svg width="23" height="20" viewBox="0 0 23 20" fill="none" xmlns="http://www.w3.org/2000/svg">
<path d="M20.9109 10.1239C21.4207 7.1727 19.0324 4.52883 16.0329 4.67226C15.4736 3.09257 13.9577 2.00012 12.2188 2.00012C9.98946 2.00012 8.17578 3.79452 8.17578 6.00012C8.17578 7.46692 8.96528 8.72501 10.129 9.42252C9.36001 10.5056 9.3163 11.9659 10.0365 13.1019C9.70578 13.5527 9.52344 14.0985 9.52344 14.6668H8.17578V12.0001H3.41406V14.0001H0V18.0001H3.41406V20.0001H8.17578V18.6668H18.2832C20.884 18.6668 23 16.5733 23 14.0001C23 12.4275 22.2114 10.9852 20.9109 10.1239ZM1.34766 16.6668V15.3335H3.41406V16.6668H1.34766ZM4.76172 18.6668C4.76172 17.0299 4.76172 14.9718 4.76172 13.3335H6.82812V18.6668H4.76172ZM18.2832 17.3335H8.17578V16.0001H11.2657L10.948 15.1112C10.7643 14.5972 10.914 14.0141 11.3478 13.6499L11.8836 13.2001L11.4071 12.6893C10.608 11.8328 10.7043 10.4583 11.6801 9.73306L12.7572 8.93257L11.4638 8.55994C10.3213 8.23079 9.52344 7.17817 9.52344 6.00012C9.52344 4.52972 10.7326 3.33346 12.2188 3.33346C13.5212 3.33346 14.6359 4.25226 14.8692 5.51817L14.9901 6.1739C15.5269 6.08652 15.7972 6.00012 16.2617 6.00012C18.4993 6.00012 20.1226 8.13137 19.498 10.2633L19.3442 10.7883L19.8344 11.0405C20.9557 11.6171 21.6523 12.7512 21.6523 14.0001C21.6523 15.8381 20.1409 17.3335 18.2832 17.3335Z" fill="#272F3E"/>
<path d="M4.13283 6.00008C5.61902 6.00008 6.82814 4.80381 6.82814 3.33341C6.82814 1.86301 5.61902 0.666748 4.13283 0.666748C2.64663 0.666748 1.43752 1.86301 1.43752 3.33341C1.43752 4.80381 2.64663 6.00008 4.13283 6.00008ZM4.13283 2.00008C4.87593 2.00008 5.48048 2.59821 5.48048 3.33341C5.48048 4.06861 4.87593 4.66675 4.13283 4.66675C3.38973 4.66675 2.78517 4.06861 2.78517 3.33341C2.78517 2.59821 3.38973 2.00008 4.13283 2.00008Z" fill="#272F3E"/>
<path d="M19.6309 4.00012C20.7455 4.00012 21.6524 3.10292 21.6524 2.00012C21.6524 0.897322 20.7455 0.00012207 19.6309 0.00012207C18.5162 0.00012207 17.6094 0.897322 17.6094 2.00012C17.6094 3.10292 18.5162 4.00012 19.6309 4.00012ZM19.6309 1.33346C20.0024 1.33346 20.3047 1.63252 20.3047 2.00012C20.3047 2.36772 20.0024 2.66679 19.6309 2.66679C19.2593 2.66679 18.957 2.36772 18.957 2.00012C18.957 1.63252 19.2593 1.33346 19.6309 1.33346Z" fill="#272F3E"/>
</svg>
