<svg width="20" height="18" viewBox="0 0 20 18" fill="none" xmlns="http://www.w3.org/2000/svg">
<path d="M3.55469 10.4368H6.52344V17.3333H3.55469V10.4368Z" fill="#272F3E"/>
<path d="M3.59375 4.68961C4.56456 4.68961 5.35156 3.91769 5.35156 2.96547C5.35156 2.01326 4.56456 1.24133 3.59375 1.24133C2.62294 1.24133 1.83594 2.01326 1.83594 2.96547C1.83594 3.91769 2.62294 4.68961 3.59375 4.68961Z" fill="#272F3E"/>
<path d="M17.0703 2.96548C17.7175 2.96548 18.2422 2.45086 18.2422 1.81605C18.2422 1.18124 17.7175 0.666626 17.0703 0.666626C16.4231 0.666626 15.8984 1.18124 15.8984 1.81605C15.8984 2.45086 16.4231 2.96548 17.0703 2.96548Z" fill="#272F3E"/>
<path d="M18.1035 8.52478C18.1937 8.21953 18.2422 7.89692 18.2422 7.56317C18.2422 5.65872 16.6682 4.11489 14.7266 4.11489C14.5099 4.11489 14.2979 4.13424 14.0921 4.17102C13.8431 2.83167 12.6483 1.81604 11.2109 1.81604C9.59293 1.81604 8.28125 3.10259 8.28125 4.6896C8.28125 5.99723 9.17207 7.1001 10.3907 7.44815C9.82141 7.86757 9.45312 8.53524 9.45312 9.2873C9.45312 9.88888 9.68898 10.4362 10.0746 10.846C9.69457 11.1622 9.45312 11.6337 9.45312 12.1609C9.45312 12.3624 9.48875 12.5558 9.55355 12.7356H7.69531V15.0344H16.4844C18.426 15.0344 20 13.4906 20 11.5862C20 10.2545 19.2303 9.09926 18.1035 8.52478Z" fill="#272F3E"/>
<path d="M0 12.7356H2.38281V15.0344H0V12.7356Z" fill="#272F3E"/>
</svg>
