<svg width="20" height="20" viewBox="0 0 20 20" fill="none" xmlns="http://www.w3.org/2000/svg">
<path d="M16.5517 10.7489L13.7516 11.3064L12.5022 10.0625L14.8728 7.70237L17.4855 10.3035L20 7.80005L18.164 5.97218V4.29957L13.8455 0.00012207L10.4909 3.33987L12.3583 5.19899L9.98765 7.55914L8.73823 6.31524L9.29867 3.52532L6.57005 0.842402L4.13104 0.148603L2.4883 1.78413L5.0083 4.29299L4.16283 5.13472L1.64279 2.62586L0 4.26138L0.697982 6.69336L3.42602 9.37573L6.22373 8.81866L7.47315 10.0626L0.379008 17.1252C-0.117629 17.6197 -0.117629 18.4244 0.379047 18.9189L1.09194 19.6286C1.33255 19.8682 1.6525 20.0001 1.99276 20.0001C2.33302 20.0001 2.65298 19.8682 2.89354 19.6286L9.98765 12.566L11.2371 13.8099L10.6771 16.5975L13.3885 19.2969L15.8294 19.9913L17.4722 18.3557L14.9522 15.8469L15.7977 15.0052L18.3177 17.514L19.9605 15.8785L19.2631 13.4484L16.5517 10.7489ZM13.8455 1.66185L16.9838 4.78629V6.45887L18.3309 7.80009L17.4855 8.64182L12.16 3.33987L13.8455 1.66185ZM13.1928 6.02979L14.0383 6.87153L11.6677 9.23167L10.8222 8.38994L13.1928 6.02979ZM2.05905 18.7978C2.03639 18.8204 2.01054 18.8251 1.9928 18.8251C1.97506 18.8251 1.94925 18.8204 1.92651 18.7978L1.21362 18.088C1.17703 18.0517 1.17703 17.9924 1.21358 17.9561L8.30764 10.8934L9.15311 11.7351L2.05905 18.7978ZM18.3177 15.8523L15.7977 13.3434L13.2831 15.8468L15.8032 18.3557L15.486 18.6715L14.0068 18.2508L11.9583 16.2113L12.5183 13.4236L6.61159 7.54312L3.80928 8.10112L1.74767 6.07405L1.32558 4.60338L1.64279 4.28758L4.16279 6.79644L6.67733 4.29303L4.15732 1.78416L4.47449 1.46836L5.95551 1.88964L8.0166 3.91616L7.45706 6.70146L13.3637 12.582L16.1638 12.0245L18.2123 14.064L18.6349 15.5366L18.3177 15.8523Z" fill="#272F3E"/>
</svg>
