<svg width="18" height="18" viewBox="0 0 18 18" fill="none" xmlns="http://www.w3.org/2000/svg">
<path d="M12.4333 9.91661C12.3096 9.79284 12.145 9.7247 11.9699 9.7247C11.7949 9.7247 11.6303 9.79284 11.5065 9.91661L10.9375 10.4856L10.1029 9.65108L12.6604 7.09375C13.0729 7.27114 13.5209 7.36498 13.9833 7.36498C13.9833 7.36498 13.9833 7.36498 13.9833 7.36498C14.8799 7.36498 15.7224 7.01526 16.3553 6.38037C17.2193 5.5137 17.5417 4.24509 17.1966 3.06955C17.1766 3.00117 17.1218 2.94843 17.0528 2.93085C16.9838 2.91321 16.9105 2.93344 16.8602 2.98394L14.7508 5.09964C14.6242 5.04831 14.3053 4.87328 13.7151 4.28483C13.1249 3.69639 12.9487 3.378 12.8969 3.25153L15.0061 1.13571C15.0565 1.0852 15.0764 1.01194 15.0586 0.942914C15.0408 0.873886 14.988 0.819322 14.9195 0.799449C14.6154 0.711312 14.3004 0.666626 13.983 0.666626C13.0864 0.666626 12.2441 1.01623 11.6113 1.65113C10.618 2.64751 10.3841 4.11755 10.9068 5.33795L8.34818 7.89645L5.7294 5.27774C5.72711 5.27327 5.72552 5.26869 5.72299 5.26428L4.52597 3.21219C4.50527 3.17674 4.47716 3.14634 4.44347 3.12294L2.42421 1.72192C2.31255 1.64442 2.16155 1.65807 2.06554 1.75408L1.16592 2.65368C1.06984 2.74969 1.05632 2.90075 1.13375 3.01234L2.53481 5.03156C2.55821 5.06525 2.58861 5.09341 2.62406 5.11405L4.67626 6.31104C4.68078 6.31369 4.68555 6.31563 4.69019 6.31798L7.30838 8.93611L5.33815 10.9063C4.92562 10.7289 4.47775 10.6351 4.01536 10.6351C3.11868 10.6351 2.27627 10.9847 1.6433 11.6197C0.779314 12.4863 0.45698 13.755 0.802128 14.9304C0.822179 14.9987 0.876861 15.0515 0.94595 15.0691C1.01498 15.0866 1.08824 15.0665 1.13857 15.016L3.24792 12.9002C3.37451 12.9516 3.69338 13.1268 4.28354 13.715C4.87388 14.3035 5.05004 14.6219 5.10178 14.7483L2.99256 16.8642C2.94222 16.9147 2.92229 16.9879 2.94005 17.0569C2.95786 17.126 3.01073 17.1805 3.07923 17.2004C3.38321 17.2886 3.69826 17.3333 4.01565 17.3333C4.91216 17.3333 5.75451 16.9836 6.38736 16.3487C7.01897 15.7151 7.36606 14.8736 7.36471 13.9789C7.364 13.5179 7.2701 13.0715 7.09324 12.6604L9.06311 10.6907L9.8977 11.5252L9.3287 12.0942C9.20493 12.2181 9.13673 12.3826 9.13673 12.5577C9.13673 12.7328 9.20487 12.8973 9.32865 13.021L13.3484 17.0406C13.4721 17.1644 13.6367 17.2325 13.8117 17.2325C13.9867 17.2325 14.1513 17.1644 14.2751 17.0406L16.4528 14.8629C16.5766 14.7392 16.6448 14.5746 16.6448 14.3995C16.6448 14.2244 16.5767 14.0599 16.4529 13.9361L12.4333 9.91661ZM13.8561 15.6108C13.7129 15.7541 13.4807 15.7541 13.3375 15.6108L10.7586 13.032C10.6154 12.8889 10.6154 12.6567 10.7586 12.5134C10.9019 12.3702 11.1341 12.3702 11.2773 12.5135L13.8561 15.0922C13.9993 15.2353 13.9994 15.4676 13.8561 15.6108ZM15.0231 14.4439C14.8799 14.5871 14.6476 14.5871 14.5044 14.4439L11.9257 11.8651C11.7824 11.7219 11.7824 11.4897 11.9256 11.3465C12.0688 11.2033 12.3011 11.2033 12.4443 11.3465L15.0231 13.9253C15.1662 14.0685 15.1662 14.3007 15.0231 14.4439Z" fill="#272F3E"/>
</svg>
