<svg width="18" height="18" viewBox="0 0 18 18" fill="none" xmlns="http://www.w3.org/2000/svg">
<path fill-rule="evenodd" clip-rule="evenodd" d="M7.43522 14.1003C7.32434 12.9221 7.08891 11.6034 6.22157 10.7361C5.57572 10.0902 4.6484 10.1239 3.81341 10.2504C4.25435 12.0857 5.64429 13.5517 7.43522 14.1003ZM3.78622 7.86876C4.30501 5.4666 6.44198 3.66663 8.99935 3.66663C11.5567 3.66663 13.6937 5.4666 14.2125 7.86876C12.6082 7.68412 11.8296 7.24666 11.1575 6.86904C10.5363 6.52006 10.0061 6.22218 8.99935 6.22218C7.99255 6.22218 7.46237 6.52006 6.84123 6.86904C6.1691 7.24666 5.39047 7.68412 3.78622 7.86876ZM14.1853 10.2504C13.3503 10.1239 12.423 10.0902 11.7771 10.7361C10.9098 11.6034 10.6744 12.9221 10.5635 14.1003C12.3544 13.5517 13.7444 12.0857 14.1853 10.2504ZM17.3327 8.99996C17.3327 13.6023 13.6017 17.3333 8.99935 17.3333C4.39698 17.3333 0.666016 13.6023 0.666016 8.99996C0.666016 4.39759 4.39698 0.666626 8.99935 0.666626C13.6017 0.666626 17.3327 4.39759 17.3327 8.99996ZM10.3882 8.99996C10.3882 9.76702 9.76637 10.3888 8.99931 10.3888C8.23224 10.3888 7.61042 9.76702 7.61042 8.99996C7.61042 8.2329 8.23224 7.61107 8.99931 7.61107C9.76637 7.61107 10.3882 8.2329 10.3882 8.99996Z" fill="#272F3E"/>
</svg>
