<svg width="21" height="20" viewBox="0 0 21 20" fill="none" xmlns="http://www.w3.org/2000/svg">
<path d="M10.0002 2.38171C5.80007 2.38171 2.383 5.79878 2.383 9.9989C2.383 14.199 5.80007 17.6161 10.0002 17.6161C14.2003 17.6161 17.6174 14.199 17.6174 9.9989C17.6174 5.79878 14.2003 2.38171 10.0002 2.38171ZM10.0002 3.55359C13.154 3.55359 15.7857 5.83066 16.3384 8.82703C15.9705 8.77035 13.7936 9.17402 12.1369 7.40863C11.1996 6.40964 9.96467 6.4757 9.99991 6.48324C9.1821 6.48324 8.42331 6.81195 7.86346 7.40859C7.0176 8.30999 5.7935 8.82699 4.5051 8.82699H3.66194C4.21464 5.83066 6.84635 3.55359 10.0002 3.55359ZM4.02362 12.4111C6.29475 11.933 8.47175 13.8368 8.22843 16.1965C6.31479 15.6487 4.76296 14.2363 4.02362 12.4111ZM9.38292 16.4145C9.78057 13.1924 6.81206 10.5702 3.68425 11.2869C3.59952 10.8706 3.55487 10.4399 3.55487 9.9989C3.94303 9.93714 6.65686 10.4069 8.71807 8.2105C9.41081 7.47214 10.5842 7.4664 11.2824 8.21054C13.3455 10.4091 16.048 9.93566 16.4455 9.9989C16.4455 10.4399 16.4009 10.8706 16.3162 11.2869C13.182 10.5689 10.2207 13.1992 10.6175 16.4145C10.2184 16.4526 9.81331 16.4556 9.38292 16.4145ZM11.7719 16.1965C11.5283 13.8341 13.7083 11.9335 15.9768 12.411C15.2374 14.2363 13.6856 15.6487 11.7719 16.1965Z" fill="#272F3E"/>
<path d="M11.7577 10.5847C11.7577 9.61546 10.9692 8.8269 9.99994 8.8269C9.03064 8.8269 8.24213 9.61546 8.24213 10.5847C8.24213 11.554 9.03064 12.3425 9.99994 12.3425C10.9692 12.3425 11.7577 11.554 11.7577 10.5847ZM9.99994 11.1707C9.67685 11.1707 9.414 10.9078 9.414 10.5847C9.414 10.2616 9.67685 9.99878 9.99994 9.99878C10.3231 9.99878 10.5859 10.2616 10.5859 10.5847C10.5859 10.9078 10.3231 11.1707 9.99994 11.1707Z" fill="#272F3E"/>
<path d="M17.063 2.93715C15.169 1.04317 12.6607 0.00012207 10 0.00012207C4.49375 0.00012207 0 4.49422 0 10.0001C0 15.5064 4.4941 20.0001 10 20.0001C12.6607 20.0001 15.169 18.9571 17.063 17.0631C20.9809 13.1451 20.9823 6.85649 17.063 2.93715ZM10 18.8282C5.13215 18.8282 1.17187 14.868 1.17187 10.0001C1.17187 5.13227 5.13215 1.172 10 1.172C14.8679 1.172 18.8281 5.13227 18.8281 10.0001C18.8281 14.868 14.8679 18.8282 10 18.8282Z" fill="#272F3E"/>
</svg>
