<svg width="20" height="20" viewBox="0 0 20 20" fill="none" xmlns="http://www.w3.org/2000/svg">
<path d="M19.9996 10.0187C19.9996 10.0124 19.9998 10.0063 19.9998 10.0001C19.9998 7.32899 18.9597 4.81779 17.071 2.92905C15.1822 1.04031 12.671 0.00012207 9.99994 0.00012207C7.32886 0.00012207 4.81767 1.04031 2.92893 2.92905C1.0448 4.81318 0.00531247 7.31676 0.000234374 9.98049V9.98174C0.000195311 9.98784 0 9.99393 0 10.0001C0 12.6711 1.04015 15.1823 2.92889 17.0711C4.81634 18.9585 7.32543 19.9985 9.99443 19.9999C9.99639 20 9.9983 20.0001 10.0003 20.0001C10.0013 20.0001 10.0023 20 10.0033 20C12.6731 19.9991 15.183 18.959 17.071 17.0711C18.955 15.187 19.9945 12.6836 19.9996 10.0199C19.9996 10.0195 19.9996 10.019 19.9996 10.0187ZM14.7182 17.4583L13.8586 16.8907C13.5886 16.7124 13.2251 16.7867 13.0468 17.0568C12.8685 17.3268 12.9429 17.6903 13.2129 17.8686L13.5416 18.0857C12.5602 18.5172 11.4861 18.7751 10.358 18.8203L9.89623 17.8969C9.75151 17.6074 9.39956 17.4901 9.1101 17.6348C8.82065 17.7795 8.70335 18.1315 8.84807 18.421L9.02464 18.7741C7.90753 18.6507 6.85273 18.3182 5.90008 17.8165L5.96192 16.7872C5.98133 16.4642 5.7352 16.1866 5.41216 16.1672C5.09001 16.1483 4.81153 16.3939 4.79212 16.7169L4.76868 17.1067C3.88713 16.456 3.13045 15.6457 2.54178 14.7186L3.10928 13.8589C3.28756 13.5889 3.21318 13.2254 2.94311 13.0472C2.67303 12.8689 2.3096 12.9433 2.13132 13.2133L1.91432 13.542C1.48276 12.5606 1.22491 11.4865 1.17964 10.3584L2.10303 9.89655C2.39245 9.75178 2.50971 9.39983 2.36499 9.11042C2.22022 8.82101 1.86831 8.70374 1.57886 8.84847L1.22593 9.02499C1.34925 7.90785 1.68183 6.85301 2.18354 5.90036L3.21275 5.9622C3.22471 5.9629 3.23662 5.96325 3.24846 5.96325C3.55596 5.96325 3.81408 5.72349 3.83279 5.41243C3.85217 5.08939 3.60607 4.81181 3.28307 4.7924L2.89326 4.76896C3.54392 3.88737 4.35431 3.13065 5.28157 2.54194L6.14129 3.10948C6.24071 3.1751 6.35274 3.20647 6.46356 3.20647C6.65379 3.20647 6.84043 3.11393 6.95308 2.94327C7.13136 2.67319 7.05695 2.30976 6.78687 2.13148L6.4582 1.91452C7.43953 1.48296 8.51362 1.22515 9.64162 1.17988L10.1035 2.10335C10.2062 2.30862 10.4131 2.4273 10.628 2.4273C10.7161 2.4273 10.8055 2.40737 10.8897 2.36526C11.1791 2.2205 11.2964 1.86855 11.1516 1.57914L10.9751 1.22613C12.0922 1.34945 13.1471 1.68203 14.0998 2.18382L14.0381 3.21307C14.0187 3.53612 14.2649 3.81365 14.5879 3.83303C14.5999 3.83377 14.6117 3.83408 14.6235 3.83408C14.9311 3.83408 15.1892 3.59428 15.2079 3.28319L15.2312 2.89362C16.1128 3.54428 16.8695 4.35467 17.4581 5.28193L16.8906 6.14145C16.7122 6.41149 16.7866 6.77497 17.0566 6.95328C17.156 7.01895 17.2681 7.05031 17.379 7.05031C17.5692 7.05031 17.7558 6.95782 17.8685 6.78719L18.0855 6.45848C18.517 7.43984 18.7749 8.51398 18.8201 9.64202L17.8967 10.1037C17.6072 10.2485 17.4899 10.6004 17.6347 10.8899C17.7373 11.0952 17.9442 11.2139 18.1592 11.2139C18.2472 11.2139 18.3367 11.194 18.4208 11.1519L18.7738 10.9754C18.6505 12.0925 18.3179 13.1473 17.8162 14.1L16.7868 14.0382C16.4637 14.0191 16.1862 14.265 16.1669 14.588C16.1475 14.9111 16.3937 15.1886 16.7167 15.208L17.1064 15.2314C16.4558 16.1129 15.6454 16.8696 14.7182 17.4583Z" fill="#272F3E"/>
<path d="M9.99931 3.76562C6.56171 3.76562 3.76501 6.56237 3.76501 10C3.76501 13.4376 6.56171 16.2343 9.99931 16.2343C13.4369 16.2343 16.2336 13.4376 16.2336 10C16.2336 6.56237 13.4369 3.76562 9.99931 3.76562ZM9.99931 11.2968C9.28419 11.2968 8.70244 10.7151 8.70244 10C8.70244 9.28489 9.28423 8.70314 9.99931 8.70314C10.7144 8.70314 11.2962 9.28493 11.2962 10C11.2962 10.7151 10.7144 11.2968 9.99931 11.2968ZM4.93688 10C4.93688 9.28751 5.08512 8.60903 5.35195 7.99345L7.62979 9.30852C7.56561 9.52809 7.53053 9.75996 7.53053 10C7.53053 10.24 7.56561 10.4719 7.62979 10.6914L5.35191 12.0065C5.08516 11.3909 4.93688 10.7125 4.93688 10ZM12.3688 9.30852L14.6467 7.99345C14.9135 8.60903 15.0617 9.28751 15.0617 10C15.0617 10.7125 14.9135 11.3909 14.6467 12.0065L12.3688 10.6914C12.433 10.4719 12.468 10.24 12.468 10C12.468 9.75996 12.433 9.52809 12.3688 9.30852ZM14.0594 6.97936L11.7816 8.29439C11.4616 7.96013 11.049 7.71545 10.5853 7.60209V4.97159C12.004 5.13589 13.2459 5.88878 14.0594 6.97936ZM9.41337 4.97159V7.60209C8.94959 7.71545 8.53705 7.96009 8.21705 8.29439L5.93925 6.97936C6.75272 5.88878 7.99463 5.13589 9.41337 4.97159ZM5.93925 13.0206L8.21705 11.7056C8.53705 12.0398 8.94959 12.2845 9.41337 12.3979V15.0284C7.99463 14.8641 6.75272 14.1112 5.93925 13.0206ZM10.5852 15.0284V12.3979C11.049 12.2845 11.4616 12.0399 11.7816 11.7056L14.0594 13.0206C13.2459 14.1112 12.004 14.8641 10.5852 15.0284Z" fill="#272F3E"/>
</svg>
