<svg width="18" height="18" viewBox="0 0 18 18" fill="none" xmlns="http://www.w3.org/2000/svg">
<path fill-rule="evenodd" clip-rule="evenodd" d="M9.48955 17.3333V16.8431C9.48955 16.5724 9.27008 16.3529 8.99935 16.3529C8.96551 16.3529 8.93247 16.3563 8.90056 16.3629C8.67718 16.4086 8.50915 16.6062 8.50915 16.8431V17.3333C7.3711 17.2639 6.25964 16.9601 5.24445 16.4411L5.34385 16.2713C5.46905 16.048 5.52713 15.6319 5.34385 15.4693C5.34385 15.4693 5.27595 15.403 5.24445 15.3921C4.83268 15.25 4.69 15.439 4.6268 15.549L4.39151 15.9558C3.44935 15.3323 2.64245 14.5254 2.01896 13.5833L2.42582 13.348C2.66135 13.2126 2.74256 12.912 2.60719 12.6764C2.47183 12.4409 2.17116 12.3597 1.93562 12.4951L1.53366 12.7304C1.02639 11.7208 0.731119 10.6181 0.666016 9.49016H1.15621C1.42694 9.49016 1.64641 9.27069 1.64641 8.99996C1.64641 8.96612 1.64298 8.93308 1.63645 8.90117C1.59074 8.67779 1.3931 8.50976 1.15621 8.50976L0.666016 8.50976C0.735434 7.37171 1.03916 6.26025 1.55817 5.24506L1.96013 5.48035C2.19567 5.61571 2.49634 5.53451 2.6317 5.29898C2.67392 5.22551 2.69507 5.14571 2.69705 5.06657C2.6929 4.90059 2.60481 4.7407 2.45033 4.65192L2.04347 4.41663C2.04734 4.41069 2.05122 4.40477 2.05511 4.39885L2.04347 4.39212C2.66696 3.44996 3.47386 2.64306 4.41602 2.01957L4.65131 2.42643C4.78667 2.66196 5.08735 2.74317 5.32288 2.6078C5.55841 2.47244 5.63962 2.17177 5.50425 1.93623L5.26896 1.53427C6.27851 1.027 7.3812 0.731729 8.50915 0.666626V1.15682C8.50915 1.42755 8.72862 1.64702 8.99935 1.64702C9.27008 1.64702 9.48955 1.42755 9.48955 1.15682V0.691136C10.6258 0.752917 11.7372 1.04828 12.7543 1.55878L12.519 1.96074C12.4314 2.11311 12.4318 2.30061 12.5199 2.45263C12.6061 2.60122 12.7634 2.69384 12.9346 2.69761C13.0999 2.69286 13.2589 2.60485 13.3474 2.45094L13.5827 2.04408C13.5886 2.04795 13.5945 2.05183 13.6005 2.05572L13.6072 2.04408C14.5493 2.66757 15.3562 3.47447 15.9797 4.41663L15.5729 4.65192C15.5434 4.66884 15.5164 4.68834 15.4919 4.70998C15.3204 4.86143 15.2731 5.1174 15.3915 5.32349C15.5269 5.55902 15.8275 5.64023 16.0631 5.50486L16.465 5.26957C16.9723 6.27912 17.2676 7.38181 17.3327 8.50976H16.8425C16.8256 8.50976 16.8088 8.51062 16.7924 8.51229C16.5452 8.5374 16.3523 8.74615 16.3523 8.99996C16.3523 9.27069 16.5718 9.49016 16.8425 9.49016H17.3082C17.2464 10.6265 16.951 11.7378 16.4405 12.7549L16.2707 12.6555C15.9438 12.5125 15.6094 12.3752 15.4451 12.7549C15.2493 13.207 15.4412 13.3109 15.5484 13.3725L15.9552 13.6078C15.3317 14.55 14.5248 15.3569 13.5827 15.9804L13.3474 15.5735C13.212 15.338 12.9114 15.2568 12.6758 15.3921C12.4403 15.5275 12.3591 15.8282 12.4944 16.0637L12.7297 16.4656C11.7202 16.9729 10.6175 17.2682 9.48955 17.3333ZM13.1333 13.1847C12.0327 14.272 10.5475 14.8823 8.99935 14.8823C7.45169 14.8823 5.96691 14.2724 4.86635 13.1857C4.84867 13.1682 4.83109 13.1507 4.81362 13.133C3.73234 12.0379 3.12311 10.5625 3.11704 9.02318C3.11701 9.01544 3.117 9.0077 3.117 8.99996C3.117 5.75123 5.75062 3.11761 8.99935 3.11761C12.2481 3.11761 14.8817 5.75123 14.8817 8.99996C14.8817 9.00934 14.8817 9.01871 14.8816 9.02808C14.8743 10.5661 14.2648 12.0399 13.1841 13.1339C13.1673 13.151 13.1504 13.1679 13.1333 13.1847Z" fill="#272F3E"/>
<path d="M10.9444 8.98837C10.9405 9.4394 10.7807 9.87511 10.4923 10.2213L12.2325 12.6188C13.266 11.6962 13.8583 10.3757 13.8609 8.98837C13.8611 8.64096 13.8236 8.29457 13.7491 7.95528L10.9444 8.87142V8.98837Z" fill="#272F3E"/>
<path d="M8.51383 7.1065V4.13879C6.76803 4.31752 5.25387 5.42573 4.55223 7.03828L7.36666 7.95442C7.62821 7.5364 8.03817 7.23338 8.51383 7.1065Z" fill="#272F3E"/>
<path d="M5.76728 12.6188L7.50747 10.2213C7.21904 9.87511 7.05928 9.4394 7.05541 8.98837C7.05541 8.94939 7.05541 8.9104 7.05541 8.87142L4.24098 7.95528C4.16976 8.29492 4.13553 8.64132 4.1389 8.98837C4.14145 10.3757 4.73374 11.6962 5.76728 12.6188Z" fill="#272F3E"/>
<path d="M9.00006 9.96261C9.53698 9.96261 9.97224 9.52625 9.97224 8.98798C9.97224 8.44971 9.53698 8.01335 9.00006 8.01335C8.46314 8.01335 8.02788 8.44971 8.02788 8.98798C8.02788 9.52625 8.46314 9.96261 9.00006 9.96261Z" fill="#272F3E"/>
<path d="M8.99967 10.9372C8.75628 10.936 8.51537 10.888 8.28999 10.7959L6.56925 13.1935C8.07836 14.0835 9.95014 14.0835 11.4593 13.1935L9.72394 10.7959C9.49401 10.8899 9.24797 10.9379 8.99967 10.9372Z" fill="#272F3E"/>
<path d="M10.6331 7.94469L13.4476 7.03829C12.7459 5.42574 11.2317 4.31752 9.48594 4.13879V7.10651C9.96003 7.23098 10.3698 7.53034 10.6331 7.94469Z" fill="#272F3E"/>
</svg>
