<svg width="20" height="20" viewBox="0 0 20 20" fill="none" xmlns="http://www.w3.org/2000/svg">
  <path fill-rule="evenodd" clip-rule="evenodd"
    d="M8.3335 2.49935C8.3335 2.03911 8.70659 1.66602 9.16683 1.66602H10.8335C11.2937 1.66602 11.6668 2.03911 11.6668 2.49935C11.6668 2.95959 11.2937 3.33268 10.8335 3.33268H15.8335C16.2937 3.33268 16.6668 3.70578 16.6668 4.16602C16.6668 4.62625 16.2937 4.99935 15.8335 4.99935H15.7409L15.0876 16.7585C15.0386 17.6417 14.3081 18.3327 13.4235 18.3327H6.57681C5.69225 18.3327 4.96177 17.6417 4.91271 16.7585L4.25942 4.99935H4.16683C3.70659 4.99935 3.3335 4.62625 3.3335 4.16602C3.3335 3.70578 3.70659 3.33268 4.16683 3.33268H9.16683C8.70659 3.33268 8.3335 2.95959 8.3335 2.49935ZM8.3335 7.49935C7.87326 7.49935 7.50016 7.87245 7.50016 8.33268V13.3327C7.50016 13.7929 7.87326 14.166 8.3335 14.166C8.79373 14.166 9.16683 13.7929 9.16683 13.3327V8.33268C9.16683 7.87245 8.79373 7.49935 8.3335 7.49935ZM11.6668 7.49935C11.2066 7.49935 10.8335 7.87245 10.8335 8.33268V13.3327C10.8335 13.7929 11.2066 14.166 11.6668 14.166C12.1271 14.166 12.5002 13.7929 12.5002 13.3327V8.33268C12.5002 7.87245 12.1271 7.49935 11.6668 7.49935Z"
    fill="#646464" />
</svg>