<svg width="26" height="20" viewBox="0 0 26 20" fill="none" xmlns="http://www.w3.org/2000/svg">
  <path
    d="M12.1852 5.0886C12.469 4.83677 12.581 4.44103 12.4331 4.08927C12.3411 3.87741 12.2412 3.66955 12.1293 3.46968L12.0053 3.25382C11.8854 3.05396 11.7535 2.85809 11.6136 2.67021C11.3858 2.36642 10.986 2.26648 10.6263 2.3864L9.49902 2.75816C9.07131 2.40639 8.57964 2.11858 8.05199 1.92271L7.80815 0.763489C7.7322 0.391738 7.4444 0.0959359 7.06865 0.0519653C6.80482 0.0159893 6.537 0 6.26518 0H6.2372C5.96539 0 5.69757 0.0159893 5.43374 0.0479679C5.05799 0.0919385 4.77019 0.391738 4.69424 0.759492L4.4504 1.92271C3.91876 2.12258 3.43108 2.40639 3.00337 2.75816L1.87212 2.3904C1.51236 2.27048 1.11263 2.37041 0.884784 2.67421C0.744878 2.86209 0.612966 3.05795 0.489049 3.25782L0.369129 3.46968C0.257204 3.66955 0.157271 3.87741 0.0653323 4.09326C-0.0825687 4.44103 0.0293564 4.83676 0.313167 5.09259L1.20057 5.88406C1.1566 6.15189 1.13262 6.4317 1.13262 6.71551C1.13262 6.99932 1.1566 7.27913 1.20057 7.55095L0.313167 8.34242C0.0293564 8.59425 -0.0825687 8.98999 0.0653323 9.34175C0.157271 9.55361 0.257204 9.76147 0.369129 9.96533L0.489049 10.1732C0.608969 10.3771 0.74088 10.5689 0.884784 10.7568C1.11263 11.0606 1.51236 11.1605 1.87212 11.0406L2.99937 10.6689C3.42708 11.0206 3.91876 11.3084 4.4464 11.5043L4.69024 12.6675C4.76619 13.0393 5.054 13.3351 5.42974 13.3791C5.69757 13.411 5.96938 13.427 6.2452 13.427C6.52101 13.427 6.79283 13.411 7.06065 13.3791C7.4364 13.3351 7.72421 13.0353 7.80016 12.6675L8.04399 11.5043C8.57564 11.3044 9.06331 11.0206 9.49103 10.6689L10.6183 11.0406C10.978 11.1605 11.3778 11.0606 11.6056 10.7568C11.7455 10.5689 11.8774 10.3771 11.9974 10.1732L12.1213 9.95734C12.2332 9.75747 12.3331 9.54961 12.4251 9.33776C12.573 8.98999 12.461 8.59425 12.1772 8.33842L11.2898 7.54695C11.3338 7.27513 11.3578 6.99532 11.3578 6.71151C11.3578 6.4277 11.3338 6.14789 11.2898 5.87607L12.1772 5.0846L12.1852 5.0886ZM4.33048 6.71551C4.33048 6.20663 4.53263 5.7186 4.89246 5.35877C5.25229 4.99894 5.74032 4.79679 6.2492 4.79679C6.75807 4.79679 7.2461 4.99894 7.60593 5.35877C7.96576 5.7186 8.16791 6.20663 8.16791 6.71551C8.16791 7.22438 7.96576 7.71242 7.60593 8.07225C7.2461 8.43208 6.75807 8.63423 6.2492 8.63423C5.74032 8.63423 5.25229 8.43208 4.89246 8.07225C4.53263 7.71242 4.33048 7.22438 4.33048 6.71551ZM20.028 19.6868C20.2798 19.9706 20.6755 20.0826 21.0273 19.9347C21.2392 19.8427 21.447 19.7428 21.6469 19.6309L21.8628 19.507C22.0626 19.387 22.2585 19.2551 22.4464 19.1152C22.7502 18.8874 22.8501 18.4876 22.7302 18.1279L22.3584 17.0006C22.7102 16.5729 22.998 16.0812 23.1939 15.5536L24.3571 15.3098C24.7288 15.2338 25.0246 14.946 25.0686 14.5703C25.1006 14.3024 25.1166 14.0306 25.1166 13.7548C25.1166 13.479 25.1006 13.2072 25.0686 12.9393C25.0246 12.5636 24.7248 12.2758 24.3571 12.1998L23.1939 11.952C22.994 11.4204 22.7102 10.9327 22.3584 10.505L22.7302 9.37773C22.8501 9.01797 22.7502 8.61824 22.4464 8.39039C22.2585 8.25048 22.0626 8.11857 21.8628 7.99465L21.6509 7.87473C21.451 7.76281 21.2432 7.66287 21.0273 7.57094C20.6795 7.42304 20.2838 7.53496 20.028 7.81877L19.2365 8.70618C18.9647 8.66221 18.6849 8.63822 18.4011 8.63822C18.1173 8.63822 17.8374 8.66221 17.5656 8.70618L16.7742 7.81877C16.5223 7.53496 16.1266 7.42304 15.7748 7.57094C15.563 7.66287 15.3551 7.76281 15.1512 7.87473L14.9434 7.99465C14.7395 8.11457 14.5476 8.24648 14.3598 8.39039C14.056 8.61824 13.956 9.01797 14.076 9.37773L14.4477 10.505C14.0959 10.9327 13.8081 11.4244 13.6123 11.952L12.449 12.1918C12.0773 12.2678 11.7815 12.5556 11.7375 12.9314C11.7055 13.1992 11.6896 13.471 11.6896 13.7468C11.6896 14.0226 11.7055 14.2944 11.7375 14.5623C11.7815 14.938 12.0813 15.2258 12.449 15.3018L13.6123 15.5456C13.8121 16.0772 14.0959 16.5649 14.4477 16.9926L14.076 18.1199C13.956 18.4796 14.056 18.8794 14.3598 19.1072C14.5476 19.2471 14.7395 19.379 14.9434 19.499L15.1592 19.6229C15.3591 19.7348 15.567 19.8347 15.7788 19.9267C16.1266 20.0746 16.5223 19.9626 16.7782 19.6788L17.5696 18.7914C17.8414 18.8354 18.1213 18.8594 18.4051 18.8594C18.6889 18.8594 18.9687 18.8354 19.2405 18.7914L20.032 19.6788L20.028 19.6868ZM18.4011 11.8321C18.653 11.8321 18.9025 11.8817 19.1353 11.9781C19.3681 12.0746 19.5796 12.2159 19.7578 12.3941C19.936 12.5722 20.0773 12.7838 20.1737 13.0165C20.2702 13.2493 20.3198 13.4988 20.3198 13.7508C20.3198 14.0028 20.2702 14.2523 20.1737 14.4851C20.0773 14.7179 19.936 14.9294 19.7578 15.1075C19.5796 15.2857 19.3681 15.427 19.1353 15.5235C18.9025 15.6199 18.653 15.6695 18.4011 15.6695C18.1491 15.6695 17.8996 15.6199 17.6668 15.5235C17.434 15.427 17.2225 15.2857 17.0443 15.1075C16.8662 14.9294 16.7248 14.7179 16.6284 14.4851C16.532 14.2523 16.4824 14.0028 16.4824 13.7508C16.4824 13.4988 16.532 13.2493 16.6284 13.0165C16.7248 12.7838 16.8662 12.5722 17.0443 12.3941C17.2225 12.2159 17.434 12.0746 17.6668 11.9781C17.8996 11.8817 18.1491 11.8321 18.4011 11.8321Z"
    fill="#646464"
  />
</svg>
