<svg width="15" height="16" viewBox="0 0 15 16" fill="none" xmlns="http://www.w3.org/2000/svg">
  <path
    d="M13.0909 7.35273V2.90909C13.0909 2.52332 12.9377 2.15335 12.6649 1.88057C12.3921 1.60779 12.0221 1.45455 11.6364 1.45455H8.59636C8.29091 0.610909 7.49091 0 6.54545 0C5.6 0 4.8 0.610909 4.49455 1.45455H1.45455C0.654545 1.45455 0 2.10909 0 2.90909V13.0909C0 13.4767 0.153246 13.8466 0.426026 14.1194C0.698807 14.3922 1.06878 14.5455 1.45455 14.5455H5.89818C6.81454 15.4473 8.06545 16 9.45455 16C12.2691 16 14.5455 13.7236 14.5455 10.9091C14.5455 9.52 13.9927 8.26909 13.0909 7.35273ZM6.54545 1.45455C6.94545 1.45455 7.27273 1.78182 7.27273 2.18182C7.27273 2.58182 6.94545 2.90909 6.54545 2.90909C6.14545 2.90909 5.81818 2.58182 5.81818 2.18182C5.81818 1.78182 6.14545 1.45455 6.54545 1.45455ZM2.18182 4.36364H10.9091V5.81818H2.18182V4.36364ZM4.42182 11.6364H2.18182V10.1818H4.42182C4.38545 10.4218 4.36364 10.6618 4.36364 10.9091C4.36364 11.1564 4.38545 11.3964 4.42182 11.6364ZM2.18182 8.72727V7.27273H5.89818C5.45455 7.68727 5.12 8.18182 4.85818 8.72727H2.18182ZM9.45455 14.5455C7.44727 14.5455 5.81818 12.9164 5.81818 10.9091C5.81818 8.90182 7.44727 7.27273 9.45455 7.27273C11.4618 7.27273 13.0909 8.90182 13.0909 10.9091C13.0909 12.9164 11.4618 14.5455 9.45455 14.5455ZM9.81818 11.0909L11.8982 12.32L11.3527 13.2073L8.72727 11.6364V8H9.81818V11.0909Z"
    fill="black" />
</svg>
