<svg width="24" height="24" viewBox="0 0 24 24" fill="none" xmlns="http://www.w3.org/2000/svg">
  <path fill-rule="evenodd" clip-rule="evenodd"
    d="M14.6463 2.99939C14.9592 2.7232 15.3892 2.5795 15.7756 2.73715C16.6265 3.08436 17.4189 3.54544 18.1338 4.10141C18.4629 4.35738 18.5535 4.80118 18.471 5.20989C18.285 6.13134 18.4212 7.12173 18.9282 7.99984C19.4352 8.87818 20.2251 9.49139 21.1164 9.79095C21.5123 9.92402 21.8519 10.2252 21.9082 10.639C21.9687 11.084 22 11.5382 22 11.9998C22 12.4614 21.9687 12.9157 21.9082 13.3607C21.8519 13.7745 21.5123 14.0757 21.1164 14.2087C20.2251 14.5083 19.4352 15.1216 18.9282 15.9998C18.4212 16.878 18.285 17.8684 18.471 18.7899C18.5535 19.1986 18.4629 19.6424 18.1338 19.8983C17.4189 20.4543 16.6265 20.9153 15.7756 21.2625C15.3892 21.4202 14.9592 21.2765 14.6463 21.0003C13.9411 20.3777 13.0147 19.9998 12 19.9998C10.9853 19.9998 10.0589 20.3777 9.35366 21.0003C9.04085 21.2765 8.61078 21.4202 8.22441 21.2625C7.37346 20.9153 6.58105 20.4543 5.86613 19.8983C5.53701 19.6423 5.44641 19.1985 5.52891 18.7898C5.71492 17.8684 5.57874 16.878 5.07178 15.9998C4.56471 15.1216 3.77485 14.5083 2.88363 14.2087C2.48773 14.0757 2.14814 13.7745 2.09183 13.3607C2.03128 12.9157 2 12.4614 2 11.9998C2 11.5382 2.03128 11.084 2.09183 10.639C2.14814 10.2252 2.48773 9.92402 2.88363 9.79094C3.77485 9.49136 4.56471 8.87812 5.07178 7.99984C5.57874 7.12176 5.71492 6.13133 5.52891 5.20986C5.44641 4.80117 5.53701 4.35738 5.86613 4.10142C6.58105 3.54542 7.37346 3.08435 8.22441 2.73715C8.61078 2.5795 9.04085 2.7232 9.35366 2.99939C10.0589 3.62202 10.9853 3.99984 12 3.99984C13.0147 3.99984 13.9411 3.62202 14.6463 2.99939ZM12 15.9998C14.2091 15.9998 16 14.209 16 11.9998C16 9.79071 14.2091 7.99984 12 7.99984C9.79086 7.99984 8 9.79071 8 11.9998C8 14.209 9.79086 15.9998 12 15.9998Z"
    fill="#646464" />
</svg>