<svg width="20" height="24" viewBox="0 0 20 24" fill="none" xmlns="http://www.w3.org/2000/svg">
<path d="M2.95239 2C2.40015 2 1.95239 2.44769 1.95239 3V21C1.95239 21.5523 2.40015 22 2.95239 22H14.9524C15.5046 22 15.9524 21.5523 15.9524 21V19C15.9524 18.4477 15.5046 18 14.9524 18C14.4001 18 13.9524 18.4477 13.9524 19V20H3.95239V4H13.9524V5C13.9524 5.55231 14.4001 6 14.9524 6C15.5046 6 15.9524 5.55231 15.9524 5V3C15.9524 2.44769 15.5046 2 14.9524 2H2.95239Z" fill="black"/>
<path d="M12.0027 7.05023C12.3932 6.65973 13.0264 6.65967 13.4169 7.05023L17.6595 11.2928C17.7607 11.3941 17.8357 11.5116 17.8845 11.637C17.9283 11.7495 17.9524 11.8719 17.9524 12C17.9524 12.1421 17.9227 12.2772 17.8694 12.3996C17.829 12.4923 17.7739 12.5801 17.704 12.6596C17.6881 12.6777 17.6716 12.6952 17.6545 12.7121L13.4169 16.9497C13.0264 17.3402 12.3932 17.3403 12.0027 16.9497C11.6121 16.5591 11.6122 15.926 12.0027 15.5355L14.5381 13H6.95239C6.40015 13 5.95239 12.5523 5.95239 12C5.95239 11.4477 6.40015 11 6.95239 11H14.5382L12.0027 8.46442C11.6121 8.07391 11.6122 7.44073 12.0027 7.05023Z" fill="black"/>
</svg>
