<svg width="12" height="15" viewBox="0 0 12 15" fill="none" xmlns="http://www.w3.org/2000/svg">
  <path
    d="M2.25 14.8356C1.8375 14.8356 1.48425 14.6823 1.19025 14.3756C0.896252 14.0689 0.749502 13.7007 0.750002 13.271V3.10086C0.537502 3.10086 0.359253 3.02576 0.215253 2.87555C0.0712527 2.72535 -0.000497405 2.53968 2.59515e-06 2.31854C2.59515e-06 2.09689 0.0720026 1.91096 0.216003 1.76075C0.360002 1.61055 0.538002 1.5357 0.750002 1.53623H3.75C3.75 1.31457 3.822 1.12864 3.966 0.978434C4.11 0.828229 4.288 0.753387 4.5 0.753909H7.5C7.7125 0.753909 7.89075 0.829011 8.03475 0.979216C8.17875 1.12942 8.2505 1.31509 8.25 1.53623H11.25C11.4625 1.53623 11.6407 1.61133 11.7847 1.76153C11.9287 1.91174 12.0005 2.09741 12 2.31854C12 2.5402 11.928 2.72613 11.784 2.87634C11.64 3.02654 11.462 3.10138 11.25 3.10086V13.271C11.25 13.7013 11.103 14.0697 10.809 14.3764C10.515 14.6831 10.162 14.8361 9.75 14.8356H2.25ZM3.75 10.924C3.75 11.1457 3.822 11.3316 3.966 11.4818C4.11 11.632 4.288 11.7069 4.5 11.7063C4.7125 11.7063 4.89075 11.6312 5.03475 11.481C5.17875 11.3308 5.2505 11.1452 5.25 10.924V5.44781C5.25 5.22615 5.178 5.04022 5.034 4.89002C4.89 4.73981 4.712 4.66497 4.5 4.66549C4.2875 4.66549 4.10925 4.7406 3.96525 4.8908C3.82125 5.04101 3.7495 5.22668 3.75 5.44781V10.924ZM6.75 10.924C6.75 11.1457 6.822 11.3316 6.966 11.4818C7.11 11.632 7.288 11.7069 7.5 11.7063C7.7125 11.7063 7.89075 11.6312 8.03475 11.481C8.17875 11.3308 8.2505 11.1452 8.25 10.924V5.44781C8.25 5.22615 8.178 5.04022 8.034 4.89002C7.89 4.73981 7.712 4.66497 7.5 4.66549C7.2875 4.66549 7.10925 4.7406 6.96525 4.8908C6.82125 5.04101 6.7495 5.22668 6.75 5.44781V10.924Z"
    fill="#3C3C3C" />
</svg>
