<svg width="19" height="17" viewBox="0 0 19 17" fill="none" xmlns="http://www.w3.org/2000/svg">
  <path
    d="M13 10.8045C12.1667 10.8045 11.4583 10.5111 10.875 9.92435C10.2917 9.33762 10 8.62515 10 7.78695C10 6.94875 10.2917 6.23629 10.875 5.64955C11.4583 5.06281 12.1667 4.76944 13 4.76944C13.8333 4.76944 14.5417 5.06281 15.125 5.64955C15.7083 6.23629 16 6.94875 16 7.78695C16 8.62515 15.7083 9.33762 15.125 9.92435C14.5417 10.5111 13.8333 10.8045 13 10.8045ZM8 16.8395C7.71667 16.8395 7.479 16.7429 7.287 16.5498C7.095 16.3567 6.99933 16.118 7 15.8336V14.9284C7 14.5763 7.08333 14.2411 7.25 13.9226C7.41667 13.604 7.65 13.3526 7.95 13.1682C8.7 12.7155 9.496 12.3762 10.338 12.1503C11.18 11.9243 12.0673 11.811 13 11.8103C13.9333 11.8103 14.821 11.9236 15.663 12.1503C16.505 12.3769 17.3007 12.7162 18.05 13.1682C18.35 13.3526 18.5833 13.604 18.75 13.9226C18.9167 14.2411 19 14.5763 19 14.9284V15.8336C19 16.1186 18.904 16.3577 18.712 16.5508C18.52 16.7439 18.2827 16.8401 18 16.8395H8ZM7 10.8045H1C0.71667 10.8045 0.479003 10.7079 0.287003 10.5148C0.0950034 10.3217 -0.000663206 10.0829 3.46021e-06 9.79862C3.46021e-06 9.51364 0.0960035 9.27458 0.288003 9.08146C0.480003 8.88834 0.717336 8.79212 1 8.79279H7C7.28333 8.79279 7.521 8.88935 7.713 9.08247C7.905 9.27559 8.00067 9.51431 8 9.79862C8 10.0836 7.904 10.3227 7.712 10.5158C7.52 10.7089 7.28267 10.8051 7 10.8045ZM11 2.75777H1C0.71667 2.75777 0.479003 2.66121 0.287003 2.46809C0.0950034 2.27497 -0.000663206 2.03625 3.46021e-06 1.75193C3.46021e-06 1.46695 0.0960035 1.22789 0.288003 1.03477C0.480003 0.841652 0.717336 0.745427 1 0.746097H11C11.2833 0.746097 11.521 0.842658 11.713 1.03578C11.905 1.2289 12.0007 1.46762 12 1.75193C12 2.03692 11.904 2.27597 11.712 2.46909C11.52 2.66221 11.2827 2.75844 11 2.75777ZM8.1 6.78111H1C0.71667 6.78111 0.479003 6.68455 0.287003 6.49143C0.0950034 6.29831 -0.000663206 6.05959 3.46021e-06 5.77528C3.46021e-06 5.49029 0.0960035 5.25124 0.288003 5.05812C0.480003 4.865 0.717336 4.76877 1 4.76944H9C8.76667 5.05443 8.579 5.36456 8.437 5.69984C8.295 6.03512 8.18267 6.39554 8.1 6.78111Z"
    fill="#3C3C3C" />
</svg>
