<svg width="24" height="15" viewBox="0 0 24 15" fill="none" xmlns="http://www.w3.org/2000/svg">
<path fill-rule="evenodd" clip-rule="evenodd" d="M21 12.0001C21 13.657 19.6569 15.0001 18 15.0001C16.3432 15.0001 15 13.657 15 12.0001C15 10.3432 16.3432 9.00012 18 9.00012C19.6569 9.00012 21 10.3432 21 12.0001Z" fill="#272F3E"/>
<path fill-rule="evenodd" clip-rule="evenodd" d="M12.0001 0.00012207H0V12.0001H12.0001H24C24 5.3728 18.6276 0.00012207 12.0001 0.00012207Z" fill="#272F3E"/>
<path fill-rule="evenodd" clip-rule="evenodd" d="M9 12.0001C9 13.657 7.65689 15.0001 6 15.0001C4.34324 15.0001 3 13.657 3 12.0001C3 10.3432 4.34324 9.00012 6 9.00012C7.65689 9.00012 9 10.3432 9 12.0001Z" fill="#272F3E"/>
</svg>
