<svg width="24" height="24" viewBox="0 0 24 24" fill="none" xmlns="http://www.w3.org/2000/svg">
<path d="M19.3099 18.2916L19.6396 19.925C18.696 20.83 17.5788 21.5639 16.2785 22.124C14.9229 22.7079 13.4996 23 12 23C10.4994 23 9.07527 22.7097 7.71914 22.1297C6.41676 21.5726 5.30046 20.8372 4.36011 19.9263L4.69005 18.2916C4.96478 16.9305 5.39784 16.036 5.9065 15.4924C6.3106 15.0606 6.80428 14.8038 7.43885 14.7338C8.72856 15.857 10.2625 16.4286 12 16.4286C13.7375 16.4286 15.2714 15.857 16.5612 14.7338C17.1957 14.8038 17.6894 15.0606 18.0935 15.4924C18.6022 16.036 19.0352 16.9305 19.3099 18.2916ZM14.9291 6.49952C15.7461 7.31658 16.1429 8.27433 16.1429 9.42857C16.1429 10.5828 15.7461 11.5406 14.9291 12.3576C14.112 13.1747 13.1542 13.5714 12 13.5714C10.8458 13.5714 9.88801 13.1747 9.07095 12.3576C8.25389 11.5406 7.85714 10.5828 7.85714 9.42857C7.85714 8.27433 8.25389 7.31658 9.07095 6.49952C9.88801 5.68246 10.8458 5.28571 12 5.28571C13.1542 5.28571 14.112 5.68246 14.9291 6.49952Z" stroke="white" stroke-width="2"/>
</svg>
