<svg width="20" height="18" viewBox="0 0 20 18" fill="white" xmlns="http://www.w3.org/2000/svg">
<path d="M2 0H3C4.054 0 4.918 0.816 4.995 1.85L5 2V16C4.99967 16.5043 4.80892 16.9899 4.4659 17.3597C4.12288 17.7294 3.6529 17.9559 3.15 17.994L3 18H2C1.49549 17.9999 1.00963 17.8093 0.639699 17.4662C0.269768 17.1232 0.0430715 16.6531 0.00500011 16.15L0 16V2C0 0.946 0.816 0.0820001 1.85 0.00500011L2 0H3H2ZM8 0H9C10.054 0 10.918 0.816 10.995 1.85L11 2V16C10.9997 16.5043 10.8089 16.9899 10.4659 17.3597C10.1229 17.7294 9.6529 17.9559 9.15 17.994L9 18H8C7.49549 17.9999 7.00963 17.8093 6.6397 17.4662C6.26977 17.1232 6.04307 16.6531 6.005 16.15L6 16V2C6 0.946 6.816 0.0820001 7.85 0.00500011L8 0H9H8ZM14.974 2C15.814 2 16.582 2.531 16.864 3.346L16.911 3.503L19.926 15.248C20.0515 15.7367 19.9877 16.2547 19.7474 16.6983C19.507 17.1419 19.1079 17.4783 18.63 17.64L18.486 17.683L17.517 17.931C17.0306 18.0552 16.5153 17.9922 16.0732 17.7544C15.6311 17.5166 15.2944 17.1213 15.13 16.647L15.083 16.492L12.067 4.747C11.9416 4.25808 12.0057 3.73982 12.2464 3.29619C12.4872 2.85255 12.8867 2.51634 13.365 2.355L13.508 2.312L14.476 2.064C14.642 2.021 14.81 2 14.974 2ZM3 1.5H2C1.88303 1.50016 1.7698 1.54124 1.67993 1.61612C1.59007 1.69101 1.52925 1.79497 1.508 1.91L1.5 2V16C1.5 16.244 1.677 16.45 1.91 16.492L2 16.5H3C3.245 16.5 3.45 16.322 3.492 16.09L3.5 16V2C3.49984 1.88303 3.45876 1.7698 3.38388 1.67993C3.30899 1.59007 3.20503 1.52925 3.09 1.508L3 1.5ZM9 1.5H8C7.88303 1.50016 7.76979 1.54124 7.67993 1.61612C7.59007 1.69101 7.52925 1.79497 7.508 1.91L7.5 2V16C7.5 16.244 7.677 16.45 7.91 16.492L8 16.5H9C9.245 16.5 9.45 16.322 9.492 16.09L9.5 16V2C9.49984 1.88303 9.45876 1.7698 9.38388 1.67993C9.309 1.59007 9.20503 1.52925 9.09 1.508L9 1.5ZM14.975 3.5L14.912 3.504L14.849 3.517L13.881 3.764C13.7689 3.79215 13.67 3.85844 13.6014 3.95149C13.5328 4.04454 13.4987 4.15856 13.505 4.274L13.52 4.374L16.536 16.119C16.5637 16.2261 16.6261 16.3211 16.7135 16.3889C16.8009 16.4568 16.9083 16.4938 17.019 16.494L17.082 16.491L17.144 16.479L18.114 16.229C18.2272 16.1998 18.3265 16.1319 18.3949 16.0371C18.4632 15.9423 18.4961 15.8266 18.488 15.71L18.473 15.622L15.458 3.875C15.4302 3.76794 15.3677 3.6731 15.2803 3.60527C15.193 3.53743 15.0856 3.50042 14.975 3.5Z"/>
</svg>
