<svg width="20" height="21" viewBox="0 0 20 21" fill="white" stroke="black" xmlns="http://www.w3.org/2000/svg">
<path d="M1.875 5.1875H11.875C12.538 5.1875 13.1739 5.45089 13.6428 5.91973C14.1116 6.38857 14.375 7.02446 14.375 7.6875V15.1875C14.375 15.3533 14.3092 15.5122 14.1919 15.6294C14.0747 15.7467 13.9158 15.8125 13.75 15.8125H3.75C3.08696 15.8125 2.45107 15.5491 1.98223 15.0803C1.51339 14.6114 1.25 13.9755 1.25 13.3125V5.8125C1.25 5.64674 1.31585 5.48777 1.43306 5.37056C1.55027 5.25335 1.70924 5.1875 1.875 5.1875V5.1875Z" stroke="#1A1A1A" stroke-width="1.5" stroke-linecap="round" stroke-linejoin="round"/>
<path d="M14.375 9.25L18.75 6.75V14.25L14.375 11.75" stroke="#1A1A1A" stroke-width="1.5" stroke-linecap="round" stroke-linejoin="round"/>
</svg>
