<svg width="24" height="22" viewBox="0 0 24 22" fill="white" xmlns="http://www.w3.org/2000/svg">
<path d="M15.25 14C15.8467 14 16.419 14.2371 16.841 14.659C17.2629 15.081 17.5 15.6533 17.5 16.25V17.752L17.492 17.86C17.182 19.987 15.272 21.009 12.067 21.009C8.874 21.009 6.933 19.999 6.514 17.897L6.5 17.75V16.25C6.5 15.6533 6.73705 15.081 7.15901 14.659C7.58097 14.2371 8.15326 14 8.75 14H15.25ZM15.25 15.5H8.75C8.55109 15.5 8.36032 15.579 8.21967 15.7197C8.07902 15.8603 8 16.0511 8 16.25V17.67C8.28 18.87 9.55 19.509 12.067 19.509C14.583 19.509 15.797 18.878 16 17.693V16.25C16 16.0511 15.921 15.8603 15.7803 15.7197C15.6397 15.579 15.4489 15.5 15.25 15.5ZM16.244 7.999L21.75 8C22.3467 8 22.919 8.23705 23.341 8.65901C23.7629 9.08097 24 9.65326 24 10.25V11.752L23.992 11.86C23.682 13.987 21.772 15.009 18.567 15.009L18.252 15.006C17.9567 14.2942 17.4185 13.7102 16.733 13.358C17.248 13.458 17.858 13.509 18.567 13.509C21.083 13.509 22.297 12.878 22.5 11.693V10.25C22.5 10.0511 22.421 9.86032 22.2803 9.71967C22.1397 9.57902 21.9489 9.5 21.75 9.5H16.5C16.5 8.974 16.41 8.468 16.244 7.999ZM2.25 8L7.756 7.999C7.61479 8.39848 7.53096 8.81597 7.507 9.239L7.5 9.5H2.25C2.05109 9.5 1.86032 9.57902 1.71967 9.71967C1.57902 9.86032 1.5 10.0511 1.5 10.25V11.67C1.78 12.87 3.05 13.509 5.567 13.509C6.189 13.509 6.731 13.47 7.199 13.394C6.54446 13.7497 6.03162 14.319 5.746 15.007L5.566 15.009C2.374 15.009 0.433 13.999 0.0139999 11.897L0 11.75V10.25C0 9.65326 0.237053 9.08097 0.65901 8.65901C1.08097 8.23705 1.65326 8 2.25 8ZM12 6C12.9283 6 13.8185 6.36875 14.4749 7.02513C15.1313 7.6815 15.5 8.57174 15.5 9.5C15.5 10.4283 15.1313 11.3185 14.4749 11.9749C13.8185 12.6313 12.9283 13 12 13C11.0717 13 10.1815 12.6313 9.52513 11.9749C8.86875 11.3185 8.5 10.4283 8.5 9.5C8.5 8.57174 8.86875 7.6815 9.52513 7.02513C10.1815 6.36875 11.0717 6 12 6ZM12 7.5C11.4696 7.5 10.9609 7.71071 10.5858 8.08579C10.2107 8.46086 10 8.96957 10 9.5C10 10.0304 10.2107 10.5391 10.5858 10.9142C10.9609 11.2893 11.4696 11.5 12 11.5C12.5304 11.5 13.0391 11.2893 13.4142 10.9142C13.7893 10.5391 14 10.0304 14 9.5C14 8.96957 13.7893 8.46086 13.4142 8.08579C13.0391 7.71071 12.5304 7.5 12 7.5ZM18.5 0C19.4283 0 20.3185 0.368749 20.9749 1.02513C21.6313 1.6815 22 2.57174 22 3.5C22 4.42826 21.6313 5.3185 20.9749 5.97487C20.3185 6.63125 19.4283 7 18.5 7C17.5717 7 16.6815 6.63125 16.0251 5.97487C15.3687 5.3185 15 4.42826 15 3.5C15 2.57174 15.3687 1.6815 16.0251 1.02513C16.6815 0.368749 17.5717 0 18.5 0ZM5.5 0C6.42826 0 7.3185 0.368749 7.97487 1.02513C8.63125 1.6815 9 2.57174 9 3.5C9 4.42826 8.63125 5.3185 7.97487 5.97487C7.3185 6.63125 6.42826 7 5.5 7C4.57174 7 3.6815 6.63125 3.02513 5.97487C2.36875 5.3185 2 4.42826 2 3.5C2 2.57174 2.36875 1.6815 3.02513 1.02513C3.6815 0.368749 4.57174 0 5.5 0ZM18.5 1.5C17.9696 1.5 17.4609 1.71071 17.0858 2.08579C16.7107 2.46086 16.5 2.96957 16.5 3.5C16.5 4.03043 16.7107 4.53914 17.0858 4.91421C17.4609 5.28929 17.9696 5.5 18.5 5.5C19.0304 5.5 19.5391 5.28929 19.9142 4.91421C20.2893 4.53914 20.5 4.03043 20.5 3.5C20.5 2.96957 20.2893 2.46086 19.9142 2.08579C19.5391 1.71071 19.0304 1.5 18.5 1.5ZM5.5 1.5C4.96957 1.5 4.46086 1.71071 4.08579 2.08579C3.71071 2.46086 3.5 2.96957 3.5 3.5C3.5 4.03043 3.71071 4.53914 4.08579 4.91421C4.46086 5.28929 4.96957 5.5 5.5 5.5C6.03043 5.5 6.53914 5.28929 6.91421 4.91421C7.28929 4.53914 7.5 4.03043 7.5 3.5C7.5 2.96957 7.28929 2.46086 6.91421 2.08579C6.53914 1.71071 6.03043 1.5 5.5 1.5Z"/>
</svg>
