<svg width="40" height="40" viewBox="0 0 40 40" fill="none" xmlns="http://www.w3.org/2000/svg">
<path d="M29.4531 15.4006H27.1094V13.4375H21.1758V26.7851H23.2067V29.1288H16.8011V26.7851H18.832V13.4375H12.8984V15.4006H10.5547V11.0938H29.4531V15.4006Z" fill="#D3D3D3"/>
<path d="M2.79297 31.3285V8.67148C1.1557 7.99609 0 6.38344 0 4.50523C0 2.02102 2.02102 0 4.50523 0C6.38344 0 7.99609 1.1557 8.67148 2.79297H31.3285C32.0039 1.1557 33.6166 0 35.4948 0C37.979 0 40 2.02102 40 4.50523C40 6.38344 38.8443 7.99617 37.207 8.67156V31.3285C38.8443 32.0039 40 33.6166 40 35.4948C40 37.979 37.979 40 35.4948 40C33.6166 40 32.0039 38.8443 31.3285 37.207H8.67148C7.99609 38.8443 6.38344 40 4.50523 40C2.02102 40 0 37.979 0 35.4948C0 33.6166 1.1557 32.0039 2.79297 31.3285ZM8.96523 34.8633H31.0348C31.3138 32.8836 32.8837 31.3137 34.8633 31.0348V8.96523C32.8837 8.68625 31.3138 7.11633 31.0348 5.13672H8.96523C8.68617 7.11641 7.11633 8.68625 5.13672 8.96523V31.0347C7.11633 31.3137 8.68617 32.8836 8.96523 34.8633ZM4.50523 2.34375C3.31336 2.34375 2.34375 3.31336 2.34375 4.50523C2.34375 5.69711 3.31336 6.66672 4.50523 6.66672C5.69703 6.66672 6.66664 5.69711 6.66664 4.50523C6.66664 3.31336 5.69703 2.34375 4.50523 2.34375ZM35.4948 2.34375C34.303 2.34375 33.3334 3.31336 33.3334 4.50523C33.3334 5.69711 34.303 6.66672 35.4948 6.66672C36.6866 6.66664 37.6562 5.69703 37.6562 4.50523C37.6562 3.31336 36.6866 2.34375 35.4948 2.34375ZM35.4948 37.6562C36.6866 37.6562 37.6562 36.6866 37.6562 35.4948C37.6562 34.3029 36.6866 33.3333 35.4948 33.3333C34.303 33.3333 33.3334 34.3029 33.3334 35.4948C33.3334 36.6866 34.303 37.6562 35.4948 37.6562ZM4.50523 37.6562C5.69703 37.6562 6.66664 36.6866 6.66664 35.4948C6.66664 34.3029 5.69703 33.3333 4.50523 33.3333C3.31336 33.3333 2.34375 34.3029 2.34375 35.4948C2.34375 36.6866 3.31336 37.6562 4.50523 37.6562Z" fill="#D3D3D3"/>
</svg>
