<svg width="18" height="16" viewBox="0 0 18 16" fill="none" xmlns="http://www.w3.org/2000/svg">
<path d="M6.42179 11.7505H11.578C11.664 11.7505 11.7343 11.6802 11.7343 11.5942V9.95361C11.7343 9.86768 11.664 9.79736 11.578 9.79736H10.7968C10.7108 9.79736 10.6405 9.86768 10.6405 9.95361V10.6567H7.35929V9.95361C7.35929 9.86768 7.28897 9.79736 7.20304 9.79736H6.42179C6.33585 9.79736 6.26554 9.86768 6.26554 9.95361V11.5942C6.26554 11.6802 6.33585 11.7505 6.42179 11.7505ZM13.0624 9.34814C13.0624 9.55535 13.1447 9.75406 13.2912 9.90057C13.4377 10.0471 13.6365 10.1294 13.8437 10.1294C14.0509 10.1294 14.2496 10.0471 14.3961 9.90057C14.5426 9.75406 14.6249 9.55535 14.6249 9.34814C14.6249 9.14094 14.5426 8.94223 14.3961 8.79572C14.2496 8.6492 14.0509 8.5669 13.8437 8.5669C13.6365 8.5669 13.4377 8.6492 13.2912 8.79572C13.1447 8.94223 13.0624 9.14094 13.0624 9.34814ZM17.7304 6.07471L17.2675 5.26611C17.2467 5.23047 17.2126 5.2045 17.1727 5.19389C17.1328 5.18328 17.0904 5.18888 17.0546 5.20947L16.0644 5.7876L14.5351 1.56494C14.4543 1.31298 14.2956 1.09319 14.0818 0.93732C13.868 0.781448 13.6102 0.697555 13.3456 0.697754H4.88272C4.20499 0.697754 3.60343 1.13525 3.39444 1.78174L1.93741 5.78955L0.945224 5.21143C0.909453 5.19083 0.866986 5.18523 0.827099 5.19585C0.787211 5.20646 0.753143 5.23242 0.732334 5.26807L0.269443 6.07471C0.226474 6.14893 0.251865 6.24268 0.326084 6.28565L1.50577 6.97315L1.22257 7.7544C1.19913 7.8169 1.18741 7.8833 1.18741 7.94971V14.7505C1.18741 15.0571 1.41788 15.3052 1.70108 15.3052H3.0214C3.26163 15.3052 3.47061 15.1235 3.5214 14.8696L3.67179 14.1333H14.328L14.4784 14.8696C14.5312 15.1235 14.7382 15.3052 14.9784 15.3052H16.2987C16.5819 15.3052 16.8124 15.0571 16.8124 14.7505V7.94971C16.8124 7.8833 16.8007 7.8169 16.7773 7.7544L16.4941 6.97315L17.6718 6.28565C17.7072 6.26517 17.7332 6.2316 17.7442 6.19215C17.7552 6.15271 17.7502 6.11053 17.7304 6.07471ZM15.4062 8.09815V12.7271H2.59366V8.09815L2.89835 7.2583H15.1015L15.4062 8.09815ZM4.71671 2.26025L4.72647 2.23486L4.73429 2.20947C4.75577 2.14502 4.81436 2.10205 4.88272 2.10205H13.2343L14.7069 6.16455H3.29679L4.71671 2.26025ZM3.37491 9.34814C3.37491 9.55535 3.45722 9.75406 3.60373 9.90057C3.75025 10.0471 3.94896 10.1294 4.15616 10.1294C4.36336 10.1294 4.56208 10.0471 4.70859 9.90057C4.8551 9.75406 4.93741 9.55535 4.93741 9.34814C4.93741 9.14094 4.8551 8.94223 4.70859 8.79572C4.56208 8.6492 4.36336 8.5669 4.15616 8.5669C3.94896 8.5669 3.75025 8.6492 3.60373 8.79572C3.45722 8.94223 3.37491 9.14094 3.37491 9.34814Z" fill="#272F3E"/>
</svg>
