<svg width="14" height="18" viewBox="0 0 14 18" fill="none" xmlns="http://www.w3.org/2000/svg">
<path d="M13.291 8.16428C12.9118 7.31088 12.3606 6.5449 11.6719 5.91428L11.1035 5.3928C11.0842 5.37558 11.061 5.36336 11.0359 5.35721C11.0107 5.35106 10.9845 5.35117 10.9594 5.35754C10.9344 5.3639 10.9112 5.37632 10.8921 5.39371C10.8729 5.41109 10.8584 5.43291 10.8496 5.45725L10.5957 6.18577C10.4375 6.6428 10.1465 7.1096 9.73438 7.56858C9.70703 7.59788 9.67578 7.60569 9.6543 7.60764C9.63281 7.6096 9.59961 7.60569 9.57031 7.57835C9.54297 7.55491 9.5293 7.51975 9.53125 7.4846C9.60352 6.30881 9.25195 4.98264 8.48242 3.53928C7.8457 2.34006 6.96094 1.40452 5.85547 0.752174L5.04883 0.277565C4.94336 0.215065 4.80859 0.297096 4.81445 0.420143L4.85742 1.35764C4.88672 1.99827 4.8125 2.56467 4.63672 3.03538C4.42188 3.61155 4.11328 4.1467 3.71875 4.62717C3.44419 4.96109 3.13299 5.26311 2.79102 5.52756C1.96739 6.1607 1.29768 6.97197 0.832031 7.90061C0.367527 8.83736 0.125567 9.86869 0.125 10.9143C0.125 11.8362 0.306641 12.7287 0.666016 13.5705C1.01302 14.381 1.51379 15.1166 2.14063 15.7365C2.77344 16.3615 3.50781 16.8537 4.32617 17.1955C5.17383 17.551 6.07227 17.7307 7 17.7307C7.92774 17.7307 8.82617 17.551 9.67383 17.1975C10.4902 16.8577 11.2325 16.3621 11.8594 15.7385C12.4922 15.1135 12.9883 14.383 13.334 13.5725C13.6928 12.733 13.8769 11.8292 13.875 10.9162C13.875 9.96311 13.6797 9.03733 13.291 8.16428Z" fill="#272F3E"/>
</svg>
