<svg width="18" height="22" viewBox="0 0 18 22" fill="none" xmlns="http://www.w3.org/2000/svg">
<path d="M16.5492 9.99739C16.0942 8.9733 15.4328 8.05413 14.6063 7.29738L13.9242 6.6716C13.9011 6.65094 13.8732 6.63627 13.843 6.62889C13.8129 6.62152 13.7814 6.62165 13.7513 6.62929C13.7212 6.63693 13.6935 6.65183 13.6705 6.67269C13.6475 6.69356 13.63 6.71974 13.6195 6.74895L13.3148 7.62317C13.125 8.1716 12.7758 8.73176 12.2812 9.28254C12.2484 9.3177 12.2109 9.32707 12.1852 9.32942C12.1594 9.33176 12.1195 9.32707 12.0844 9.29426C12.0516 9.26614 12.0352 9.22395 12.0375 9.18176C12.1242 7.77082 11.7023 6.17942 10.7789 4.44738C10.0148 3.00832 8.95312 1.88567 7.62656 1.10285L6.65859 0.533322C6.53203 0.458322 6.37031 0.556759 6.37734 0.704415L6.42891 1.82942C6.46406 2.59817 6.375 3.27785 6.16406 3.8427C5.90625 4.5341 5.53594 5.17629 5.0625 5.75285C4.73302 6.15355 4.35959 6.51598 3.94922 6.83332C2.96087 7.59309 2.15722 8.5666 1.59844 9.68098C1.04103 10.8051 0.75068 12.0427 0.75 13.2974C0.75 14.4036 0.967969 15.4747 1.39922 16.4849C1.81562 17.4575 2.41654 18.3401 3.16875 19.0841C3.92813 19.8341 4.80938 20.4247 5.79141 20.8349C6.80859 21.2614 7.88672 21.4771 9 21.4771C10.1133 21.4771 11.1914 21.2614 12.2086 20.8372C13.1882 20.4295 14.079 19.8348 14.8312 19.0864C15.5906 18.3364 16.1859 17.4599 16.6008 16.4872C17.0314 15.4798 17.2523 14.3953 17.25 13.2997C17.25 12.156 17.0156 11.045 16.5492 9.99739ZM13.7109 17.9497C12.4523 19.1966 10.7812 19.881 9 19.881C7.21875 19.881 5.54766 19.1966 4.28906 17.9497C3.03516 16.7052 2.34375 15.0552 2.34375 13.2997C2.34375 12.2802 2.57344 11.3029 3.02578 10.3935C3.46641 9.5052 4.12266 8.71067 4.91953 8.09895C5.42775 7.71034 5.8887 7.26354 6.29297 6.7677C6.87891 6.05285 7.33828 5.25598 7.65703 4.40051C7.78778 4.04763 7.88279 3.68252 7.94062 3.31067C8.50547 3.83098 8.97891 4.4591 9.375 5.19504C10.1578 6.66223 10.5187 7.9677 10.4484 9.07863C10.4316 9.34028 10.4744 9.60233 10.5734 9.84509C10.6725 10.0878 10.8253 10.305 11.0203 10.4802C11.1893 10.6329 11.387 10.7505 11.6019 10.8261C11.8167 10.9017 12.0445 10.9339 12.2719 10.9208C12.7336 10.8974 13.1578 10.6935 13.4672 10.3489C13.7789 9.99973 14.0484 9.64348 14.2734 9.2802C14.6016 9.69973 14.8758 10.1568 15.0938 10.6489C15.4664 11.488 15.6562 12.381 15.6562 13.2997C15.6562 15.0552 14.9648 16.7075 13.7109 17.9497Z" fill="#272F3E"/>
</svg>
