<svg width="18" height="16" viewBox="0 0 18 16" fill="none" xmlns="http://www.w3.org/2000/svg">
<path d="M17.7299 6.07446L17.267 5.26587C17.2462 5.23022 17.2121 5.20426 17.1722 5.19365C17.1323 5.18304 17.0899 5.18864 17.0541 5.20923L16.0639 5.78735L14.5346 1.5647C14.4538 1.31273 14.2951 1.09295 14.0813 0.937076C13.8675 0.781204 13.6097 0.697311 13.3451 0.69751H4.88224C4.2045 0.69751 3.60294 1.13501 3.39395 1.78149L1.93692 5.78931L0.944736 5.21118C0.908964 5.19059 0.866498 5.18499 0.826611 5.1956C0.786723 5.20621 0.752655 5.23218 0.731845 5.26782L0.268955 6.07446C0.225986 6.14868 0.251377 6.24243 0.325595 6.2854L1.50528 6.9729L1.22208 7.75415C1.19864 7.81665 1.18692 7.88306 1.18692 7.94946V14.7502C1.18692 15.0569 1.41739 15.3049 1.7006 15.3049H3.02091C3.26114 15.3049 3.47013 15.1233 3.52091 14.8694L3.6713 14.1331H14.3275L14.4779 14.8694C14.5307 15.1233 14.7377 15.3049 14.9779 15.3049H16.2983C16.5815 15.3049 16.8119 15.0569 16.8119 14.7502V7.94946C16.8119 7.88306 16.8002 7.81665 16.7768 7.75415L16.4936 6.9729L17.6713 6.2854C17.7068 6.26493 17.7328 6.23136 17.7437 6.19191C17.7547 6.15246 17.7497 6.11029 17.7299 6.07446ZM4.15567 10.1292C3.72403 10.1292 3.37442 9.77954 3.37442 9.3479C3.37442 8.91626 3.72403 8.56665 4.15567 8.56665C4.58731 8.56665 4.93692 8.91626 4.93692 9.3479C4.93692 9.77954 4.58731 10.1292 4.15567 10.1292ZM11.7338 11.594C11.7338 11.6799 11.6635 11.7502 11.5775 11.7502H6.4213C6.33536 11.7502 6.26505 11.6799 6.26505 11.594V9.95337C6.26505 9.86743 6.33536 9.79712 6.4213 9.79712H7.20255C7.28849 9.79712 7.3588 9.86743 7.3588 9.95337V10.6565H10.64V9.95337C10.64 9.86743 10.7104 9.79712 10.7963 9.79712H11.5775C11.6635 9.79712 11.7338 9.86743 11.7338 9.95337V11.594ZM13.8432 10.1292C13.4115 10.1292 13.0619 9.77954 13.0619 9.3479C13.0619 8.91626 13.4115 8.56665 13.8432 8.56665C14.2748 8.56665 14.6244 8.91626 14.6244 9.3479C14.6244 9.77954 14.2748 10.1292 13.8432 10.1292ZM3.2963 6.16431L4.71622 2.26001L4.72599 2.23462L4.7338 2.20923C4.75528 2.14478 4.81388 2.10181 4.88224 2.10181H13.2338L14.7065 6.16431H3.2963Z" fill="#272F3E"/>
</svg>
