<svg width="16" height="16" viewBox="0 0 16 16" fill="none" xmlns="http://www.w3.org/2000/svg">
<path d="M15.5698 3.40042L11.769 5.74222L8.12451 0.880892C8.10985 0.861326 8.09083 0.845444 8.06896 0.834505C8.0471 0.823566 8.02298 0.817871 7.99853 0.817871C7.97408 0.817871 7.94997 0.823566 7.9281 0.834505C7.90624 0.845444 7.88722 0.861326 7.87256 0.880892L4.22998 5.74222L0.427244 3.40042C0.315916 3.33206 0.171384 3.42386 0.188962 3.55472L1.68115 14.8946C1.70263 15.0489 1.83545 15.168 1.99365 15.168H14.0073C14.1636 15.168 14.2983 15.0508 14.3179 14.8946L15.8101 3.55472C15.8257 3.42386 15.6831 3.33206 15.5698 3.40042ZM7.99951 12.3399C6.78662 12.3399 5.80029 11.3535 5.80029 10.1407C5.80029 8.92777 6.78662 7.94144 7.99951 7.94144C9.2124 7.94144 10.1987 8.92777 10.1987 10.1407C10.1987 11.3535 9.2124 12.3399 7.99951 12.3399ZM7.99951 9.1973C7.47998 9.1973 7.0581 9.61917 7.0581 10.1407C7.0581 10.6602 7.47998 11.084 7.99951 11.084C8.51904 11.084 8.94092 10.6621 8.94092 10.1407C8.94092 9.62113 8.51904 9.1973 7.99951 9.1973Z" fill="#272F3E"/>
</svg>
