<svg width="16" height="16" viewBox="0 0 16 16" fill="none" xmlns="http://www.w3.org/2000/svg">
<path d="M15.5701 3.40042L11.7693 5.74222L8.12481 0.880892C8.11015 0.861326 8.09114 0.845444 8.06927 0.834505C8.0474 0.823566 8.02329 0.817871 7.99884 0.817871C7.97439 0.817871 7.95027 0.823566 7.92841 0.834505C7.90654 0.845444 7.88752 0.861326 7.87286 0.880892L4.23028 5.74222L0.427549 3.40042C0.316221 3.33206 0.171689 3.42386 0.189267 3.55472L1.68145 14.8946C1.70294 15.0489 1.83575 15.168 1.99395 15.168H14.0076C14.1639 15.168 14.2986 15.0508 14.3182 14.8946L15.8104 3.55472C15.826 3.42386 15.6834 3.33206 15.5701 3.40042ZM13.1092 13.8321H2.88849L1.8377 5.83597L4.56817 7.51761L7.99981 2.93949L11.4315 7.51761L14.1619 5.83597L13.1092 13.8321ZM7.99981 7.94144C6.78692 7.94144 5.8006 8.92777 5.8006 10.1407C5.8006 11.3535 6.78692 12.3399 7.99981 12.3399C9.21271 12.3399 10.199 11.3535 10.199 10.1407C10.199 8.92777 9.21271 7.94144 7.99981 7.94144ZM7.99981 11.084C7.48028 11.084 7.05841 10.6621 7.05841 10.1407C7.05841 9.62113 7.48028 9.1973 7.99981 9.1973C8.51935 9.1973 8.94122 9.61917 8.94122 10.1407C8.94122 10.6602 8.51935 11.084 7.99981 11.084Z" fill="#272F3E"/>
</svg>
