<svg width="20" height="20" viewBox="0 0 20 20" fill="none" xmlns="http://www.w3.org/2000/svg">
<path d="M18.625 2.31262H14.6875V0.812622C14.6875 0.709497 14.6031 0.625122 14.5 0.625122H13.1875C13.0844 0.625122 13 0.709497 13 0.812622V2.31262H7V0.812622C7 0.709497 6.91563 0.625122 6.8125 0.625122H5.5C5.39687 0.625122 5.3125 0.709497 5.3125 0.812622V2.31262H1.375C0.960156 2.31262 0.625 2.64778 0.625 3.06262V18.6251C0.625 19.04 0.960156 19.3751 1.375 19.3751H18.625C19.0398 19.3751 19.375 19.04 19.375 18.6251V3.06262C19.375 2.64778 19.0398 2.31262 18.625 2.31262ZM17.6875 17.6876H2.3125V8.78137H17.6875V17.6876ZM2.3125 7.18762V4.00012H5.3125V5.12512C5.3125 5.22825 5.39687 5.31262 5.5 5.31262H6.8125C6.91563 5.31262 7 5.22825 7 5.12512V4.00012H13V5.12512C13 5.22825 13.0844 5.31262 13.1875 5.31262H14.5C14.6031 5.31262 14.6875 5.22825 14.6875 5.12512V4.00012H17.6875V7.18762H2.3125Z" fill="#272F3E"/>
</svg>
